SplineFontDB: 3.2
MMCounts: 2 1 1 6
MMAxis: Weight
MMPositions: 1 -1
MMWeights: 0 0
MMAxisMap: 0 3 -1=>200 0=>400 1=>700
MMNamedInstance: 0  200
MMNamedInstance: 1  300
MMNamedInstance: 2  400
MMNamedInstance: 3  500
MMNamedInstance: 4  600
MMNamedInstance: 5  700
BeginMMFonts: 3 869
FontName: Oswald_700.0wt
FullName: Oswald_ 700.0wt
FamilyName: Oswald
Weight: All
ItalicAngle: 0
UnderlinePosition: -125
UnderlineWidth: 50
Ascent: 800
Descent: 200
InvalidEm: 0
LayerCount: 2
Layer: 0 1 "+BBcEMAQ0BD0EOAQ5 +BD8EOwQwBD0A" 1
Layer: 1 1 "+BB8ENQRABDUENAQ9BDgEOQAA +BD8EOwQwBD0A" 0
OS2Version: 0
OS2_WeightWidthSlopeOnly: 0
OS2_UseTypoMetrics: 0
CreationTime: 1707856658
ModificationTime: 1707857848
OS2TypoAscent: 0
OS2TypoAOffset: 1
OS2TypoDescent: 0
OS2TypoDOffset: 1
OS2TypoLinegap: 0
OS2WinAscent: 0
OS2WinAOffset: 1
OS2WinDescent: 0
OS2WinDOffset: 1
HheadAscent: 0
HheadAOffset: 1
HheadDescent: 0
HheadDOffset: 1
OS2Vendor: 'PfEd'
DEI: 91125
Encoding: iso8859-5
UnicodeInterp: none
NameList: AGL For New Fonts
DisplaySize: -48
AntiAlias: 1
FitToEm: 0
WinInfo: 37 37 13
BeginChars: 934 869

StartChar: .notdef
Encoding: 256 -1 0
Width: 682
GlyphClass: 1
Flags: W
LayerCount: 2
Fore
SplineSet
82 0 m 1,0,-1
 90 810 l 1,1,-1
 592 810 l 1,2,-1
 592 0 l 1,3,-1
 82 0 l 1,0,-1
185 90 m 1,4,-1
 489 90 l 1,5,-1
 489 720 l 1,6,-1
 193 720 l 1,7,-1
 185 90 l 1,4,-1
EndSplineSet
EndChar

StartChar: A
Encoding: 65 65 1
Width: 551
GlyphClass: 1
Flags: W
LayerCount: 2
Fore
SplineSet
21 0 m 1,0,-1
 105 405 105 405 174 810 c 1,1,-1
 245.5 810 245.5 810 378 810 c 1,2,-1
 386.5 405 386.5 405 529 0 c 1,3,-1
 419.5 0 419.5 0 364 0 c 1,4,-1
 347.5 102 347.5 102 337 171 c 1,5,-1
 246.5 204 246.5 204 218 171 c 1,6,-1
 144.5 102 144.5 102 190 0 c 1,7,-1
 72 0 72 0 21 0 c 1,0,-1
234 278 m 1,8,-1
 246.5 285 246.5 285 320 278 c 1,9,-1
 280 467.5 280 467.5 277 594 c 1,10,-1
 212.5 467.5 212.5 467.5 234 278 c 1,8,-1
EndSplineSet
EndChar

StartChar: AE
Encoding: 282 198 27
Width: 708
GlyphClass: 1
Flags: W
LayerCount: 2
Fore
SplineSet
-13 0 m 1,0,-1
 119.5 405 119.5 405 340 810 c 1,1,-1
 447.5 810 447.5 810 689 810 c 1,2,-1
 605 769 605 769 689 688 c 1,3,-1
 502.5 728 502.5 728 519 688 c 1,4,-1
 400 594 400 594 519 488 c 1,5,-1
 473.5 460 473.5 460 639 488 c 1,6,-1
 547 419.5 547 419.5 639 362 c 1,7,-1
 473.5 379 473.5 379 519 362 c 1,8,-1
 400 230.5 400 230.5 519 122 c 1,9,-1
 502.5 82 502.5 82 689 122 c 1,10,-1
 605 41 605 41 689 0 c 1,11,-1
 448.5 0 448.5 0 366 0 c 1,12,-1
 292 102.5 292 102.5 366 173 c 1,13,-1
 217.5 205 217.5 205 235 173 c 1,14,-1
 100 102.5 100 102.5 166 0 c 1,15,-1
 3 0 3 0 -13 0 c 1,0,-1
271 286 m 1,16,-1
 232.5 286 232.5 286 366 286 c 1,17,-1
 292 445.5 292 445.5 366 545 c 1,18,-1
 232.5 445.5 232.5 445.5 271 286 c 1,16,-1
EndSplineSet
EndChar

StartChar: B
Encoding: 66 66 29
Width: 588
GlyphClass: 1
Flags: W
LayerCount: 2
Fore
SplineSet
60 0 m 1,0,-1
 63 405 63 405 60 810 c 1,1,-1
 156 810 156 810 271 810 c 2,2,3
 323 810 323 810 369.5 802 c 128,-1,4
 416 794 416 794 452 771.5 c 128,-1,5
 488 749 488 749 508.5 707.5 c 128,-1,6
 529 666 529 666 529 598 c 0,7,8
 529 549 529 549 514.5 515.5 c 128,-1,9
 500 482 500 482 473.5 462 c 128,-1,10
 447 442 447 442 410 435 c 1,11,12
 457 429 457 429 489 404.5 c 128,-1,13
 521 380 521 380 537.5 339 c 128,-1,14
 554 298 554 298 554 240 c 0,15,16
 554 177 554 177 537.5 131.5 c 128,-1,17
 521 86 521 86 490 57 c 128,-1,18
 459 28 459 28 413.5 14 c 128,-1,19
 368 0 368 0 309 0 c 2,20,-1
 171 0 171 0 60 0 c 1,0,-1
239 125 m 1,21,-1
 214 81 214 81 277 125 c 2,22,23
 336 125 336 125 358.5 155 c 128,-1,24
 381 185 381 185 381 243 c 0,25,26
 381 289 381 289 371 316 c 128,-1,27
 361 343 361 343 338 355.5 c 128,-1,28
 315 368 315 368 276 368 c 2,29,-1
 209.5 386 209.5 386 239 368 c 1,30,-1
 176 233.5 176 233.5 239 125 c 1,21,-1
239 486 m 1,31,-1
 209.5 472 209.5 472 274 486 c 2,32,33
 315 486 315 486 336 498.5 c 128,-1,34
 357 511 357 511 364.5 535 c 128,-1,35
 372 559 372 559 372 593 c 0,36,37
 372 625 372 625 360.5 646.5 c 128,-1,38
 349 668 349 668 326.5 679 c 128,-1,39
 304 690 304 690 270 690 c 2,40,-1
 189.5 726 189.5 726 239 690 c 1,41,-1
 176 599 176 599 239 486 c 1,31,-1
EndSplineSet
EndChar

StartChar: C
Encoding: 67 67 31
Width: 563
GlyphClass: 1
Flags: W
LayerCount: 2
Fore
SplineSet
292 -12 m 0,0,1
 200 -12 200 -12 146.5 21.5 c 128,-1,2
 93 55 93 55 71 115.5 c 128,-1,3
 49 176 49 176 49 258 c 2,4,-1
 48 403 48 403 49 550 c 2,5,6
 49 634 49 634 71 694.5 c 128,-1,7
 93 755 93 755 146.5 788 c 128,-1,8
 200 821 200 821 292 821 c 0,9,10
 382 821 382 821 432.5 791.5 c 128,-1,11
 483 762 483 762 504 709 c 128,-1,12
 525 656 525 656 525 587 c 2,13,-1
 470 552 470 552 525 517 c 1,14,-1
 416.5 520 416.5 520 350 517 c 1,15,-1
 363 548.5 363 548.5 350 598 c 2,16,17
 350 622 350 622 347.5 644 c 128,-1,18
 345 666 345 666 333 680.5 c 128,-1,19
 321 695 321 695 292 695 c 0,20,21
 264 695 264 695 250.5 680 c 128,-1,22
 237 665 237 665 233.5 642.5 c 128,-1,23
 230 620 230 620 230 595 c 2,24,-1
 162 402.5 162 402.5 230 214 c 2,25,26
 230 187 230 187 234.5 164.5 c 128,-1,27
 239 142 239 142 252.5 128.5 c 128,-1,28
 266 115 266 115 292 115 c 0,29,30
 320 115 320 115 332 129.5 c 128,-1,31
 344 144 344 144 347 167 c 128,-1,32
 350 190 350 190 350 214 c 2,33,-1
 363 271 363 271 350 299 c 1,34,-1
 416.5 301 416.5 301 525 299 c 1,35,-1
 470 271 470 271 525 229 c 2,36,37
 525 160 525 160 504.5 105.5 c 128,-1,38
 484 51 484 51 433.5 19.5 c 128,-1,39
 383 -12 383 -12 292 -12 c 0,0,1
EndSplineSet
EndChar

StartChar: D
Encoding: 68 68 37
Width: 586
GlyphClass: 1
Flags: W
LayerCount: 2
Fore
SplineSet
60 0 m 1,0,-1
 63 405 63 405 60 810 c 1,1,-1
 151 810 151 810 265 810 c 2,2,3
 371 810 371 810 430 783.5 c 128,-1,4
 489 757 489 757 513 700.5 c 128,-1,5
 537 644 537 644 537 554 c 2,6,-1
 479 414 479 414 537 260 c 2,7,8
 537 169 537 169 513 111.5 c 128,-1,9
 489 54 489 54 430.5 27 c 128,-1,10
 372 0 372 0 267 0 c 2,11,-1
 155.5 0 155.5 0 60 0 c 1,0,-1
239 124 m 1,12,-1
 208 81 208 81 267 124 c 2,13,14
 308 124 308 124 326 136 c 128,-1,15
 344 148 344 148 348.5 172 c 128,-1,16
 353 196 353 196 353 232 c 2,17,-1
 365 417.5 365 417.5 353 585 c 2,18,19
 353 621 353 621 347.5 643 c 128,-1,20
 342 665 342 665 324 675 c 128,-1,21
 306 685 306 685 266 685 c 2,22,-1
 206.5 726 206.5 726 239 685 c 1,23,-1
 176 403.5 176 403.5 239 124 c 1,12,-1
EndSplineSet
EndChar

StartChar: Dcroat
Encoding: 293 272 41
Width: 589
GlyphClass: 1
Flags: W
LayerCount: 2
Fore
SplineSet
64 0 m 1,0,-1
 65 194 65 194 64 374 c 1,1,-1
 41 388 41 388 13 374 c 1,2,-1
 17 420.5 17 420.5 13 456 c 1,3,-1
 41 453 41 453 64 456 c 1,4,-1
 65 631.5 65 631.5 64 810 c 1,5,-1
 153.5 810 153.5 810 269 810 c 2,6,7
 376 810 376 810 435 783.5 c 128,-1,8
 494 757 494 757 517.5 700.5 c 128,-1,9
 541 644 541 644 541 554 c 2,10,-1
 480 414 480 414 541 260 c 2,11,12
 541 169 541 169 517 111.5 c 128,-1,13
 493 54 493 54 434.5 27 c 128,-1,14
 376 0 376 0 272 0 c 2,15,-1
 157.5 0 157.5 0 64 0 c 1,0,-1
239 124 m 1,16,-1
 210.5 81 210.5 81 275 124 c 2,17,18
 316 124 316 124 334 136 c 128,-1,19
 352 148 352 148 357 172 c 128,-1,20
 362 196 362 196 362 232 c 2,21,-1
 367 417.5 367 417.5 362 585 c 2,22,23
 362 621 362 621 356.5 643 c 128,-1,24
 351 665 351 665 332.5 675 c 128,-1,25
 314 685 314 685 275 685 c 2,26,-1
 209 726 209 726 239 685 c 1,27,-1
 179 589.5 179 589.5 239 456 c 1,28,-1
 209 453 209 453 288 456 c 1,29,-1
 239 420.5 239 420.5 288 374 c 1,30,-1
 209 388 209 388 239 374 c 1,31,-1
 179 234.5 179 234.5 239 124 c 1,16,-1
EndSplineSet
EndChar

StartChar: Eth
Encoding: 297 208 45
Width: 563
GlyphClass: 1
Flags: W
LayerCount: 2
Fore
SplineSet
51 0 m 1,0,-1
 63 194 63 194 51 370 c 1,1,-1
 38.5 388 38.5 388 7 370 c 1,2,-1
 14 420.5 14 420.5 7 459 c 1,3,-1
 38.5 453 38.5 453 51 459 c 1,4,-1
 63 631.5 63 631.5 51 810 c 1,5,-1
 151 810 151 810 257 810 c 2,6,7
 363 810 363 810 422 783.5 c 128,-1,8
 481 757 481 757 505 700.5 c 128,-1,9
 529 644 529 644 529 554 c 2,10,-1
 479 414 479 414 529 260 c 2,11,12
 529 169 529 169 505 111.5 c 128,-1,13
 481 54 481 54 422.5 27 c 128,-1,14
 364 0 364 0 259 0 c 2,15,-1
 155.5 0 155.5 0 51 0 c 1,0,-1
231 124 m 1,16,-1
 208 81 208 81 259 124 c 2,17,18
 300 124 300 124 318 136 c 128,-1,19
 336 148 336 148 341 172 c 128,-1,20
 346 196 346 196 346 232 c 2,21,-1
 365 417.5 365 417.5 346 585 c 2,22,23
 346 621 346 621 340.5 643 c 128,-1,24
 335 665 335 665 317 675 c 128,-1,25
 299 685 299 685 259 685 c 2,26,-1
 206.5 726 206.5 726 231 685 c 1,27,-1
 176 589.5 176 589.5 231 459 c 1,28,-1
 206.5 453 206.5 453 272 459 c 1,29,-1
 237 420.5 237 420.5 272 370 c 1,30,-1
 206.5 388 206.5 388 231 370 c 1,31,-1
 176 234.5 176 234.5 231 124 c 1,16,-1
EndSplineSet
EndChar

StartChar: E
Encoding: 69 69 46
Width: 407
GlyphClass: 1
Flags: W
LayerCount: 2
Fore
SplineSet
63 0 m 1,0,-1
 60 810 l 1,1,-1
 377 810 l 1,2,-1
 424 688 l 1,3,-1
 176 726 l 1,4,-1
 239 487 l 1,5,-1
 339 458 l 1,6,-1
 380 363 l 1,7,-1
 176 378 l 1,8,-1
 239 121 l 1,9,-1
 379 81 l 1,10,-1
 426 0 l 1,11,-1
 63 0 l 1,0,-1
EndSplineSet
EndChar

StartChar: uni018F
Encoding: 317 399 66
Width: 582
GlyphClass: 1
Flags: W
LayerCount: 2
Fore
SplineSet
291 -12 m 256,0,1
 213 -12 213 -12 158 16 c 128,-1,2
 103 44 103 44 74 99.5 c 128,-1,3
 45 155 45 155 45 236 c 2,4,-1
 44 337.5 44 337.5 45 421 c 1,5,-1
 208.5 421 208.5 421 350 421 c 1,6,-1
 373 502.5 373 502.5 350 606 c 2,7,8
 350 639 350 639 343 658.5 c 128,-1,9
 336 678 336 678 322.5 686.5 c 128,-1,10
 309 695 309 695 288 695 c 0,11,12
 269 695 269 695 255.5 686.5 c 128,-1,13
 242 678 242 678 235 658.5 c 128,-1,14
 228 639 228 639 228 606 c 2,15,-1
 158 549 158 549 228 491 c 1,16,-1
 101 514 101 514 45 491 c 1,17,-1
 44 537.5 44 537.5 45 574 c 2,18,19
 45 656 45 656 74 710.5 c 128,-1,20
 103 765 103 765 158.5 793 c 128,-1,21
 214 821 214 821 291 821 c 0,22,23
 366 821 366 821 420 790.5 c 128,-1,24
 474 760 474 760 503.5 702.5 c 128,-1,25
 533 645 533 645 533 564 c 2,26,-1
 487 407 487 407 533 244 c 2,27,28
 533 163 533 163 503.5 105.5 c 128,-1,29
 474 48 474 48 420 18 c 128,-1,30
 366 -12 366 -12 291 -12 c 256,0,1
289 114 m 256,31,32
 310 114 310 114 323.5 123 c 128,-1,33
 337 132 337 132 343.5 151.5 c 128,-1,34
 350 171 350 171 350 202 c 2,35,-1
 373 280.5 373 280.5 350 313 c 1,36,-1
 265.5 332 265.5 332 228 313 c 1,37,-1
 158 280.5 158 280.5 228 202 c 2,38,39
 228 171 228 171 234.5 151.5 c 128,-1,40
 241 132 241 132 255 123 c 128,-1,41
 269 114 269 114 289 114 c 256,31,32
EndSplineSet
EndChar

StartChar: uni01B7
Encoding: 318 439 67
Width: 503
GlyphClass: 1
Flags: W
LayerCount: 2
Fore
SplineSet
247 -15 m 0,0,1
 162 -15 162 -15 113 17 c 128,-1,2
 64 49 64 49 43.5 106.5 c 128,-1,3
 23 164 23 164 23 239 c 2,4,-1
 30 212.5 30 212.5 23 268 c 1,5,-1
 83 226 83 226 190 268 c 1,6,7
 190 267 190 267 190 257 c 128,-1,8
 190 247 190 247 190 239 c 0,9,10
 190 170 190 170 202.5 141 c 128,-1,11
 215 112 215 112 249 112 c 0,12,13
 266 112 266 112 276.5 119.5 c 128,-1,14
 287 127 287 127 293 141.5 c 128,-1,15
 299 156 299 156 301 179.5 c 128,-1,16
 303 203 303 203 303 234 c 0,17,18
 303 293 303 293 294.5 328 c 128,-1,19
 286 363 286 363 262 379 c 128,-1,20
 238 395 238 395 190 395 c 2,21,-1
 127.5 433 127.5 433 103 395 c 1,22,-1
 85 466 85 466 103 484 c 1,23,-1
 170.5 614 170.5 614 255 689 c 1,24,-1
 151.5 729 151.5 729 47 689 c 1,25,-1
 47 810 l 1,26,-1
 435 810 l 1,27,-1
 392 785.5 392 785.5 435 709 c 1,28,-1
 284 610.5 284 610.5 241 455 c 1,29,-1
 166.5 478.5 166.5 478.5 202 493 c 1,30,-1
 189.5 497 189.5 497 266 493 c 2,31,32
 348 493 348 493 391.5 460 c 128,-1,33
 435 427 435 427 451.5 369.5 c 128,-1,34
 468 312 468 312 468 238 c 0,35,36
 468 164 468 164 446.5 107 c 128,-1,37
 425 50 425 50 376.5 17.5 c 128,-1,38
 328 -15 328 -15 247 -15 c 0,0,1
EndSplineSet
EndChar

StartChar: F
Encoding: 70 70 69
Width: 391
GlyphClass: 1
Flags: W
LayerCount: 2
Fore
SplineSet
63 0 m 1,0,-1
 60 810 l 1,1,-1
 376 810 l 1,2,-1
 410 689 l 1,3,-1
 176 729 l 1,4,-1
 239 485 l 1,5,-1
 331 459 l 1,6,-1
 388 360 l 1,7,-1
 176 379 l 1,8,-1
 239 0 l 1,9,-1
 63 0 l 1,0,-1
EndSplineSet
EndChar

StartChar: G
Encoding: 71 71 71
Width: 582
GlyphClass: 1
Flags: W
LayerCount: 2
Fore
SplineSet
271 -12 m 0,0,1
 187 -12 187 -12 138.5 23 c 128,-1,2
 90 58 90 58 69.5 121.5 c 128,-1,3
 49 185 49 185 49 268 c 2,4,-1
 48 401.5 48 401.5 49 540 c 2,5,6
 49 626 49 626 71 689 c 128,-1,7
 93 752 93 752 146.5 786.5 c 128,-1,8
 200 821 200 821 292 821 c 0,9,10
 382 821 382 821 433.5 791 c 128,-1,11
 485 761 485 761 507 708 c 128,-1,12
 529 655 529 655 529 584 c 2,13,-1
 476 566 476 566 529 532 c 1,14,-1
 423 551 423 551 354 532 c 1,15,-1
 370 563.5 370 563.5 354 598 c 2,16,17
 354 624 354 624 350.5 646 c 128,-1,18
 347 668 347 668 334.5 681.5 c 128,-1,19
 322 695 322 695 294 695 c 0,20,21
 265 695 265 695 252 679.5 c 128,-1,22
 239 664 239 664 235.5 641 c 128,-1,23
 232 618 232 618 232 593 c 2,24,-1
 161 404 161 404 232 218 c 2,25,26
 232 191 232 191 237.5 167.5 c 128,-1,27
 243 144 243 144 257.5 129.5 c 128,-1,28
 272 115 272 115 299 115 c 256,29,30
 327 115 327 115 342 130 c 128,-1,31
 357 145 357 145 363 169 c 128,-1,32
 369 193 369 193 369 220 c 2,33,-1
 380 293 380 293 369 315 c 1,34,-1
 328.5 321 328.5 321 296 315 c 1,35,-1
 277 361 277 361 296 420 c 1,36,-1
 379.5 401 379.5 401 530 420 c 1,37,-1
 482 200.5 482 200.5 530 0 c 1,38,-1
 446.5 0 446.5 0 412 0 c 1,39,-1
 405.5 46.5 405.5 46.5 402 67 c 1,40,41
 386 33 386 33 355 10.5 c 128,-1,42
 324 -12 324 -12 271 -12 c 0,0,1
EndSplineSet
EndChar

StartChar: uni01E4
Encoding: 327 484 78
Width: 582
GlyphClass: 1
Flags: W
LayerCount: 2
Fore
SplineSet
321 189 m 1,0,-1
 314 240.5 314 240.5 321 278 c 1,1,-1
 425.5 273 425.5 273 586 278 c 1,2,-1
 537 240.5 537 240.5 586 189 c 1,3,-1
 425.5 208 425.5 208 321 189 c 1,0,-1
271 -12 m 0,4,5
 187 -12 187 -12 138.5 23 c 128,-1,6
 90 58 90 58 69.5 121.5 c 128,-1,7
 49 185 49 185 49 268 c 2,8,-1
 48 401.5 48 401.5 49 540 c 2,9,10
 49 626 49 626 71 689 c 128,-1,11
 93 752 93 752 146.5 786.5 c 128,-1,12
 200 821 200 821 292 821 c 0,13,14
 382 821 382 821 433.5 791 c 128,-1,15
 485 761 485 761 507 708 c 128,-1,16
 529 655 529 655 529 584 c 2,17,-1
 476 566 476 566 529 532 c 1,18,-1
 423 551 423 551 354 532 c 1,19,-1
 370 563.5 370 563.5 354 598 c 2,20,21
 354 624 354 624 350.5 646 c 128,-1,22
 347 668 347 668 334.5 681.5 c 128,-1,23
 322 695 322 695 294 695 c 0,24,25
 265 695 265 695 252 679.5 c 128,-1,26
 239 664 239 664 235.5 641 c 128,-1,27
 232 618 232 618 232 593 c 2,28,-1
 161 404 161 404 232 218 c 2,29,30
 232 191 232 191 237.5 167.5 c 128,-1,31
 243 144 243 144 257.5 129.5 c 128,-1,32
 272 115 272 115 299 115 c 256,33,34
 327 115 327 115 342 130 c 128,-1,35
 357 145 357 145 363 169 c 128,-1,36
 369 193 369 193 369 220 c 2,37,-1
 380 293 380 293 369 315 c 1,38,-1
 328.5 321 328.5 321 296 315 c 1,39,-1
 277 361 277 361 296 420 c 1,40,-1
 379.5 401 379.5 401 530 420 c 1,41,-1
 482 200.5 482 200.5 530 0 c 1,42,-1
 446.5 0 446.5 0 412 0 c 1,43,-1
 405.5 46.5 405.5 46.5 402 67 c 1,44,45
 386 33 386 33 355 10.5 c 128,-1,46
 324 -12 324 -12 271 -12 c 0,4,5
EndSplineSet
EndChar

StartChar: H
Encoding: 72 72 79
Width: 561
GlyphClass: 1
Flags: W
LayerCount: 2
Fore
SplineSet
63 0 m 1,0,-1
 63 810 l 1,1,-1
 176 810 l 1,2,-1
 242 482 l 1,3,-1
 384 460 l 1,4,-1
 368 810 l 1,5,-1
 497 810 l 1,6,-1
 547 0 l 1,7,-1
 384 0 l 1,8,-1
 368 354 l 1,9,-1
 176 379 l 1,10,-1
 242 0 l 1,11,-1
 63 0 l 1,0,-1
EndSplineSet
EndChar

StartChar: Hbar
Encoding: 328 294 80
Width: 561
GlyphClass: 1
Flags: W
LayerCount: 2
Fore
SplineSet
63 0 m 1,0,-1
 38 615 l 1,1,-1
 16 619 l 1,2,-1
 -13 671 l 1,3,-1
 63 677 l 1,4,-1
 38 810 l 1,5,-1
 176 810 l 1,6,-1
 217 671 l 1,7,-1
 384 677 l 1,8,-1
 334 810 l 1,9,-1
 497 810 l 1,10,-1
 514 671 l 1,11,-1
 544 677 l 1,12,-1
 553 615 l 1,13,-1
 497 619 l 1,14,-1
 514 0 l 1,15,-1
 384 0 l 1,16,-1
 334 354 l 1,17,-1
 176 379 l 1,18,-1
 217 0 l 1,19,-1
 63 0 l 1,0,-1
176 460 m 1,20,-1
 334 482 l 1,21,-1
 384 619 l 1,22,-1
 217 615 l 1,23,-1
 176 460 l 1,20,-1
EndSplineSet
EndChar

StartChar: I
Encoding: 73 73 83
Width: 301
GlyphClass: 1
Flags: W
LayerCount: 2
Fore
SplineSet
61 0 m 1,0,-1
 69 405 69 405 61 810 c 1,1,-1
 124.5 810 124.5 810 240 810 c 1,2,-1
 180 405 180 405 240 0 c 1,3,-1
 124.5 0 124.5 0 61 0 c 1,0,-1
EndSplineSet
EndChar

StartChar: J
Encoding: 74 74 98
Width: 349
GlyphClass: 1
Flags: W
LayerCount: 2
Fore
SplineSet
13 -21 m 1,0,-1
 7 21.5 7 21.5 13 104 c 1,1,2
 40 104 40 104 59 107 c 128,-1,3
 78 110 78 110 89 118.5 c 128,-1,4
 100 127 100 127 105 143.5 c 128,-1,5
 110 160 110 160 110 186 c 2,6,-1
 125 497.5 125 497.5 110 810 c 1,7,-1
 181 810 181 810 289 810 c 1,8,-1
 237 496.5 237 496.5 289 178 c 2,9,10
 289 112 289 112 272.5 67.5 c 128,-1,11
 256 23 256 23 215 1 c 128,-1,12
 174 -21 174 -21 100 -21 c 2,13,-1
 34 -19 34 -19 13 -21 c 1,0,-1
EndSplineSet
EndChar

StartChar: K
Encoding: 75 75 100
Width: 567
GlyphClass: 1
Flags: W
LayerCount: 2
Fore
SplineSet
60 0 m 1,0,-1
 63 405 63 405 60 810 c 1,1,-1
 119.5 810 119.5 810 239 810 c 1,2,-1
 176 619 176 619 239 479 c 1,3,-1
 269 619 269 619 375 810 c 1,4,-1
 414.5 810 414.5 810 550 810 c 1,5,-1
 387 631.5 387 631.5 400 444 c 1,6,-1
 400 226.5 400 226.5 557 0 c 1,7,-1
 438 0 438 0 375 0 c 1,8,-1
 305.5 190 305.5 190 258 358 c 1,9,-1
 202 333 202 333 239 326 c 1,10,-1
 176 143 176 143 239 0 c 1,11,-1
 119.5 0 119.5 0 60 0 c 1,0,-1
EndSplineSet
EndChar

StartChar: L
Encoding: 76 76 103
Width: 397
GlyphClass: 1
Flags: W
LayerCount: 2
Fore
SplineSet
63 0 m 1,0,-1
 60 810 l 1,1,-1
 176 810 l 1,2,-1
 239 121 l 1,3,-1
 383 81 l 1,4,-1
 425 0 l 1,5,-1
 63 0 l 1,0,-1
EndSplineSet
EndChar

StartChar: Lslash
Encoding: 354 321 110
Width: 450
GlyphClass: 1
Flags: W
LayerCount: 2
Fore
SplineSet
68 0 m 1,0,-1
 63 188.5 63 188.5 68 358 c 1,1,-1
 28.5 358 28.5 358 8 330 c 1,2,-1
 -6 382.5 -6 382.5 8 428 c 1,3,-1
 28.5 445 28.5 445 68 456 c 1,4,-1
 63 637 63 637 68 810 c 1,5,-1
 119.5 810 119.5 810 247 810 c 1,6,-1
 176 668.5 176 668.5 247 540 c 1,7,-1
 228.5 555.5 228.5 555.5 345 587 c 1,8,-1
 281 541 281 541 345 489 c 1,9,-1
 228.5 469 228.5 469 247 442 c 1,10,-1
 176 260.5 176 260.5 247 121 c 1,11,-1
 279.5 81 279.5 81 433 121 c 1,12,-1
 383 40.5 383 40.5 433 0 c 1,13,-1
 223 0 223 0 68 0 c 1,0,-1
EndSplineSet
EndChar

StartChar: M
Encoding: 77 77 111
Width: 704
GlyphClass: 1
Flags: W
LayerCount: 2
Fore
SplineSet
57 0 m 1,0,-1
 68.5 405 68.5 405 71 810 c 1,1,-1
 131.5 810 131.5 810 263 810 c 1,2,-1
 258.5 481.5 258.5 481.5 352 339 c 1,3,-1
 402 481.5 402 481.5 448 810 c 1,4,-1
 529 810 529 810 633 810 c 1,5,-1
 591.5 405 591.5 405 647 0 c 1,6,-1
 553.5 0 553.5 0 520 0 c 1,7,-1
 503.5 294 503.5 294 505 539 c 1,8,-1
 430.5 294 430.5 294 411 0 c 1,9,-1
 298 0 l 1,10,-1
 198 543 l 1,11,-1
 157.5 294 157.5 294 186 0 c 1,12,-1
 107 0 107 0 57 0 c 1,0,-1
EndSplineSet
EndChar

StartChar: N
Encoding: 78 78 113
Width: 561
GlyphClass: 1
Flags: W
LayerCount: 2
Fore
SplineSet
60 0 m 1,0,-1
 63 405 63 405 60 810 c 1,1,-1
 101.5 810 101.5 810 186 810 c 1,2,-1
 255 541 255 541 352 420 c 1,3,-1
 370 541 370 541 352 810 c 1,4,-1
 417 810 417 810 500 810 c 1,5,-1
 464 405 464 405 500 0 c 1,6,-1
 428 0 428 0 379 0 c 1,7,-1
 275.5 276.5 275.5 276.5 213 420 c 1,8,-1
 159 276.5 159 276.5 213 0 c 1,9,-1
 111 0 111 0 60 0 c 1,0,-1
EndSplineSet
EndChar

StartChar: Eng
Encoding: 362 330 120
Width: 568
GlyphClass: 1
Flags: W
LayerCount: 2
Fore
SplineSet
245 -209 m 1,0,-1
 267 -144.5 267 -144.5 245 -102 c 1,1,2
 290 -102 290 -102 316 -94 c 128,-1,3
 342 -86 342 -86 353.5 -67 c 128,-1,4
 365 -48 365 -48 365 -15 c 2,5,-1
 375 25.5 375 25.5 365 76 c 1,6,-1
 264 297.5 264 297.5 215 420 c 1,7,-1
 153 276.5 153 276.5 215 0 c 1,8,-1
 63 0 l 1,9,-1
 63 810 l 1,10,-1
 190 810 l 1,11,-1
 258 541 258 541 357 420 c 1,12,-1
 376 541 376 541 357 810 c 1,13,-1
 420 810 420 810 504 810 c 1,14,-1
 464 405 464 405 504 0 c 2,15,16
 504 -68 504 -68 489 -115 c 128,-1,17
 474 -162 474 -162 434 -185.5 c 128,-1,18
 394 -209 394 -209 319 -209 c 2,19,-1
 286 -183 286 -183 245 -209 c 1,0,-1
EndSplineSet
EndChar

StartChar: O
Encoding: 79 79 121
Width: 586
GlyphClass: 1
Flags: W
LayerCount: 2
Fore
SplineSet
292 -12 m 256,0,1
 201 -12 201 -12 148 20 c 128,-1,2
 95 52 95 52 72 112 c 128,-1,3
 49 172 49 172 49 255 c 2,4,-1
 48 407.5 48 407.5 49 556 c 2,5,6
 49 640 49 640 72 699 c 128,-1,7
 95 758 95 758 148 789.5 c 128,-1,8
 201 821 201 821 292 821 c 256,9,10
 384 821 384 821 437.5 789.5 c 128,-1,11
 491 758 491 758 514 699 c 128,-1,12
 537 640 537 640 537 556 c 2,13,-1
 491 407 491 407 537 255 c 2,14,15
 537 172 537 172 514 112 c 128,-1,16
 491 52 491 52 437.5 20 c 128,-1,17
 384 -12 384 -12 292 -12 c 256,0,1
292 115 m 256,18,19
 320 115 320 115 333 129 c 128,-1,20
 346 143 346 143 350 165 c 128,-1,21
 354 187 354 187 354 210 c 2,22,-1
 377 406.5 377 406.5 354 600 c 2,23,24
 354 624 354 624 350 645.5 c 128,-1,25
 346 667 346 667 333 681 c 128,-1,26
 320 695 320 695 292 695 c 256,27,28
 266 695 266 695 253 681 c 128,-1,29
 240 667 240 667 236 645.5 c 128,-1,30
 232 624 232 624 232 600 c 2,31,-1
 162 406.5 162 406.5 232 210 c 2,32,33
 232 187 232 187 235.5 165 c 128,-1,34
 239 143 239 143 251.5 129 c 128,-1,35
 264 115 264 115 292 115 c 256,18,19
EndSplineSet
EndChar

StartChar: Oslash
Encoding: 388 216 147
Width: 572
GlyphClass: 1
Flags: W
LayerCount: 2
Fore
SplineSet
120 -90 m 1,0,-1
 140.5 -68 140.5 -68 81 -74 c 1,1,-1
 247 409 247 409 440 884 c 1,2,-1
 393 875 393 875 480 869 c 1,3,-1
 286.5 398 286.5 398 120 -90 c 1,0,-1
292 -12 m 256,4,5
 201 -12 201 -12 148 20 c 128,-1,6
 95 52 95 52 72 112 c 128,-1,7
 49 172 49 172 49 255 c 2,8,-1
 48 407.5 48 407.5 49 556 c 2,9,10
 49 640 49 640 72 699 c 128,-1,11
 95 758 95 758 148 789.5 c 128,-1,12
 201 821 201 821 292 821 c 256,13,14
 384 821 384 821 437.5 789.5 c 128,-1,15
 491 758 491 758 514 699 c 128,-1,16
 537 640 537 640 537 556 c 2,17,-1
 491 407 491 407 537 255 c 2,18,19
 537 172 537 172 514 112 c 128,-1,20
 491 52 491 52 437.5 20 c 128,-1,21
 384 -12 384 -12 292 -12 c 256,4,5
292 115 m 256,22,23
 320 115 320 115 333 129 c 128,-1,24
 346 143 346 143 350 165 c 128,-1,25
 354 187 354 187 354 210 c 2,26,-1
 377 406.5 377 406.5 354 600 c 2,27,28
 354 624 354 624 350 645.5 c 128,-1,29
 346 667 346 667 333 681 c 128,-1,30
 320 695 320 695 292 695 c 256,31,32
 266 695 266 695 253 681 c 128,-1,33
 240 667 240 667 236 645.5 c 128,-1,34
 232 624 232 624 232 600 c 2,35,-1
 162 406.5 162 406.5 232 210 c 2,36,37
 232 187 232 187 235.5 165 c 128,-1,38
 239 143 239 143 251.5 129 c 128,-1,39
 264 115 264 115 292 115 c 256,22,23
EndSplineSet
EndChar

StartChar: OE
Encoding: 392 338 151
Width: 718
GlyphClass: 1
Flags: W
LayerCount: 2
Fore
SplineSet
295 0 m 2,0,1
 203 0 203 0 149 34.5 c 128,-1,2
 95 69 95 69 72 131.5 c 128,-1,3
 49 194 49 194 49 278 c 2,4,-1
 48 396.5 48 396.5 49 520 c 2,5,6
 49 602 49 602 71.5 667 c 128,-1,7
 94 732 94 732 147.5 769.5 c 128,-1,8
 201 807 201 807 293 807 c 2,9,-1
 467 810 467 810 691 807 c 1,10,-1
 654 768 654 768 691 685 c 1,11,-1
 555.5 726 555.5 726 523 685 c 1,12,-1
 457 592.5 457 592.5 523 481 c 1,13,-1
 537 459 537 459 647 481 c 1,14,-1
 617 418.5 617 418.5 647 356 c 1,15,-1
 537 378 537 378 523 356 c 1,16,-1
 457 229.5 457 229.5 523 121 c 1,17,-1
 556.5 81 556.5 81 692 121 c 1,18,-1
 656 40.5 656 40.5 692 0 c 1,19,-1
 472 0 472 0 295 0 c 2,0,1
295 124 m 2,20,-1
 317 84 317 84 345 124 c 1,21,-1
 344 406.5 344 406.5 345 680 c 1,22,-1
 316 729 316 729 295 680 c 2,23,24
 263 680 263 680 249 660.5 c 128,-1,25
 235 641 235 641 231.5 611.5 c 128,-1,26
 228 582 228 582 228 552 c 2,27,-1
 162 392 162 392 228 244 c 2,28,29
 228 215 228 215 232 187 c 128,-1,30
 236 159 236 159 250 141.5 c 128,-1,31
 264 124 264 124 295 124 c 2,20,-1
EndSplineSet
EndChar

StartChar: P
Encoding: 80 80 152
Width: 571
GlyphClass: 1
Flags: W
LayerCount: 2
Fore
SplineSet
60 0 m 1,0,-1
 63 405 63 405 60 810 c 1,1,-1
 163.5 810 163.5 810 332 810 c 2,2,3
 405 810 405 810 452 782.5 c 128,-1,4
 499 755 499 755 522 702.5 c 128,-1,5
 545 650 545 650 545 575 c 0,6,7
 545 481 545 481 514 431.5 c 128,-1,8
 483 382 483 382 430 363 c 128,-1,9
 377 344 377 344 311 344 c 2,10,-1
 220.5 377 220.5 377 239 344 c 1,11,-1
 176 188.5 176 188.5 239 0 c 1,12,-1
 119.5 0 119.5 0 60 0 c 1,0,-1
239 469 m 1,13,-1
 202 458 202 458 299 469 c 2,14,15
 332 469 332 469 349 481 c 128,-1,16
 366 493 366 493 371.5 517 c 128,-1,17
 377 541 377 541 377 578 c 0,18,19
 377 609 377 609 372.5 632.5 c 128,-1,20
 368 656 368 656 351 670 c 128,-1,21
 334 684 334 684 298 684 c 2,22,-1
 202.5 729 202.5 729 239 684 c 1,23,-1
 176 593.5 176 593.5 239 469 c 1,13,-1
EndSplineSet
EndChar

StartChar: Thorn
Encoding: 394 222 154
Width: 562
GlyphClass: 1
Flags: W
LayerCount: 2
Fore
SplineSet
51 0 m 1,0,-1
 63 405 63 405 51 810 c 1,1,-1
 119.5 810 119.5 810 231 810 c 1,2,-1
 176 757 176 757 231 702 c 1,3,-1
 234.5 704 234.5 704 309 702 c 2,4,5
 389 702 389 702 442 679.5 c 128,-1,6
 495 657 495 657 521 607.5 c 128,-1,7
 547 558 547 558 547 477 c 0,8,9
 547 405 547 405 532 358 c 128,-1,10
 517 311 517 311 486.5 283.5 c 128,-1,11
 456 256 456 256 409.5 245 c 128,-1,12
 363 234 363 234 300 234 c 2,13,-1
 225 233 225 233 231 234 c 1,14,-1
 176 116.5 176 116.5 231 0 c 1,15,-1
 119.5 0 119.5 0 51 0 c 1,0,-1
231 361 m 1,16,-1
 211 324 211 324 288 361 c 2,17,18
 340 361 340 361 362 385.5 c 128,-1,19
 384 410 384 410 384 468 c 0,20,21
 384 522 384 522 363 547.5 c 128,-1,22
 342 573 342 573 292 573 c 2,23,-1
 217.5 610 217.5 610 231 573 c 1,24,-1
 176 467 176 467 231 361 c 1,16,-1
EndSplineSet
EndChar

StartChar: Q
Encoding: 81 81 155
Width: 586
GlyphClass: 1
Flags: W
LayerCount: 2
Fore
SplineSet
475 -159 m 1,0,1
 453 -149 453 -149 422 -126.5 c 128,-1,2
 391 -104 391 -104 360.5 -73.5 c 128,-1,3
 330 -43 330 -43 309 -11 c 0,4,5
 305 -12 305 -12 301 -12 c 128,-1,6
 297 -12 297 -12 292 -12 c 0,7,8
 201 -12 201 -12 148 20 c 128,-1,9
 95 52 95 52 72 112 c 128,-1,10
 49 172 49 172 49 255 c 2,11,-1
 48 407.5 48 407.5 49 556 c 2,12,13
 49 640 49 640 72 699 c 128,-1,14
 95 758 95 758 148 789.5 c 128,-1,15
 201 821 201 821 292 821 c 256,16,17
 384 821 384 821 437.5 789.5 c 128,-1,18
 491 758 491 758 514 699 c 128,-1,19
 537 640 537 640 537 556 c 2,20,-1
 492 407 492 407 537 255 c 2,21,22
 537 198 537 198 526.5 152 c 128,-1,23
 516 106 516 106 492.5 72 c 128,-1,24
 469 38 469 38 430 18 c 1,25,26
 443 4 443 4 457 -9.5 c 128,-1,27
 471 -23 471 -23 485 -34.5 c 128,-1,28
 499 -46 499 -46 513 -53 c 1,29,-1
 444 -119.5 444 -119.5 475 -159 c 1,0,1
292 115 m 0,30,31
 320 115 320 115 333 129 c 128,-1,32
 346 143 346 143 350 165 c 128,-1,33
 354 187 354 187 354 210 c 2,34,-1
 378 406.5 378 406.5 354 600 c 2,35,36
 354 624 354 624 350 645.5 c 128,-1,37
 346 667 346 667 333 681 c 128,-1,38
 320 695 320 695 292 695 c 0,39,40
 264 695 264 695 251.5 681 c 128,-1,41
 239 667 239 667 235.5 645.5 c 128,-1,42
 232 624 232 624 232 600 c 2,43,-1
 162 406.5 162 406.5 232 210 c 2,44,45
 232 187 232 187 235.5 165 c 128,-1,46
 239 143 239 143 251.5 129 c 128,-1,47
 264 115 264 115 292 115 c 0,30,31
EndSplineSet
EndChar

StartChar: R
Encoding: 82 82 156
Width: 600
GlyphClass: 1
Flags: W
LayerCount: 2
Fore
SplineSet
60 0 m 1,0,-1
 63 405 63 405 60 810 c 1,1,-1
 144.5 810 144.5 810 283 810 c 2,2,3
 365 810 365 810 425 792 c 128,-1,4
 485 774 485 774 518.5 727.5 c 128,-1,5
 552 681 552 681 552 596 c 0,6,7
 552 546 552 546 544 507 c 128,-1,8
 536 468 536 468 514.5 439.5 c 128,-1,9
 493 411 493 411 453 392 c 1,10,-1
 421.5 203 421.5 203 564 0 c 1,11,-1
 424.5 0 424.5 0 379 0 c 1,12,-1
 317 190 317 190 290 363 c 1,13,-1
 220 380 220 380 239 363 c 1,14,-1
 176 190 176 190 239 0 c 1,15,-1
 119.5 0 119.5 0 60 0 c 1,0,-1
239 466 m 1,16,-1
 197.5 461 197.5 461 289 466 c 2,17,18
 327 466 327 466 348 479.5 c 128,-1,19
 369 493 369 493 377.5 518.5 c 128,-1,20
 386 544 386 544 386 580 c 0,21,22
 386 632 386 632 367 661 c 128,-1,23
 348 690 348 690 297 690 c 2,24,-1
 201 729 201 729 239 690 c 1,25,-1
 176 595 176 595 239 466 c 1,16,-1
EndSplineSet
EndChar

StartChar: S
Encoding: 83 83 162
Width: 514
GlyphClass: 1
Flags: W
LayerCount: 2
Fore
SplineSet
275 -12 m 0,0,1
 199 -12 199 -12 148 15 c 128,-1,2
 97 42 97 42 71 98.5 c 128,-1,3
 45 155 45 155 42 245 c 1,4,-1
 89 240.5 89 240.5 195 268 c 1,5,6
 196 216 196 216 204.5 184 c 128,-1,7
 213 152 213 152 228.5 138 c 128,-1,8
 244 124 244 124 266 124 c 0,9,10
 294 124 294 124 302.5 143 c 128,-1,11
 311 162 311 162 311 183 c 0,12,13
 311 233 311 233 287 267.5 c 128,-1,14
 263 302 263 302 222 337 c 2,15,-1
 187 391 187 391 152 398 c 2,16,17
 106 437 106 437 74.5 486.5 c 128,-1,18
 43 536 43 536 43 609 c 0,19,20
 43 712 43 712 104 766.5 c 128,-1,21
 165 821 165 821 270 821 c 0,22,23
 335 821 335 821 374.5 799 c 128,-1,24
 414 777 414 777 434.5 741.5 c 128,-1,25
 455 706 455 706 462.5 666.5 c 128,-1,26
 470 627 470 627 471 591 c 1,27,-1
 387 595 387 595 317 572 c 1,28,29
 316 608 316 608 312.5 634.5 c 128,-1,30
 309 661 309 661 298 675.5 c 128,-1,31
 287 690 287 690 264 690 c 256,32,33
 239 690 239 690 227.5 669 c 128,-1,34
 216 648 216 648 216 627 c 0,35,36
 216 582 216 582 237.5 553.5 c 128,-1,37
 259 525 259 525 294 494 c 2,38,-1
 263.5 471 263.5 471 361 435 c 2,39,40
 414 390 414 390 450.5 333 c 128,-1,41
 487 276 487 276 487 192 c 0,42,43
 487 135 487 135 461 88.5 c 128,-1,44
 435 42 435 42 387.5 15 c 128,-1,45
 340 -12 340 -12 275 -12 c 0,0,1
EndSplineSet
EndChar

StartChar: uni1E9E
Encoding: 406 7838 169
Width: 539
GlyphClass: 1
Flags: W
LayerCount: 2
Fore
SplineSet
254 -9 m 1,0,-1
 301 110 l 1,1,-1
 320 110 l 2,2,3
 366 110 366 110 391.5 139.5 c 128,-1,4
 417 169 417 169 417 232 c 0,5,6
 417 293 417 293 393.5 323.5 c 128,-1,7
 370 354 370 354 320 354 c 2,8,-1
 264 386 l 1,9,-1
 311 472 l 1,10,-1
 420 680 l 1,11,12
 380 722 380 722 357.5 725.5 c 128,-1,13
 335 729 335 729 309 729 c 0,14,15
 290 695 290 695 229.5 669.5 c 128,-1,16
 169 644 169 644 234 562 c 2,17,-1
 169 0 l 1,18,-1
 56 0 l 1,19,-1
 56 557 l 2,20,21
 54 635 54 635 81 693 c 128,-1,22
 108 751 108 751 163 784 c 128,-1,23
 218 817 218 817 330 821 c 0,24,25
 358 817 358 817 431.5 804 c 128,-1,26
 505 791 505 791 480 776 c 1,27,-1
 551 647 l 1,28,-1
 419 399 l 1,29,-1
 360 456 l 1,30,31
 412 453 412 453 500.5 397.5 c 128,-1,32
 589 342 589 342 589 235 c 0,33,34
 509 104 509 104 457 47.5 c 128,-1,35
 405 -9 405 -9 331 -12 c 2,36,-1
 254 -9 l 1,0,-1
EndSplineSet
EndChar

StartChar: T
Encoding: 84 84 170
Width: 413
GlyphClass: 1
Flags: W
LayerCount: 2
Fore
SplineSet
152 0 m 1,0,-1
 133 677 l 1,1,-1
 15 726 l 1,2,-1
 11 810 l 1,3,-1
 398 810 l 1,4,-1
 434 677 l 1,5,-1
 265 726 l 1,6,-1
 313 0 l 1,7,-1
 152 0 l 1,0,-1
EndSplineSet
EndChar

StartChar: Tbar
Encoding: 407 358 171
Width: 413
GlyphClass: 1
Flags: W
LayerCount: 2
Fore
SplineSet
48 391 m 1,0,-1
 42 456 l 1,1,-1
 366 455 l 1,2,-1
 402 369 l 1,3,-1
 48 391 l 1,0,-1
152 0 m 1,4,-1
 133 677 l 1,5,-1
 15 726 l 1,6,-1
 11 810 l 1,7,-1
 398 810 l 1,8,-1
 434 677 l 1,9,-1
 265 726 l 1,10,-1
 313 0 l 1,11,-1
 152 0 l 1,4,-1
EndSplineSet
EndChar

StartChar: U
Encoding: 85 85 176
Width: 588
GlyphClass: 1
Flags: W
LayerCount: 2
Fore
SplineSet
294 -12 m 256,0,1
 201 -12 201 -12 148.5 18.5 c 128,-1,2
 96 49 96 49 75 107.5 c 128,-1,3
 54 166 54 166 54 251 c 2,4,-1
 56 541.5 56 541.5 54 810 c 1,5,-1
 110 810 110 810 231 810 c 1,6,-1
 164 539 164 539 231 224 c 2,7,8
 231 199 231 199 235 174 c 128,-1,9
 239 149 239 149 252.5 133 c 128,-1,10
 266 117 266 117 294 117 c 0,11,12
 323 117 323 117 336 133 c 128,-1,13
 349 149 349 149 352.5 174 c 128,-1,14
 356 199 356 199 356 224 c 2,15,-1
 380 539 380 539 356 810 c 1,16,-1
 433.5 810 433.5 810 534 810 c 1,17,-1
 487 541.5 487 541.5 534 251 c 2,18,19
 534 166 534 166 512.5 107.5 c 128,-1,20
 491 49 491 49 439 18.5 c 128,-1,21
 387 -12 387 -12 294 -12 c 256,0,1
EndSplineSet
EndChar

StartChar: V
Encoding: 86 86 198
Width: 526
GlyphClass: 1
Flags: W
LayerCount: 2
Fore
SplineSet
168 0 m 1,0,-1
 113.5 405 113.5 405 22 810 c 1,1,-1
 76 810 76 810 175 810 c 1,2,-1
 193 511.5 193 511.5 262 260 c 1,3,-1
 318 511.5 318 511.5 343 810 c 1,4,-1
 430.5 810 430.5 810 505 810 c 1,5,-1
 392.5 405 392.5 405 357 0 c 1,6,-1
 253.5 0 253.5 0 168 0 c 1,0,-1
EndSplineSet
EndChar

StartChar: W
Encoding: 87 87 199
Width: 697
GlyphClass: 1
Flags: W
LayerCount: 2
Fore
SplineSet
125 0 m 1,0,-1
 102 405 102 405 27 810 c 1,1,-1
 83 810 83 810 179 810 c 1,2,-1
 173.5 519 173.5 519 227 338 c 1,3,-1
 271.5 517.5 271.5 517.5 288 809 c 1,4,-1
 366 807 366 807 407 809 c 1,5,-1
 461 516 461 516 471 341 c 1,6,-1
 558.5 517.5 558.5 517.5 520 810 c 1,7,-1
 647 810 647 810 670 810 c 1,8,-1
 628 405 628 405 573 0 c 1,9,-1
 522 0 522 0 417 0 c 1,10,-1
 424.5 300 424.5 300 348 489 c 1,11,-1
 311 300 311 300 283 0 c 1,12,-1
 211 0 211 0 125 0 c 1,0,-1
EndSplineSet
EndChar

StartChar: X
Encoding: 88 88 204
Width: 515
GlyphClass: 1
Flags: W
LayerCount: 2
Fore
SplineSet
7 0 m 1,0,-1
 97.5 212 97.5 212 164 436 c 1,1,-1
 99 617 99 617 14 810 c 1,2,-1
 68.5 810 68.5 810 183 810 c 1,3,-1
 182.5 667 182.5 667 272 591 c 1,4,-1
 300 667 300 667 344 810 c 1,5,-1
 408.5 810 408.5 810 493 810 c 1,6,-1
 376 612.5 376 612.5 351 389 c 1,7,-1
 380 207.5 380 207.5 509 0 c 1,8,-1
 416.5 0 416.5 0 341 0 c 1,9,-1
 298 152.5 298 152.5 242 242 c 1,10,-1
 175 152.5 175 152.5 155 0 c 1,11,-1
 65.5 0 65.5 0 7 0 c 1,0,-1
EndSplineSet
EndChar

StartChar: Y
Encoding: 89 89 205
Width: 493
GlyphClass: 1
Flags: W
LayerCount: 2
Fore
SplineSet
162 0 m 1,0,-1
 187 143 187 143 162 331 c 1,1,-1
 99.5 548 99.5 548 8 810 c 1,2,-1
 64.5 810 64.5 810 177 810 c 1,3,-1
 179 614.5 179 614.5 254 554 c 1,4,-1
 302 614.5 302 614.5 323 810 c 1,5,-1
 416 810 416 810 485 810 c 1,6,-1
 382 548 382 548 334 331 c 1,7,-1
 295 143 295 143 334 0 c 1,8,-1
 241 0 241 0 162 0 c 1,0,-1
EndSplineSet
EndChar

StartChar: Z
Encoding: 90 90 214
Width: 417
GlyphClass: 1
Flags: W
LayerCount: 2
Fore
SplineSet
38 0 m 1,0,-1
 29 108 l 1,1,-1
 227 689 l 1,2,-1
 53 729 l 1,3,-1
 38 810 l 1,4,-1
 396 810 l 1,5,-1
 403 709 l 1,6,-1
 202 121 l 1,7,-1
 396 81 l 1,8,-1
 405 0 l 1,9,-1
 38 0 l 1,0,-1
EndSplineSet
EndChar

StartChar: a
Encoding: 97 97 218
Width: 460
GlyphClass: 1
Flags: W
LayerCount: 2
Fore
SplineSet
154 -10 m 0,0,1
 110 -10 110 -10 80 11 c 128,-1,2
 50 32 50 32 35 64.5 c 128,-1,3
 20 97 20 97 20 131 c 0,4,5
 20 185 20 185 41.5 222 c 128,-1,6
 63 259 63 259 98 284 c 128,-1,7
 133 309 133 309 175 326.5 c 128,-1,8
 217 344 217 344 258 358 c 1,9,-1
 253 381.5 253 381.5 258 416 c 2,10,11
 258 431 258 431 255 442.5 c 128,-1,12
 252 454 252 454 245 460.5 c 128,-1,13
 238 467 238 467 224 467 c 0,14,15
 210 467 210 467 202.5 461 c 128,-1,16
 195 455 195 455 192 444.5 c 128,-1,17
 189 434 189 434 188 421 c 2,18,-1
 134 409.5 134 409.5 184 379 c 1,19,-1
 81 397 81 397 32 385 c 1,20,21
 37 489 37 489 87.5 538.5 c 128,-1,22
 138 588 138 588 239 588 c 0,23,24
 327 588 327 588 370.5 539.5 c 128,-1,25
 414 491 414 491 414 414 c 2,26,-1
 360 271 360 271 414 144 c 2,27,28
 414 108 414 108 415.5 81 c 128,-1,29
 417 54 417 54 419.5 34 c 128,-1,30
 422 14 422 14 424 0 c 1,31,-1
 321 0 321 0 278 0 c 1,32,33
 275 23 275 23 271 50 c 128,-1,34
 267 77 267 77 265 82 c 1,35,36
 255 46 255 46 227.5 18 c 128,-1,37
 200 -10 200 -10 154 -10 c 0,0,1
212 100 m 0,38,39
 222 100 222 100 230.5 104 c 128,-1,40
 239 108 239 108 246 115 c 128,-1,41
 253 122 253 122 258 129 c 1,42,-1
 253 214 253 214 258 287 c 1,43,44
 238 275 238 275 221 262.5 c 128,-1,45
 204 250 204 250 192 235 c 128,-1,46
 180 220 180 220 173.5 202.5 c 128,-1,47
 167 185 167 185 167 163 c 0,48,49
 167 134 167 134 179 117 c 128,-1,50
 191 100 191 100 212 100 c 0,38,39
EndSplineSet
EndChar

StartChar: ae
Encoding: 473 230 244
Width: 678
GlyphClass: 1
Flags: W
LayerCount: 2
Fore
SplineSet
189 -12 m 0,0,1
 119 -12 119 -12 77.5 27 c 128,-1,2
 36 66 36 66 36 133 c 0,3,4
 36 190 36 190 60 226 c 128,-1,5
 84 262 84 262 123.5 283 c 128,-1,6
 163 304 163 304 209 315 c 2,7,-1
 235 316.5 235 316.5 269 329 c 1,8,-1
 274 364.5 274 364.5 269 410 c 2,9,10
 269 442 269 442 260.5 454.5 c 128,-1,11
 252 467 252 467 235 467 c 0,12,13
 222 467 222 467 213.5 459.5 c 128,-1,14
 205 452 205 452 200.5 434 c 128,-1,15
 196 416 196 416 196 382 c 1,16,-1
 97 409 97 409 38 387 c 1,17,18
 38 484 38 484 81.5 536 c 128,-1,19
 125 588 125 588 219 588 c 0,20,21
 280 588 280 588 313.5 563 c 128,-1,22
 347 538 347 538 352 503 c 1,23,-1
 325.5 486 325.5 486 335 503 c 1,24,25
 338 527 338 527 358 546 c 128,-1,26
 378 565 378 565 410.5 576.5 c 128,-1,27
 443 588 443 588 482 588 c 0,28,29
 563 588 563 588 601.5 548.5 c 128,-1,30
 640 509 640 509 640 449 c 0,31,32
 640 401 640 401 620.5 371 c 128,-1,33
 601 341 601 341 567 324 c 128,-1,34
 533 307 533 307 490 297 c 2,35,-1
 416.5 289.5 416.5 289.5 424 282 c 1,36,-1
 381 218.5 381 218.5 424 168 c 2,37,38
 424 138 424 138 429.5 121 c 128,-1,39
 435 104 435 104 455 104 c 0,40,41
 469 104 469 104 475 111.5 c 128,-1,42
 481 119 481 119 483 133 c 128,-1,43
 485 147 485 147 485 164 c 2,44,-1
 501 188.5 501 188.5 485 202 c 1,45,-1
 554.5 201 554.5 201 635 202 c 1,46,-1
 608 189 608 189 635 155 c 2,47,48
 635 102 635 102 616.5 64.5 c 128,-1,49
 598 27 598 27 561.5 7.5 c 128,-1,50
 525 -12 525 -12 471 -12 c 0,51,52
 442 -12 442 -12 413 -1.5 c 128,-1,53
 384 9 384 9 363 30.5 c 128,-1,54
 342 52 342 52 335 83 c 1,55,56
 324 52 324 52 301 31 c 128,-1,57
 278 10 278 10 249 -1 c 128,-1,58
 220 -12 220 -12 189 -12 c 0,0,1
225 98 m 0,59,60
 239 98 239 98 248.5 104.5 c 128,-1,61
 258 111 258 111 263.5 124.5 c 128,-1,62
 269 138 269 138 269 160 c 2,63,-1
 274 218 274 218 269 257 c 1,64,-1
 251 257.5 251 257.5 238 244 c 2,65,66
 217 235 217 235 204 222.5 c 128,-1,67
 191 210 191 210 185 194.5 c 128,-1,68
 179 179 179 179 179 158 c 0,69,70
 179 141 179 141 184 127.5 c 128,-1,71
 189 114 189 114 199 106 c 128,-1,72
 209 98 209 98 225 98 c 0,59,60
423 356 m 1,73,-1
 408.5 346.5 408.5 346.5 439 359 c 2,74,75
 473 366 473 366 489 381 c 128,-1,76
 505 396 505 396 505 424 c 0,77,78
 505 444 505 444 495.5 457 c 128,-1,79
 486 470 486 470 466 470 c 0,80,81
 451 470 451 470 441.5 463.5 c 128,-1,82
 432 457 432 457 427.5 445 c 128,-1,83
 423 433 423 433 423 414 c 2,84,-1
 381 368.5 381 368.5 423 356 c 1,73,-1
EndSplineSet
EndChar

StartChar: b
Encoding: 98 98 246
Width: 506
GlyphClass: 1
Flags: W
LayerCount: 2
Fore
SplineSet
338 -10 m 0,0,1
 306 -10 306 -10 274.5 4.5 c 128,-1,2
 243 19 243 19 214 44 c 1,3,-1
 163 21 163 21 214 0 c 1,4,-1
 109.5 0 109.5 0 51 0 c 1,5,-1
 56 405 56 405 51 810 c 1,6,-1
 109.5 810 109.5 810 214 810 c 1,7,-1
 163 671 163 671 214 536 c 1,8,9
 244 562 244 562 276.5 575 c 128,-1,10
 309 588 309 588 340 588 c 0,11,12
 373 588 373 588 396.5 575 c 128,-1,13
 420 562 420 562 435 538.5 c 128,-1,14
 450 515 450 515 457 484 c 128,-1,15
 464 453 464 453 464 418 c 2,16,-1
 404 299 404 299 464 169 c 2,17,18
 464 115 464 115 449.5 75 c 128,-1,19
 435 35 435 35 407 12.5 c 128,-1,20
 379 -10 379 -10 338 -10 c 0,0,1
259 95 m 0,21,22
 275 95 275 95 284 104 c 128,-1,23
 293 113 293 113 297 127.5 c 128,-1,24
 301 142 301 142 301 160 c 2,25,-1
 297 299 297 299 301 430 c 2,26,27
 301 447 301 447 297 460.5 c 128,-1,28
 293 474 293 474 284.5 482 c 128,-1,29
 276 490 276 490 261 490 c 0,30,31
 248 490 248 490 236.5 484.5 c 128,-1,32
 225 479 225 479 214 471 c 1,33,-1
 163 287.5 163 287.5 214 111 c 1,34,35
 225 104 225 104 236.5 99.5 c 128,-1,36
 248 95 248 95 259 95 c 0,21,22
EndSplineSet
EndChar

StartChar: c
Encoding: 99 99 248
Width: 468
GlyphClass: 1
Flags: W
LayerCount: 2
Fore
SplineSet
239 -10 m 0,0,1
 176 -10 176 -10 131.5 13 c 128,-1,2
 87 36 87 36 63 79 c 128,-1,3
 39 122 39 122 39 183 c 2,4,-1
 43 288.5 43 288.5 39 395 c 2,5,6
 39 457 39 457 63 500 c 128,-1,7
 87 543 87 543 131.5 565.5 c 128,-1,8
 176 588 176 588 239 588 c 0,9,10
 301 588 301 588 344.5 569 c 128,-1,11
 388 550 388 550 411 511.5 c 128,-1,12
 434 473 434 473 434 414 c 2,13,-1
 370 387 370 387 434 353 c 1,14,-1
 321.5 370 321.5 370 277 353 c 1,15,-1
 273 387.5 273 387.5 277 419 c 2,16,17
 277 442 277 442 272.5 454.5 c 128,-1,18
 268 467 268 467 259.5 472 c 128,-1,19
 251 477 251 477 239 477 c 0,20,21
 227 477 227 477 219 470.5 c 128,-1,22
 211 464 211 464 207 449.5 c 128,-1,23
 203 435 203 435 203 409 c 2,24,-1
 150 286 150 286 203 169 c 2,25,26
 203 130 203 130 212.5 116 c 128,-1,27
 222 102 222 102 240 102 c 0,28,29
 253 102 253 102 261 107.5 c 128,-1,30
 269 113 269 113 273 125.5 c 128,-1,31
 277 138 277 138 277 159 c 2,32,-1
 273 194.5 273 194.5 277 236 c 1,33,-1
 321.5 218 321.5 218 434 236 c 1,34,-1
 370 198 370 198 434 166 c 2,35,36
 434 108 434 108 410.5 68.5 c 128,-1,37
 387 29 387 29 343.5 9.5 c 128,-1,38
 300 -10 300 -10 239 -10 c 0,0,1
EndSplineSet
EndChar

StartChar: d
Encoding: 100 100 254
Width: 503
GlyphClass: 1
Flags: W
LayerCount: 2
Fore
SplineSet
176 -10 m 0,0,1
 112 -10 112 -10 77 35 c 128,-1,2
 42 80 42 80 42 168 c 2,3,-1
 43 283 43 283 42 407 c 2,4,5
 42 461 42 461 57 501.5 c 128,-1,6
 72 542 72 542 102 565 c 128,-1,7
 132 588 132 588 176 588 c 0,8,9
 208 588 208 588 237 575.5 c 128,-1,10
 266 563 266 563 290 542 c 1,11,-1
 281 675.5 281 675.5 290 810 c 1,12,-1
 334.5 810 334.5 810 453 810 c 1,13,-1
 388 405 388 405 453 0 c 1,14,-1
 334.5 0 334.5 0 290 0 c 1,15,-1
 281 18.5 281 18.5 290 45 c 1,16,17
 263 19 263 19 234 4.5 c 128,-1,18
 205 -10 205 -10 176 -10 c 0,0,1
247 94 m 0,19,20
 255 94 255 94 266.5 98 c 128,-1,21
 278 102 278 102 290 109 c 1,22,-1
 281 287.5 281 287.5 290 474 c 1,23,24
 280 479 280 479 269 483 c 128,-1,25
 258 487 258 487 248 487 c 0,26,27
 226 487 226 487 216 468.5 c 128,-1,28
 206 450 206 450 206 424 c 2,29,-1
 150 299.5 150 299.5 206 158 c 2,30,31
 206 140 206 140 210 125.5 c 128,-1,32
 214 111 214 111 223 102.5 c 128,-1,33
 232 94 232 94 247 94 c 0,19,20
EndSplineSet
EndChar

StartChar: dcroat
Encoding: 482 273 256
Width: 500
GlyphClass: 1
Flags: W
LayerCount: 2
Fore
SplineSet
173 -10 m 0,0,1
 109 -10 109 -10 74 35 c 128,-1,2
 39 80 39 80 39 168 c 2,3,-1
 43 283 43 283 39 407 c 2,4,5
 39 461 39 461 54 501.5 c 128,-1,6
 69 542 69 542 99 565 c 128,-1,7
 129 588 129 588 173 588 c 0,8,9
 205 588 205 588 233 575.5 c 128,-1,10
 261 563 261 563 285 542 c 1,11,-1
 281 610 281 610 285 681 c 1,12,-1
 225 679 225 679 151 681 c 1,13,-1
 169 708.5 169 708.5 151 747 c 1,14,-1
 225 738 225 738 285 747 c 1,15,-1
 281 774 281 774 285 810 c 1,16,-1
 334.5 810 334.5 810 448 810 c 1,17,-1
 388 774 388 774 448 747 c 1,18,-1
 417.5 738 417.5 738 497 747 c 1,19,-1
 447 708.5 447 708.5 497 681 c 1,20,-1
 417.5 679 417.5 679 448 681 c 1,21,-1
 388 339.5 388 339.5 448 0 c 1,22,-1
 334.5 0 334.5 0 285 0 c 1,23,-1
 281 18.5 281 18.5 285 45 c 1,24,25
 260 19 260 19 231.5 4.5 c 128,-1,26
 203 -10 203 -10 173 -10 c 0,0,1
244 94 m 0,27,28
 252 94 252 94 263 98 c 128,-1,29
 274 102 274 102 285 109 c 1,30,-1
 281 287.5 281 287.5 285 474 c 1,31,32
 275 479 275 479 265 483 c 128,-1,33
 255 487 255 487 245 487 c 0,34,35
 223 487 223 487 213 468.5 c 128,-1,36
 203 450 203 450 203 424 c 2,37,-1
 150 299.5 150 299.5 203 158 c 2,38,39
 203 140 203 140 207 125.5 c 128,-1,40
 211 111 211 111 220 102.5 c 128,-1,41
 229 94 229 94 244 94 c 0,27,28
EndSplineSet
EndChar

StartChar: eth
Encoding: 486 240 260
Width: 520
GlyphClass: 1
Flags: W
LayerCount: 2
Fore
SplineSet
262 -14 m 0,0,1
 205 -14 205 -14 158 9 c 128,-1,2
 111 32 111 32 82.5 81.5 c 128,-1,3
 54 131 54 131 54 211 c 2,4,-1
 52 258.5 52 258.5 54 380 c 2,5,6
 54 443 54 443 78 488 c 128,-1,7
 102 533 102 533 142 557.5 c 128,-1,8
 182 582 182 582 230 582 c 0,9,10
 253 582 253 582 272.5 577 c 128,-1,11
 292 572 292 572 306 564 c 1,12,13
 305 603 305 603 298 632 c 128,-1,14
 291 661 291 661 282 673 c 1,15,-1
 211.5 636.5 211.5 636.5 195 627 c 1,16,-1
 152 645 152 645 177 668 c 1,17,-1
 197 685 197 685 256 710 c 1,18,19
 246 724 246 724 215.5 733 c 128,-1,20
 185 742 185 742 136 742 c 1,21,-1
 79.5 784 79.5 784 143 844 c 1,22,23
 229 844 229 844 285.5 826.5 c 128,-1,24
 342 809 342 809 373 776 c 1,25,-1
 384 742 384 742 459 823 c 1,26,-1
 442 732 442 732 477 782 c 1,27,-1
 397.5 693 397.5 693 402 741 c 1,28,29
 416 717 416 717 431.5 679 c 128,-1,30
 447 641 447 641 458 583.5 c 128,-1,31
 469 526 469 526 469 443 c 2,32,-1
 416 307 416 307 469 215 c 2,33,34
 469 125 469 125 441 75.5 c 128,-1,35
 413 26 413 26 366 6 c 128,-1,36
 319 -14 319 -14 262 -14 c 0,0,1
266 94 m 0,37,38
 282 94 282 94 290.5 103.5 c 128,-1,39
 299 113 299 113 302.5 131 c 128,-1,40
 306 149 306 149 306 173 c 0,41,42
 306 210 306 210 306 246.5 c 128,-1,43
 306 283 306 283 306 319.5 c 128,-1,44
 306 356 306 356 306 392.5 c 128,-1,45
 306 429 306 429 306 465 c 1,46,47
 298 470 298 470 289 473.5 c 128,-1,48
 280 477 280 477 269 477 c 0,49,50
 246 477 246 477 234 460 c 128,-1,51
 222 443 222 443 217.5 402.5 c 128,-1,52
 213 362 213 362 213 289 c 0,53,54
 213 217 213 217 216 174 c 128,-1,55
 219 131 219 131 230.5 112.5 c 128,-1,56
 242 94 242 94 266 94 c 0,37,38
EndSplineSet
EndChar

StartChar: e
Encoding: 101 101 261
Width: 470
GlyphClass: 1
Flags: W
LayerCount: 2
Fore
SplineSet
240 -10 m 0,0,1
 177 -10 177 -10 132 12.5 c 128,-1,2
 87 35 87 35 63 78.5 c 128,-1,3
 39 122 39 122 39 183 c 2,4,-1
 43 289 43 289 39 395 c 2,5,6
 39 457 39 457 63 500 c 128,-1,7
 87 543 87 543 132.5 565.5 c 128,-1,8
 178 588 178 588 240 588 c 0,9,10
 304 588 304 588 346.5 566 c 128,-1,11
 389 544 389 544 410.5 501 c 128,-1,12
 432 458 432 458 432 395 c 2,13,-1
 378 310.5 378 310.5 432 279 c 1,14,-1
 264 287 264 287 200 279 c 1,15,-1
 150 229 150 229 200 168 c 2,16,17
 200 146 200 146 205 132 c 128,-1,18
 210 118 210 118 219 112 c 128,-1,19
 228 106 228 106 240 106 c 0,20,21
 252 106 252 106 261.5 111.5 c 128,-1,22
 271 117 271 117 276.5 129 c 128,-1,23
 282 141 282 141 282 162 c 2,24,-1
 273 183.5 273 183.5 282 223 c 1,25,-1
 325 201 325 201 432 223 c 1,26,-1
 377 190 377 190 432 167 c 2,27,28
 432 79 432 79 381 34.5 c 128,-1,29
 330 -10 330 -10 240 -10 c 0,0,1
200 355 m 1,30,-1
 211.5 345 211.5 345 282 355 c 1,31,-1
 273 371 273 371 282 413 c 2,32,33
 282 436 282 436 276.5 449 c 128,-1,34
 271 462 271 462 261.5 467 c 128,-1,35
 252 472 252 472 239 472 c 0,36,37
 227 472 227 472 218.5 466 c 128,-1,38
 210 460 210 460 205 445.5 c 128,-1,39
 200 431 200 431 200 404 c 2,40,-1
 150 360.5 150 360.5 200 355 c 1,30,-1
EndSplineSet
EndChar

StartChar: uni0259
Encoding: 506 601 281
Width: 470
GlyphClass: 1
Flags: W
LayerCount: 2
Fore
SplineSet
230 -12 m 0,0,1
 166 -12 166 -12 123.5 10 c 128,-1,2
 81 32 81 32 59.5 75 c 128,-1,3
 38 118 38 118 38 181 c 2,4,-1
 43 266.5 43 266.5 38 297 c 1,5,-1
 157 290 157 290 269 297 c 1,6,-1
 271 346 271 346 269 409 c 2,7,8
 269 430 269 430 264.5 444 c 128,-1,9
 260 458 260 458 251.5 465 c 128,-1,10
 243 472 243 472 230 472 c 0,11,12
 218 472 218 472 208.5 467 c 128,-1,13
 199 462 199 462 193.5 449.5 c 128,-1,14
 188 437 188 437 188 416 c 2,15,-1
 148 395.5 148 395.5 188 355 c 1,16,-1
 96 378 96 378 38 355 c 1,17,-1
 44 389 44 389 38 412 c 2,18,19
 38 499 38 499 89 543.5 c 128,-1,20
 140 588 140 588 230 588 c 0,21,22
 293 588 293 588 338 565.5 c 128,-1,23
 383 543 383 543 407 500 c 128,-1,24
 431 457 431 457 431 395 c 2,25,-1
 378 289 378 289 431 182 c 2,26,27
 431 120 431 120 407 76.5 c 128,-1,28
 383 33 383 33 338 10.5 c 128,-1,29
 293 -12 293 -12 230 -12 c 0,0,1
230 104 m 256,30,31
 243 104 243 104 251.5 110 c 128,-1,32
 260 116 260 116 264.5 131 c 128,-1,33
 269 146 269 146 269 172 c 2,34,-1
 271 216.5 271 216.5 269 221 c 1,35,-1
 209.5 232 209.5 232 188 221 c 1,36,-1
 148 206 148 206 188 164 c 2,37,38
 188 141 188 141 193.5 128 c 128,-1,39
 199 115 199 115 208.5 109.5 c 128,-1,40
 218 104 218 104 230 104 c 256,30,31
EndSplineSet
EndChar

StartChar: uni0292
Encoding: 507 658 282
Width: 485
GlyphClass: 1
Flags: W
LayerCount: 2
Fore
SplineSet
238 -205 m 0,0,1
 157 -205 157 -205 110 -172.5 c 128,-1,2
 63 -140 63 -140 42.5 -82.5 c 128,-1,3
 22 -25 22 -25 22 50 c 2,4,-1
 30 25.5 30 25.5 22 79 c 1,5,-1
 83 39 83 39 182 79 c 1,6,7
 182 78 182 78 182 68 c 128,-1,8
 182 58 182 58 182 50 c 0,9,10
 182 -27 182 -27 194 -59 c 128,-1,11
 206 -91 206 -91 240 -91 c 0,12,13
 263 -91 263 -91 275 -76.5 c 128,-1,14
 287 -62 287 -62 291 -32 c 128,-1,15
 295 -2 295 -2 295 44 c 0,16,17
 295 106 295 106 286.5 142.5 c 128,-1,18
 278 179 278 179 254.5 195 c 128,-1,19
 231 211 231 211 185 211 c 2,20,-1
 147.5 219 147.5 219 121 211 c 1,21,-1
 97 253.5 97 253.5 121 306 c 1,22,-1
 189.5 410.5 189.5 410.5 270 493 c 1,23,-1
 302 515.5 302 515.5 290 459 c 1,24,-1
 192 498 192 498 57 459 c 1,25,-1
 62 538 62 538 57 578 c 1,26,-1
 223.5 578 223.5 578 413 578 c 1,27,-1
 385 549 385 549 413 479 c 1,28,-1
 292 392 292 392 238 261 c 1,29,-1
 183 277.5 183 277.5 189 297 c 1,30,-1
 197.5 291 197.5 291 238 297 c 2,31,32
 325 297 325 297 372.5 268 c 128,-1,33
 420 239 420 239 439 183.5 c 128,-1,34
 458 128 458 128 458 49 c 0,35,36
 458 -25 458 -25 437 -82.5 c 128,-1,37
 416 -140 416 -140 367.5 -172.5 c 128,-1,38
 319 -205 319 -205 238 -205 c 0,0,1
EndSplineSet
EndChar

StartChar: f
Encoding: 102 102 284
Width: 320
GlyphClass: 1
Flags: W
LayerCount: 2
Fore
SplineSet
72 0 m 1,0,-1
 88 249.5 88 249.5 72 468 c 1,1,-1
 53.5 499 53.5 499 17 468 c 1,2,-1
 19 538.5 19 538.5 17 578 c 1,3,-1
 53.5 578 53.5 578 72 578 c 1,4,-1
 88 593 88 593 72 621 c 2,5,6
 72 672 72 672 82.5 710 c 128,-1,7
 93 748 93 748 126.5 769 c 128,-1,8
 160 790 160 790 230 790 c 0,9,10
 249 790 249 790 267.5 789 c 128,-1,11
 286 788 286 788 308 785 c 1,12,-1
 283 735 283 735 308 664 c 1,13,14
 301 666 301 666 291.5 667.5 c 128,-1,15
 282 669 282 669 273 669 c 0,16,17
 255 669 255 669 245 658.5 c 128,-1,18
 235 648 235 648 235 624 c 2,19,-1
 195 602 195 602 235 578 c 1,20,-1
 239 578 239 578 308 578 c 1,21,-1
 283 538.5 283 538.5 308 468 c 1,22,-1
 239 499 239 499 235 468 c 1,23,-1
 195 249.5 195 249.5 235 0 c 1,24,-1
 141.5 0 141.5 0 72 0 c 1,0,-1
EndSplineSet
EndChar

StartChar: g
Encoding: 103 103 286
Width: 502
GlyphClass: 1
Flags: W
LayerCount: 2
Fore
SplineSet
240 -200 m 0,0,1
 175 -200 175 -200 126.5 -187 c 128,-1,2
 78 -174 78 -174 51.5 -148 c 128,-1,3
 25 -122 25 -122 25 -83 c 0,4,5
 25 -53 25 -53 38.5 -29.5 c 128,-1,6
 52 -6 52 -6 76.5 11 c 128,-1,7
 101 28 101 28 132 40 c 1,8,-1
 141 41.5 141 41.5 195 29 c 1,9,10
 184 20 184 20 174.5 10.5 c 128,-1,11
 165 1 165 1 159 -9.5 c 128,-1,12
 153 -20 153 -20 153 -34 c 0,13,14
 153 -56 153 -56 178 -67 c 128,-1,15
 203 -78 203 -78 261 -78 c 0,16,17
 309 -78 309 -78 335.5 -69.5 c 128,-1,18
 362 -61 362 -61 362 -36 c 0,19,20
 362 -22 362 -22 355 -14 c 128,-1,21
 348 -6 348 -6 332 -1 c 128,-1,22
 316 4 316 4 288 7 c 2,23,-1
 185 28 185 28 144 25 c 2,24,25
 98 31 98 31 71 58 c 128,-1,26
 44 85 44 85 44 125 c 0,27,28
 44 160 44 160 65.5 190 c 128,-1,29
 87 220 87 220 122 249 c 1,30,-1
 139 208 139 208 179 217 c 1,31,32
 167 205 167 205 160 194.5 c 128,-1,33
 153 184 153 184 153 171 c 0,34,35
 153 159 153 159 165 152 c 128,-1,36
 177 145 177 145 208 141 c 2,37,-1
 229.5 111.5 229.5 111.5 345 123 c 2,38,39
 419 114 419 114 453.5 74 c 128,-1,40
 488 34 488 34 488 -29 c 0,41,42
 488 -85 488 -85 463.5 -123 c 128,-1,43
 439 -161 439 -161 384.5 -180.5 c 128,-1,44
 330 -200 330 -200 240 -200 c 0,0,1
250 187 m 0,45,46
 182 187 182 187 135.5 211 c 128,-1,47
 89 235 89 235 65.5 279.5 c 128,-1,48
 42 324 42 324 42 387 c 0,49,50
 42 452 42 452 66 497 c 128,-1,51
 90 542 90 542 136.5 565 c 128,-1,52
 183 588 183 588 250 588 c 0,53,54
 314 588 314 588 358 564 c 128,-1,55
 402 540 402 540 425.5 495.5 c 128,-1,56
 449 451 449 451 449 387 c 0,57,58
 449 324 449 324 426.5 279.5 c 128,-1,59
 404 235 404 235 360 211 c 128,-1,60
 316 187 316 187 250 187 c 0,45,46
250 284 m 256,61,62
 264 284 264 284 272.5 289.5 c 128,-1,63
 281 295 281 295 285.5 307 c 128,-1,64
 290 319 290 319 292 339 c 128,-1,65
 294 359 294 359 294 387 c 256,66,67
 294 416 294 416 292 435.5 c 128,-1,68
 290 455 290 455 285.5 467.5 c 128,-1,69
 281 480 281 480 272.5 485.5 c 128,-1,70
 264 491 264 491 250 491 c 0,71,72
 237 491 237 491 228 485.5 c 128,-1,73
 219 480 219 480 214 468 c 128,-1,74
 209 456 209 456 207 436 c 128,-1,75
 205 416 205 416 205 387 c 0,76,77
 205 359 205 359 207 339.5 c 128,-1,78
 209 320 209 320 213.5 307.5 c 128,-1,79
 218 295 218 295 227 289.5 c 128,-1,80
 236 284 236 284 250 284 c 256,61,62
414 487 m 1,81,-1
 341.5 501 341.5 501 380 531 c 1,82,83
 395 560 395 560 417.5 577.5 c 128,-1,84
 440 595 440 595 478 613 c 1,85,-1
 439 556 439 556 517 535 c 1,86,87
 507 532 507 532 487.5 523.5 c 128,-1,88
 468 515 468 515 447.5 505 c 128,-1,89
 427 495 427 495 414 487 c 1,81,-1
EndSplineSet
EndChar

StartChar: uni0123
Encoding: 514 291 291
Width: 502
GlyphClass: 1
Flags: W
LayerCount: 2
Fore
SplineSet
240 -200 m 0,0,1
 175 -200 175 -200 126.5 -187 c 128,-1,2
 78 -174 78 -174 51.5 -148 c 128,-1,3
 25 -122 25 -122 25 -83 c 0,4,5
 25 -53 25 -53 38.5 -29.5 c 128,-1,6
 52 -6 52 -6 76.5 11 c 128,-1,7
 101 28 101 28 132 40 c 1,8,-1
 141 41.5 141 41.5 195 29 c 1,9,10
 184 20 184 20 174.5 10.5 c 128,-1,11
 165 1 165 1 159 -9.5 c 128,-1,12
 153 -20 153 -20 153 -34 c 0,13,14
 153 -56 153 -56 178 -67 c 128,-1,15
 203 -78 203 -78 261 -78 c 0,16,17
 309 -78 309 -78 335.5 -69.5 c 128,-1,18
 362 -61 362 -61 362 -36 c 0,19,20
 362 -22 362 -22 355 -14 c 128,-1,21
 348 -6 348 -6 332 -1 c 128,-1,22
 316 4 316 4 288 7 c 2,23,-1
 185 28 185 28 144 25 c 2,24,25
 98 31 98 31 71 58 c 128,-1,26
 44 85 44 85 44 125 c 0,27,28
 44 160 44 160 65.5 190 c 128,-1,29
 87 220 87 220 122 249 c 1,30,-1
 139 208 139 208 179 217 c 1,31,32
 167 205 167 205 160 194.5 c 128,-1,33
 153 184 153 184 153 171 c 0,34,35
 153 159 153 159 165 152 c 128,-1,36
 177 145 177 145 208 141 c 2,37,-1
 229.5 111.5 229.5 111.5 345 123 c 2,38,39
 419 114 419 114 453.5 74 c 128,-1,40
 488 34 488 34 488 -29 c 0,41,42
 488 -85 488 -85 463.5 -123 c 128,-1,43
 439 -161 439 -161 384.5 -180.5 c 128,-1,44
 330 -200 330 -200 240 -200 c 0,0,1
250 187 m 0,45,46
 182 187 182 187 135.5 211 c 128,-1,47
 89 235 89 235 65.5 279.5 c 128,-1,48
 42 324 42 324 42 387 c 0,49,50
 42 452 42 452 66 497 c 128,-1,51
 90 542 90 542 136.5 565 c 128,-1,52
 183 588 183 588 250 588 c 0,53,54
 314 588 314 588 358 564 c 128,-1,55
 402 540 402 540 425.5 495.5 c 128,-1,56
 449 451 449 451 449 387 c 0,57,58
 449 324 449 324 426.5 279.5 c 128,-1,59
 404 235 404 235 360 211 c 128,-1,60
 316 187 316 187 250 187 c 0,45,46
250 284 m 256,61,62
 264 284 264 284 272.5 289.5 c 128,-1,63
 281 295 281 295 285.5 307 c 128,-1,64
 290 319 290 319 292 339 c 128,-1,65
 294 359 294 359 294 387 c 256,66,67
 294 416 294 416 292 435.5 c 128,-1,68
 290 455 290 455 285.5 467.5 c 128,-1,69
 281 480 281 480 272.5 485.5 c 128,-1,70
 264 491 264 491 250 491 c 0,71,72
 237 491 237 491 228 485.5 c 128,-1,73
 219 480 219 480 214 468 c 128,-1,74
 209 456 209 456 207 436 c 128,-1,75
 205 416 205 416 205 387 c 0,76,77
 205 359 205 359 207 339.5 c 128,-1,78
 209 320 209 320 213.5 307.5 c 128,-1,79
 218 295 218 295 227 289.5 c 128,-1,80
 236 284 236 284 250 284 c 256,61,62
414 487 m 1,81,-1
 341.5 501 341.5 501 380 531 c 1,82,83
 395 560 395 560 417.5 577.5 c 128,-1,84
 440 595 440 595 478 613 c 1,85,-1
 439 556 439 556 517 535 c 1,86,87
 507 532 507 532 487.5 523.5 c 128,-1,88
 468 515 468 515 447.5 505 c 128,-1,89
 427 495 427 495 414 487 c 1,81,-1
301 932 m 1,90,-1
 262.5 837.5 262.5 837.5 314 878 c 1,91,92
 286 872 286 872 264.5 855.5 c 128,-1,93
 243 839 243 839 243 797 c 1,94,-1
 247.5 749 247.5 749 328 797 c 1,95,-1
 275 694.5 275 694.5 328 645 c 1,96,-1
 221 640 221 640 175 645 c 1,97,-1
 167 691.5 167 691.5 175 775 c 2,98,99
 175 849 175 849 205 889.5 c 128,-1,100
 235 930 235 930 301 932 c 1,90,-1
EndSplineSet
EndChar

StartChar: uni01E5
Encoding: 516 485 293
Width: 501
GlyphClass: 1
Flags: W
LayerCount: 2
Fore
SplineSet
239 -200 m 0,0,1
 174 -200 174 -200 126 -186.5 c 128,-1,2
 78 -173 78 -173 51.5 -145 c 128,-1,3
 25 -117 25 -117 25 -72 c 0,4,5
 25 -44 25 -44 36 -22 c 128,-1,6
 47 0 47 0 67 17.5 c 128,-1,7
 87 35 87 35 113 47 c 1,8,9
 76 58 76 58 55.5 79 c 128,-1,10
 35 100 35 100 35 125 c 0,11,12
 35 160 35 160 52 185.5 c 128,-1,13
 69 211 69 211 99 237 c 1,14,15
 71 262 71 262 56.5 298.5 c 128,-1,16
 42 335 42 335 42 387 c 0,17,18
 42 452 42 452 66 497 c 128,-1,19
 90 542 90 542 136.5 565 c 128,-1,20
 183 588 183 588 249 588 c 0,21,22
 294 588 294 588 328 577 c 128,-1,23
 362 566 362 566 386 543 c 1,24,25
 397 560 397 560 415 576 c 128,-1,26
 433 592 433 592 456 603 c 2,27,-1
 412 585.5 412 585.5 477 613 c 1,28,-1
 433.5 554.5 433.5 554.5 515 535 c 1,29,30
 506 532 506 532 490 525 c 128,-1,31
 474 518 474 518 456.5 510 c 128,-1,32
 439 502 439 502 425 494 c 1,33,34
 436 472 436 472 442 444 c 128,-1,35
 448 416 448 416 448 386 c 0,36,37
 448 324 448 324 425.5 279 c 128,-1,38
 403 234 403 234 359 210.5 c 128,-1,39
 315 187 315 187 249 187 c 0,40,41
 221 187 221 187 196 191.5 c 128,-1,42
 171 196 171 196 150 203 c 1,43,44
 144 196 144 196 139.5 189.5 c 128,-1,45
 135 183 135 183 135 175 c 256,46,47
 135 165 135 165 147 161 c 128,-1,48
 159 157 159 157 190 154 c 2,49,-1
 226 110 226 110 342 136 c 2,50,51
 416 128 416 128 451 87 c 128,-1,52
 486 46 486 46 486 -30 c 0,53,54
 486 -85 486 -85 461.5 -123 c 128,-1,55
 437 -161 437 -161 382.5 -180.5 c 128,-1,56
 328 -200 328 -200 239 -200 c 0,0,1
-9 -53 m 1,57,-1
 -15 -36.5 -15 -36.5 -9 -2 c 1,58,-1
 212.5 -11 212.5 -11 522 -2 c 1,59,-1
 440 -36.5 440 -36.5 522 -53 c 1,60,-1
 212.5 -62 212.5 -62 -9 -53 c 1,57,-1
260 -89 m 0,61,62
 319 -89 319 -89 346.5 -75.5 c 128,-1,63
 374 -62 374 -62 374 -28 c 0,64,65
 374 -10 374 -10 366 0 c 128,-1,66
 358 10 358 10 339.5 15.5 c 128,-1,67
 321 21 321 21 287 24 c 2,68,-1
 198.5 25 198.5 25 180 35 c 1,69,70
 170 27 170 27 160.5 17.5 c 128,-1,71
 151 8 151 8 145.5 -3 c 128,-1,72
 140 -14 140 -14 140 -26 c 0,73,74
 140 -56 140 -56 165 -72.5 c 128,-1,75
 190 -89 190 -89 260 -89 c 0,61,62
249 284 m 0,76,77
 263 284 263 284 272 289.5 c 128,-1,78
 281 295 281 295 285.5 307 c 128,-1,79
 290 319 290 319 292 339 c 128,-1,80
 294 359 294 359 294 387 c 256,81,82
 294 416 294 416 292 435.5 c 128,-1,83
 290 455 290 455 285.5 467.5 c 128,-1,84
 281 480 281 480 272 485.5 c 128,-1,85
 263 491 263 491 249 491 c 0,86,87
 235 491 235 491 226 485.5 c 128,-1,88
 217 480 217 480 212.5 468 c 128,-1,89
 208 456 208 456 206 436 c 128,-1,90
 204 416 204 416 204 387 c 0,91,92
 204 359 204 359 206 339.5 c 128,-1,93
 208 320 208 320 212.5 307.5 c 128,-1,94
 217 295 217 295 226 289.5 c 128,-1,95
 235 284 235 284 249 284 c 0,76,77
EndSplineSet
EndChar

StartChar: h
Encoding: 104 104 294
Width: 509
GlyphClass: 1
Flags: W
LayerCount: 2
Fore
SplineSet
52 0 m 1,0,-1
 57 405 57 405 52 810 c 1,1,-1
 110.5 810 110.5 810 214 810 c 1,2,-1
 164 664 164 664 214 527 c 1,3,4
 246 559 246 559 281 573.5 c 128,-1,5
 316 588 316 588 356 588 c 0,6,7
 391 588 391 588 414.5 570.5 c 128,-1,8
 438 553 438 553 450 522.5 c 128,-1,9
 462 492 462 492 462 453 c 2,10,-1
 395 234 395 234 462 0 c 1,11,-1
 341.5 0 341.5 0 300 0 c 1,12,-1
 288 218.5 288 218.5 300 430 c 2,13,14
 300 451 300 451 293 462 c 128,-1,15
 286 473 286 473 267 473 c 0,16,17
 257 473 257 473 243 467.5 c 128,-1,18
 229 462 229 462 214 452 c 1,19,-1
 164 232 164 232 214 0 c 1,20,-1
 110.5 0 110.5 0 52 0 c 1,0,-1
EndSplineSet
EndChar

StartChar: hbar
Encoding: 517 295 295
Width: 510
GlyphClass: 1
Flags: W
LayerCount: 2
Fore
SplineSet
52 0 m 1,0,-1
 57 345 57 345 52 671 c 1,1,-1
 25.5 690 25.5 690 6 671 c 1,2,-1
 -6 720 -6 720 6 746 c 1,3,-1
 25.5 750 25.5 750 52 746 c 1,4,-1
 57 780 57 780 52 810 c 1,5,-1
 110.5 810 110.5 810 215 810 c 1,6,-1
 164 780 164 780 215 746 c 1,7,-1
 225 750 225 750 333 746 c 1,8,-1
 286 720 286 720 333 671 c 1,9,-1
 225 690 225 690 215 671 c 1,10,-1
 164 604 164 604 215 527 c 1,11,12
 247 559 247 559 282 573.5 c 128,-1,13
 317 588 317 588 356 588 c 0,14,15
 391 588 391 588 414.5 570.5 c 128,-1,16
 438 553 438 553 450 522.5 c 128,-1,17
 462 492 462 492 462 453 c 2,18,-1
 395 234 395 234 462 0 c 1,19,-1
 341.5 0 341.5 0 300 0 c 1,20,-1
 288 218.5 288 218.5 300 430 c 2,21,22
 300 451 300 451 293.5 462 c 128,-1,23
 287 473 287 473 268 473 c 0,24,25
 257 473 257 473 243.5 467.5 c 128,-1,26
 230 462 230 462 215 452 c 1,27,-1
 164 232 164 232 215 0 c 1,28,-1
 110.5 0 110.5 0 52 0 c 1,0,-1
EndSplineSet
EndChar

StartChar: i
Encoding: 105 105 298
Width: 229
GlyphClass: 1
Flags: W
LayerCount: 2
Fore
SplineSet
61 0 m 1,0,-1
 52 578 l 1,1,-1
 168 578 l 1,2,-1
 215 0 l 1,3,-1
 61 0 l 1,0,-1
61 664 m 1,4,-1
 51 789 l 1,5,-1
 168 776 l 1,6,-1
 215 676 l 1,7,-1
 61 664 l 1,4,-1
EndSplineSet
EndChar

StartChar: dotlessi
Encoding: 520 305 299
Width: 280
GlyphClass: 1
Flags: W
LayerCount: 2
Fore
SplineSet
59 0 m 1,0,-1
 61 289 61 289 59 578 c 1,1,-1
 114.5 578 114.5 578 222 578 c 1,2,-1
 168 289 168 289 222 0 c 1,3,-1
 114.5 0 114.5 0 59 0 c 1,0,-1
EndSplineSet
EndChar

StartChar: j
Encoding: 106 106 314
Width: 269
GlyphClass: 1
Flags: W
LayerCount: 2
Fore
SplineSet
70 -180 m 0,0,1
 48 -180 48 -180 25.5 -176.5 c 128,-1,2
 3 -173 3 -173 -17 -167 c 1,3,-1
 -19 -100.5 -19 -100.5 -17 -50 c 1,4,5
 -9 -51 -9 -51 -1.5 -52.5 c 128,-1,6
 6 -54 6 -54 12 -54 c 0,7,8
 26 -54 26 -54 36 -49 c 128,-1,9
 46 -44 46 -44 51.5 -33.5 c 128,-1,10
 57 -23 57 -23 57 -5 c 2,11,-1
 69 291.5 69 291.5 57 578 c 1,12,-1
 122.5 578 122.5 578 219 578 c 1,13,-1
 176 286 176 286 219 -25 c 2,14,15
 219 -93 219 -93 181.5 -136.5 c 128,-1,16
 144 -180 144 -180 70 -180 c 0,0,1
56 676 m 1,17,-1
 69 720 69 720 56 789 c 1,18,-1
 123 776 123 776 220 789 c 1,19,-1
 177 720 177 720 220 676 c 1,20,-1
 123 664 123 664 56 676 c 1,17,-1
EndSplineSet
EndChar

StartChar: uni0237
Encoding: 535 567 315
Width: 277
GlyphClass: 1
Flags: W
LayerCount: 2
Fore
SplineSet
78 -180 m 0,0,1
 55 -180 55 -180 33 -176.5 c 128,-1,2
 11 -173 11 -173 -9 -167 c 1,3,-1
 -19 -100.5 -19 -100.5 -9 -50 c 1,4,5
 -2 -51 -2 -51 5.5 -52.5 c 128,-1,6
 13 -54 13 -54 20 -54 c 0,7,8
 34 -54 34 -54 43.5 -49 c 128,-1,9
 53 -44 53 -44 58.5 -33.5 c 128,-1,10
 64 -23 64 -23 64 -5 c 2,11,-1
 69 291.5 69 291.5 64 578 c 1,12,-1
 122.5 578 122.5 578 227 578 c 1,13,-1
 176 286 176 286 227 -25 c 2,14,15
 227 -93 227 -93 189.5 -136.5 c 128,-1,16
 152 -180 152 -180 78 -180 c 0,0,1
EndSplineSet
EndChar

StartChar: k
Encoding: 107 107 317
Width: 510
GlyphClass: 1
Flags: W
LayerCount: 2
Fore
SplineSet
51 0 m 1,0,-1
 56 406 56 406 51 810 c 1,1,-1
 109.5 811 109.5 811 208 810 c 1,2,-1
 163 569.5 163 569.5 208 361 c 1,3,-1
 241 453 241 453 326 578 c 1,4,-1
 375 578 375 578 507 578 c 1,5,-1
 363 465 363 465 368 341 c 1,6,-1
 361 176 361 176 506 0 c 1,7,-1
 373.5 0 373.5 0 330 0 c 1,8,-1
 266 148 266 148 244 275 c 1,9,-1
 187.5 259 187.5 259 208 220 c 1,10,-1
 163 111.5 163 111.5 208 0 c 1,11,-1
 109.5 1 109.5 1 51 0 c 1,0,-1
EndSplineSet
EndChar

StartChar: kgreenlandic
Encoding: 539 312 320
Width: 508
GlyphClass: 1
Flags: W
LayerCount: 2
Fore
SplineSet
50 0 m 1,0,-1
 59 289 59 289 50 578 c 1,1,-1
 112.5 578 112.5 578 213 578 c 1,2,-1
 166 451 166 451 213 337 c 1,3,-1
 242 451 242 451 324 578 c 1,4,-1
 372 578 372 578 500 578 c 1,5,-1
 360 467.5 360 467.5 382 321 c 1,6,-1
 360 178.5 360 178.5 502 0 c 1,7,-1
 372.5 0 372.5 0 331 0 c 1,8,-1
 270.5 142 270.5 142 239 267 c 1,9,-1
 194 242 194 242 213 229 c 1,10,-1
 166 100 166 100 213 0 c 1,11,-1
 112.5 0 112.5 0 50 0 c 1,0,-1
EndSplineSet
EndChar

StartChar: l
Encoding: 108 108 321
Width: 274
GlyphClass: 1
Flags: W
LayerCount: 2
Fore
SplineSet
58 0 m 1,0,-1
 64 405 64 405 58 810 c 1,1,-1
 117.5 810 117.5 810 220 810 c 1,2,-1
 171 405 171 405 220 0 c 1,3,-1
 117.5 0 117.5 0 58 0 c 1,0,-1
EndSplineSet
EndChar

StartChar: lslash
Encoding: 545 322 327
Width: 334
GlyphClass: 1
Flags: W
LayerCount: 2
Fore
SplineSet
87 0 m 1,0,-1
 85 208 85 208 87 414 c 1,1,-1
 51 399.5 51 399.5 20 385 c 1,2,-1
 17 425 17 425 20 476 c 1,3,-1
 51 483 51 483 87 505 c 1,4,-1
 85 654.5 85 654.5 87 810 c 1,5,-1
 138.5 810 138.5 810 249 810 c 1,6,-1
 192 679 192 679 249 574 c 1,7,-1
 222.5 563 222.5 563 326 607 c 1,8,-1
 253 536.5 253 536.5 326 516 c 1,9,-1
 222.5 480 222.5 480 249 484 c 1,10,-1
 192 232.5 192 232.5 249 0 c 1,11,-1
 138.5 0 138.5 0 87 0 c 1,0,-1
EndSplineSet
EndChar

StartChar: m
Encoding: 109 109 328
Width: 753
GlyphClass: 1
Flags: W
LayerCount: 2
Fore
SplineSet
51 0 m 1,0,-1
 54 289 54 289 51 578 c 1,1,-1
 103.5 578 103.5 578 211 578 c 1,2,-1
 153 550.5 153 550.5 211 532 c 1,3,4
 243 563 243 563 277.5 576 c 128,-1,5
 312 589 312 589 348 589 c 0,6,7
 383 589 383 589 408.5 571.5 c 128,-1,8
 434 554 434 554 447 520 c 1,9,10
 481 558 481 558 518.5 573.5 c 128,-1,11
 556 589 556 589 594 589 c 0,12,13
 628 589 628 589 653 572.5 c 128,-1,14
 678 556 678 556 692 524.5 c 128,-1,15
 706 493 706 493 706 449 c 2,16,-1
 629 227 629 227 706 0 c 1,17,-1
 580 0 580 0 546 0 c 1,18,-1
 531 223.5 531 223.5 546 432 c 2,19,20
 546 456 546 456 537.5 466.5 c 128,-1,21
 529 477 529 477 512 477 c 0,22,23
 502 477 502 477 487 471.5 c 128,-1,24
 472 466 472 466 458 456 c 0,25,26
 458 454 458 454 458 452.5 c 128,-1,27
 458 451 458 451 458 449 c 2,28,-1
 391 227 391 227 458 0 c 1,29,-1
 342 0 342 0 300 0 c 1,30,-1
 293 223.5 293 223.5 300 432 c 2,31,32
 300 456 300 456 291 466.5 c 128,-1,33
 282 477 282 477 265 477 c 0,34,35
 254 477 254 477 239.5 471.5 c 128,-1,36
 225 466 225 466 211 456 c 1,37,-1
 153 235.5 153 235.5 211 0 c 1,38,-1
 103.5 0 103.5 0 51 0 c 1,0,-1
EndSplineSet
EndChar

StartChar: n
Encoding: 110 110 330
Width: 507
GlyphClass: 1
Flags: W
LayerCount: 2
Fore
SplineSet
51 0 m 1,0,-1
 54 289 54 289 51 578 c 1,1,-1
 107.5 578 107.5 578 214 578 c 1,2,-1
 161 549.5 161 549.5 214 520 c 1,3,4
 246 552 246 552 280.5 570 c 128,-1,5
 315 588 315 588 353 588 c 0,6,7
 389 588 389 588 412.5 570.5 c 128,-1,8
 436 553 436 553 448 522.5 c 128,-1,9
 460 492 460 492 460 453 c 2,10,-1
 389 234 389 234 460 0 c 1,11,-1
 335.5 0 335.5 0 298 0 c 1,12,-1
 282 218.5 282 218.5 298 430 c 2,13,14
 298 451 298 451 291 462 c 128,-1,15
 284 473 284 473 265 473 c 0,16,17
 255 473 255 473 241.5 467.5 c 128,-1,18
 228 462 228 462 214 452 c 1,19,-1
 161 233 161 233 214 0 c 1,20,-1
 107.5 0 107.5 0 51 0 c 1,0,-1
EndSplineSet
EndChar

StartChar: eng
Encoding: 553 331 337
Width: 476
GlyphClass: 1
Flags: W
LayerCount: 2
Fore
SplineSet
178 -195 m 1,0,-1
 154 -143.5 154 -143.5 178 -92 c 1,1,2
 224 -92 224 -92 248 -84.5 c 128,-1,3
 272 -77 272 -77 280.5 -58 c 128,-1,4
 289 -39 289 -39 289 -5 c 2,5,-1
 272 216 272 216 289 430 c 2,6,7
 289 451 289 451 282.5 462 c 128,-1,8
 276 473 276 473 257 473 c 0,9,10
 246 473 246 473 232.5 467.5 c 128,-1,11
 219 462 219 462 205 452 c 1,12,-1
 151 233 151 233 205 0 c 1,13,-1
 97.5 0 97.5 0 42 0 c 1,14,-1
 44 289 44 289 42 578 c 1,15,-1
 97.5 578 97.5 578 205 578 c 1,16,-1
 151 549.5 151 549.5 205 527 c 1,17,18
 237 559 237 559 271.5 573.5 c 128,-1,19
 306 588 306 588 345 588 c 0,20,21
 380 588 380 588 404 570.5 c 128,-1,22
 428 553 428 553 440 522.5 c 128,-1,23
 452 492 452 492 452 453 c 2,24,-1
 379 231 379 231 452 -6 c 2,25,26
 452 -74 452 -74 432 -115.5 c 128,-1,27
 412 -157 412 -157 365 -176 c 128,-1,28
 318 -195 318 -195 237 -195 c 2,29,-1
 170 -184 170 -184 178 -195 c 1,0,-1
EndSplineSet
EndChar

StartChar: o
Encoding: 111 111 338
Width: 483
GlyphClass: 1
Flags: W
LayerCount: 2
Fore
SplineSet
241 -10 m 256,0,1
 179 -10 179 -10 133.5 11 c 128,-1,2
 88 32 88 32 63.5 74 c 128,-1,3
 39 116 39 116 39 179 c 2,4,-1
 44 289 44 289 39 399 c 2,5,6
 39 462 39 462 63.5 504 c 128,-1,7
 88 546 88 546 133.5 567 c 128,-1,8
 179 588 179 588 241 588 c 256,9,10
 303 588 303 588 348.5 567 c 128,-1,11
 394 546 394 546 419 504 c 128,-1,12
 444 462 444 462 444 399 c 2,13,-1
 381 289 381 289 444 179 c 2,14,15
 444 116 444 116 419 74 c 128,-1,16
 394 32 394 32 348.5 11 c 128,-1,17
 303 -10 303 -10 241 -10 c 256,0,1
242 98 m 256,18,19
 258 98 258 98 267 106.5 c 128,-1,20
 276 115 276 115 279.5 130.5 c 128,-1,21
 283 146 283 146 283 168 c 2,22,-1
 274 288.5 274 288.5 283 410 c 2,23,24
 283 432 283 432 279.5 447.5 c 128,-1,25
 276 463 276 463 267 471.5 c 128,-1,26
 258 480 258 480 242 480 c 256,27,28
 226 480 226 480 217 471.5 c 128,-1,29
 208 463 208 463 204 447.5 c 128,-1,30
 200 432 200 432 200 410 c 2,31,-1
 151 288.5 151 288.5 200 168 c 2,32,33
 200 146 200 146 204 130.5 c 128,-1,34
 208 115 208 115 217 106.5 c 128,-1,35
 226 98 226 98 242 98 c 256,18,19
EndSplineSet
EndChar

StartChar: oslash
Encoding: 579 248 364
Width: 477
GlyphClass: 1
Flags: W
LayerCount: 2
Fore
SplineSet
104 -89 m 1,0,-1
 80 -89.5 80 -89.5 67 -73 c 1,1,-1
 197 292 197 292 367 673 c 1,2,-1
 348.5 662 348.5 662 406 657 c 1,3,-1
 231.5 280.5 231.5 280.5 104 -89 c 1,0,-1
241 -10 m 256,4,5
 179 -10 179 -10 133.5 11 c 128,-1,6
 88 32 88 32 63.5 74 c 128,-1,7
 39 116 39 116 39 179 c 2,8,-1
 44 289 44 289 39 399 c 2,9,10
 39 462 39 462 63.5 504 c 128,-1,11
 88 546 88 546 133.5 567 c 128,-1,12
 179 588 179 588 241 588 c 256,13,14
 303 588 303 588 348.5 567 c 128,-1,15
 394 546 394 546 419 504 c 128,-1,16
 444 462 444 462 444 399 c 2,17,-1
 381 289 381 289 444 179 c 2,18,19
 444 116 444 116 419 74 c 128,-1,20
 394 32 394 32 348.5 11 c 128,-1,21
 303 -10 303 -10 241 -10 c 256,4,5
242 98 m 256,22,23
 258 98 258 98 267 106.5 c 128,-1,24
 276 115 276 115 279.5 130.5 c 128,-1,25
 283 146 283 146 283 168 c 2,26,-1
 274 288.5 274 288.5 283 410 c 2,27,28
 283 432 283 432 279.5 447.5 c 128,-1,29
 276 463 276 463 267 471.5 c 128,-1,30
 258 480 258 480 242 480 c 256,31,32
 226 480 226 480 217 471.5 c 128,-1,33
 208 463 208 463 204 447.5 c 128,-1,34
 200 432 200 432 200 410 c 2,35,-1
 151 288.5 151 288.5 200 168 c 2,36,37
 200 146 200 146 204 130.5 c 128,-1,38
 208 115 208 115 217 106.5 c 128,-1,39
 226 98 226 98 242 98 c 256,22,23
EndSplineSet
EndChar

StartChar: oe
Encoding: 583 339 368
Width: 705
GlyphClass: 1
Flags: W
LayerCount: 2
Fore
SplineSet
211 -13 m 0,0,1
 164 -13 164 -13 125.5 7.5 c 128,-1,2
 87 28 87 28 64 69 c 128,-1,3
 41 110 41 110 41 174 c 2,4,-1
 57 289 57 289 41 426 c 2,5,6
 41 486 41 486 63.5 525 c 128,-1,7
 86 564 86 564 126.5 583 c 128,-1,8
 167 602 167 602 220 602 c 0,9,10
 247 602 247 602 275.5 593.5 c 128,-1,11
 304 585 304 585 327.5 569 c 128,-1,12
 351 553 351 553 360 528 c 1,13,14
 370 553 370 553 393 569.5 c 128,-1,15
 416 586 416 586 444 594 c 128,-1,16
 472 602 472 602 497 602 c 0,17,18
 561 602 561 602 599 576.5 c 128,-1,19
 637 551 637 551 653.5 505.5 c 128,-1,20
 670 460 670 460 670 400 c 2,21,-1
 628 315.5 628 315.5 670 278 c 1,22,-1
 512 291 512 291 449 278 c 1,23,-1
 396 273 396 273 449 175 c 2,24,25
 449 151 449 151 452 131.5 c 128,-1,26
 455 112 455 112 463 100.5 c 128,-1,27
 471 89 471 89 485 89 c 0,28,29
 503 89 503 89 510 105 c 128,-1,30
 517 121 517 121 517 150 c 2,31,-1
 521 181.5 521 181.5 517 227 c 1,32,-1
 574.5 201 574.5 201 670 227 c 1,33,-1
 628 182 628 182 670 151 c 2,34,35
 670 75 670 75 627.5 31 c 128,-1,36
 585 -13 585 -13 502 -13 c 0,37,38
 448 -13 448 -13 410 6.5 c 128,-1,39
 372 26 372 26 356 60 c 1,40,41
 339 29 339 29 304.5 8 c 128,-1,42
 270 -13 270 -13 211 -13 c 0,0,1
238 89 m 0,43,44
 251 89 251 89 260 96 c 128,-1,45
 269 103 269 103 274 120.5 c 128,-1,46
 279 138 279 138 279 169 c 2,47,-1
 289 289 289 289 279 434 c 2,48,49
 279 457 279 457 274.5 472 c 128,-1,50
 270 487 270 487 261.5 494.5 c 128,-1,51
 253 502 253 502 240 502 c 0,52,53
 228 502 228 502 219 495 c 128,-1,54
 210 488 210 488 205.5 473 c 128,-1,55
 201 458 201 458 201 434 c 2,56,-1
 164 289 164 289 201 170 c 2,57,58
 201 146 201 146 204.5 128 c 128,-1,59
 208 110 208 110 216.5 99.5 c 128,-1,60
 225 89 225 89 238 89 c 0,43,44
449 364 m 1,61,-1
 458.5 345 458.5 345 519 364 c 1,62,-1
 521 360.5 521 360.5 519 445 c 2,63,64
 519 462 519 462 514.5 475 c 128,-1,65
 510 488 510 488 502 495 c 128,-1,66
 494 502 494 502 483 502 c 0,67,68
 473 502 473 502 465.5 495.5 c 128,-1,69
 458 489 458 489 453.5 476.5 c 128,-1,70
 449 464 449 464 449 445 c 2,71,-1
 396 360.5 396 360.5 449 364 c 1,61,-1
EndSplineSet
EndChar

StartChar: p
Encoding: 112 112 369
Width: 505
GlyphClass: 1
Flags: W
LayerCount: 2
Fore
SplineSet
51 -190 m 1,0,-1
 54 194 54 194 51 578 c 1,1,-1
 107.5 578 107.5 578 214 578 c 1,2,-1
 161 555 161 555 214 536 c 1,3,4
 243 562 243 562 276 575 c 128,-1,5
 309 588 309 588 339 588 c 0,6,7
 372 588 372 588 395.5 575 c 128,-1,8
 419 562 419 562 434 538.5 c 128,-1,9
 449 515 449 515 456 484 c 128,-1,10
 463 453 463 453 463 418 c 2,11,-1
 403 299 403 299 463 169 c 2,12,13
 463 115 463 115 448.5 75 c 128,-1,14
 434 35 434 35 406 12.5 c 128,-1,15
 378 -10 378 -10 337 -10 c 0,16,17
 306 -10 306 -10 274.5 4.5 c 128,-1,18
 243 19 243 19 214 44 c 1,19,-1
 161 -73.5 161 -73.5 214 -190 c 1,20,-1
 107.5 -190 107.5 -190 51 -190 c 1,0,-1
257 95 m 0,21,22
 273 95 273 95 282 104 c 128,-1,23
 291 113 291 113 295.5 127.5 c 128,-1,24
 300 142 300 142 300 160 c 2,25,-1
 296 299 296 299 300 430 c 2,26,27
 300 447 300 447 296 460.5 c 128,-1,28
 292 474 292 474 283 482 c 128,-1,29
 274 490 274 490 260 490 c 0,30,31
 247 490 247 490 235.5 484.5 c 128,-1,32
 224 479 224 479 214 470 c 1,33,-1
 161 287 161 287 214 110 c 1,34,35
 225 103 225 103 235.5 99 c 128,-1,36
 246 95 246 95 257 95 c 0,21,22
EndSplineSet
EndChar

StartChar: thorn
Encoding: 585 254 371
Width: 494
GlyphClass: 1
Flags: W
LayerCount: 2
Fore
SplineSet
46 -190 m 1,0,-1
 55 310 55 310 46 810 c 1,1,-1
 108.5 810 108.5 810 209 810 c 1,2,-1
 162 671 162 671 209 536 c 1,3,4
 239 562 239 562 271 575 c 128,-1,5
 303 588 303 588 334 588 c 0,6,7
 367 588 367 588 390 575 c 128,-1,8
 413 562 413 562 428 538.5 c 128,-1,9
 443 515 443 515 450 484 c 128,-1,10
 457 453 457 453 457 418 c 2,11,-1
 404 299 404 299 457 169 c 2,12,13
 457 115 457 115 442.5 75 c 128,-1,14
 428 35 428 35 400 12.5 c 128,-1,15
 372 -10 372 -10 331 -10 c 0,16,17
 300 -10 300 -10 269 4.5 c 128,-1,18
 238 19 238 19 209 43 c 1,19,-1
 162 -73.5 162 -73.5 209 -190 c 1,20,-1
 108.5 -190 108.5 -190 46 -190 c 1,0,-1
252 95 m 0,21,22
 267 95 267 95 276 104 c 128,-1,23
 285 113 285 113 289 127.5 c 128,-1,24
 293 142 293 142 293 160 c 2,25,-1
 297 299 297 299 293 430 c 2,26,27
 293 447 293 447 289 460.5 c 128,-1,28
 285 474 285 474 276.5 482 c 128,-1,29
 268 490 268 490 253 490 c 0,30,31
 242 490 242 490 231 485 c 128,-1,32
 220 480 220 480 209 470 c 1,33,-1
 162 287 162 287 209 110 c 1,34,35
 219 103 219 103 230 99 c 128,-1,36
 241 95 241 95 252 95 c 0,21,22
EndSplineSet
EndChar

StartChar: q
Encoding: 113 113 372
Width: 504
GlyphClass: 1
Flags: W
LayerCount: 2
Fore
SplineSet
292 -190 m 1,0,-1
 282 -76.5 282 -76.5 292 48 c 1,1,2
 264 21 264 21 235 5.5 c 128,-1,3
 206 -10 206 -10 176 -10 c 0,4,5
 111 -10 111 -10 76.5 35 c 128,-1,6
 42 80 42 80 42 168 c 2,7,-1
 44 283 44 283 42 407 c 2,8,9
 42 461 42 461 57 501.5 c 128,-1,10
 72 542 72 542 102 565 c 128,-1,11
 132 588 132 588 176 588 c 0,12,13
 209 588 209 588 238 575 c 128,-1,14
 267 562 267 562 292 539 c 1,15,-1
 282 559.5 282 559.5 292 578 c 1,16,-1
 335.5 578 335.5 578 455 578 c 1,17,-1
 389 194 389 194 455 -190 c 1,18,-1
 335.5 -190 335.5 -190 292 -190 c 1,0,-1
248 94 m 0,19,20
 257 94 257 94 268.5 98.5 c 128,-1,21
 280 103 280 103 292 110 c 1,22,-1
 282 287.5 282 287.5 292 472 c 1,23,24
 282 479 282 479 271 483 c 128,-1,25
 260 487 260 487 249 487 c 0,26,27
 226 487 226 487 215.5 468.5 c 128,-1,28
 205 450 205 450 205 424 c 2,29,-1
 151 299.5 151 299.5 205 158 c 2,30,31
 205 140 205 140 209.5 125.5 c 128,-1,32
 214 111 214 111 223.5 102.5 c 128,-1,33
 233 94 233 94 248 94 c 0,19,20
EndSplineSet
EndChar

StartChar: r
Encoding: 114 114 373
Width: 383
GlyphClass: 1
Flags: W
LayerCount: 2
Fore
SplineSet
53 0 m 1,0,-1
 57 289 57 289 53 578 c 1,1,-1
 110.5 578 110.5 578 216 578 c 1,2,-1
 164 537 164 537 216 482 c 1,3,4
 244 532 244 532 272 558.5 c 128,-1,5
 300 585 300 585 340 585 c 0,6,7
 348 585 348 585 354 584.5 c 128,-1,8
 360 584 360 584 365 582 c 1,9,-1
 309 525 309 525 365 420 c 1,10,11
 354 425 354 425 340.5 428.5 c 128,-1,12
 327 432 327 432 312 432 c 0,13,14
 284 432 284 432 260 417 c 128,-1,15
 236 402 236 402 216 376 c 1,16,-1
 164 211 164 211 216 0 c 1,17,-1
 110.5 0 110.5 0 53 0 c 1,0,-1
EndSplineSet
EndChar

StartChar: s
Encoding: 115 115 379
Width: 424
GlyphClass: 1
Flags: W
LayerCount: 2
Fore
SplineSet
229 -10 m 0,0,1
 153 -10 153 -10 102.5 24 c 128,-1,2
 52 58 52 58 20 135 c 1,3,-1
 69.5 167.5 69.5 167.5 131 184 c 1,4,5
 147 145 147 145 168.5 122.5 c 128,-1,6
 190 100 190 100 216 100 c 0,7,8
 235 100 235 100 244.5 108 c 128,-1,9
 254 116 254 116 254 130 c 0,10,11
 254 153 254 153 236.5 172 c 128,-1,12
 219 191 219 191 174 228 c 2,13,-1
 159.5 260.5 159.5 260.5 132 263 c 2,14,15
 86 302 86 302 59.5 338.5 c 128,-1,16
 33 375 33 375 33 429 c 0,17,18
 33 476 33 476 57.5 512 c 128,-1,19
 82 548 82 548 123 568 c 128,-1,20
 164 588 164 588 211 588 c 0,21,22
 283 588 283 588 331 549 c 128,-1,23
 379 510 379 510 399 439 c 1,24,-1
 304 420.5 304 420.5 292 391 c 1,25,26
 286 410 286 410 275 429 c 128,-1,27
 264 448 264 448 249 461 c 128,-1,28
 234 474 234 474 215 474 c 0,29,30
 199 474 199 474 189.5 465 c 128,-1,31
 180 456 180 456 180 441 c 0,32,33
 180 422 180 422 201.5 400 c 128,-1,34
 223 378 223 378 261 347 c 2,35,-1
 215 343 215 343 302 311 c 2,36,37
 327 290 327 290 351 266 c 128,-1,38
 375 242 375 242 390.5 213 c 128,-1,39
 406 184 406 184 406 147 c 0,40,41
 406 97 406 97 381 61.5 c 128,-1,42
 356 26 356 26 315.5 8 c 128,-1,43
 275 -10 275 -10 229 -10 c 0,0,1
EndSplineSet
EndChar

StartChar: germandbls
Encoding: 597 223 386
Width: 542
GlyphClass: 1
Flags: W
LayerCount: 2
Fore
SplineSet
254 -15 m 1,0,-1
 223 35.5 223 35.5 254 109 c 1,1,2
 280 109 280 109 299 115.5 c 128,-1,3
 318 122 318 122 330.5 136 c 128,-1,4
 343 150 343 150 349 173 c 128,-1,5
 355 196 355 196 355 230 c 0,6,7
 355 268 355 268 344.5 295.5 c 128,-1,8
 334 323 334 323 314 337.5 c 128,-1,9
 294 352 294 352 263 352 c 1,10,-1
 231 419.5 231 419.5 263 476 c 1,11,12
 287 476 287 476 303 490.5 c 128,-1,13
 319 505 319 505 327 533 c 128,-1,14
 335 561 335 561 335 601 c 0,15,16
 335 652 335 652 320 680.5 c 128,-1,17
 305 709 305 709 270 709 c 0,18,19
 245 709 245 709 232 695 c 128,-1,20
 219 681 219 681 214 656.5 c 128,-1,21
 209 632 209 632 209 598 c 2,22,-1
 166 306.5 166 306.5 209 0 c 1,23,-1
 112.5 0 112.5 0 46 0 c 1,24,-1
 59 306 59 306 46 598 c 2,25,26
 46 655 46 655 66 706 c 128,-1,27
 86 757 86 757 132.5 789.5 c 128,-1,28
 179 822 179 822 256 822 c 0,29,30
 369 822 369 822 421 764.5 c 128,-1,31
 473 707 473 707 473 604 c 0,32,33
 473 546 473 546 446 501 c 128,-1,34
 419 456 419 456 355 430 c 1,35,36
 410 416 410 416 446 386.5 c 128,-1,37
 482 357 482 357 500 313 c 128,-1,38
 518 269 518 269 518 210 c 0,39,40
 518 150 518 150 500 107 c 128,-1,41
 482 64 482 64 448 37 c 128,-1,42
 414 10 414 10 365 -2.5 c 128,-1,43
 316 -15 316 -15 254 -15 c 1,0,-1
EndSplineSet
EndChar

StartChar: longs
Encoding: 598 383 387
Width: 320
GlyphClass: 1
Flags: W
LayerCount: 2
Fore
SplineSet
72 0 m 1,0,-1
 88 249.5 88 249.5 72 468 c 1,1,-1
 53.5 499 53.5 499 17 468 c 1,2,-1
 19 538.5 19 538.5 17 578 c 1,3,-1
 53.5 578 53.5 578 72 578 c 1,4,-1
 88 593 88 593 72 621 c 2,5,6
 72 672 72 672 82.5 710 c 128,-1,7
 93 748 93 748 126.5 769 c 128,-1,8
 160 790 160 790 230 790 c 0,9,10
 249 790 249 790 267.5 789 c 128,-1,11
 286 788 286 788 308 785 c 1,12,-1
 283 735 283 735 308 664 c 1,13,14
 301 666 301 666 291.5 667.5 c 128,-1,15
 282 669 282 669 273 669 c 0,16,17
 255 669 255 669 245 658.5 c 128,-1,18
 235 648 235 648 235 624 c 2,19,-1
 195 313 195 313 235 0 c 1,20,-1
 141.5 0 141.5 0 72 0 c 1,0,-1
EndSplineSet
EndChar

StartChar: t
Encoding: 116 116 388
Width: 351
GlyphClass: 1
Flags: W
LayerCount: 2
Fore
SplineSet
232 -6 m 0,0,1
 167 -6 167 -6 132 13 c 128,-1,2
 97 32 97 32 83.5 68.5 c 128,-1,3
 70 105 70 105 70 157 c 2,4,-1
 83 318.5 83 318.5 70 471 c 1,5,-1
 52.5 507 52.5 507 14 471 c 1,6,-1
 22 542.5 22 542.5 14 578 c 1,7,-1
 52.5 578 52.5 578 70 578 c 1,8,-1
 83 662.5 83 662.5 70 754 c 1,9,-1
 136.5 747 136.5 747 235 754 c 1,10,-1
 190 662.5 190 662.5 235 578 c 1,11,-1
 236.5 578 236.5 578 317 578 c 1,12,-1
 283 542.5 283 542.5 317 471 c 1,13,-1
 236.5 507 236.5 507 235 471 c 1,14,-1
 190 322 190 322 235 173 c 2,15,16
 235 148 235 148 249.5 137 c 128,-1,17
 264 126 264 126 286 126 c 0,18,19
 299 126 299 126 310 127.5 c 128,-1,20
 321 129 321 129 330 130 c 1,21,-1
 282 37.5 282 37.5 330 2 c 1,22,23
 317 0 317 0 289 -3 c 128,-1,24
 261 -6 261 -6 232 -6 c 0,0,1
EndSplineSet
EndChar

StartChar: tbar
Encoding: 599 359 389
Width: 244
GlyphClass: 1
Flags: W
LayerCount: 2
Fore
SplineSet
26 340 m 1,0,-1
 13 373 l 1,1,-1
 290 395 l 1,2,-1
 315 303 l 1,3,-1
 26 340 l 1,0,-1
208 -8 m 0,4,5
 167 -6 167 -6 132 13 c 128,-1,6
 97 32 97 32 83.5 68.5 c 128,-1,7
 70 105 70 105 70 157 c 2,8,-1
 83 507 l 1,9,-1
 14 471 l 1,10,-1
 22 578 l 1,11,-1
 70 578 l 1,12,-1
 83 747 l 1,13,-1
 235 754 l 1,14,-1
 190 578 l 1,15,-1
 317 578 l 1,16,-1
 283 507 l 1,17,-1
 235 471 l 1,18,-1
 235 173 l 2,19,20
 190 103 190 103 227 114.5 c 128,-1,21
 264 126 264 126 286 126 c 0,22,23
 299 126 299 126 310 127.5 c 128,-1,24
 321 129 321 129 282 77 c 1,25,-1
 330 2 l 1,26,27
 317 0 317 0 289 -3 c 128,-1,28
 261 -6 261 -6 208 -8 c 0,4,5
EndSplineSet
EndChar

StartChar: u
Encoding: 117 117 394
Width: 504
GlyphClass: 1
Flags: W
LayerCount: 2
Fore
SplineSet
153 -10 m 0,0,1
 118 -10 118 -10 93.5 7.5 c 128,-1,2
 69 25 69 25 57 56 c 128,-1,3
 45 87 45 87 45 125 c 2,4,-1
 50 344 50 344 45 578 c 1,5,-1
 103.5 578 103.5 578 208 578 c 1,6,-1
 157 360 157 360 208 144 c 2,7,8
 208 123 208 123 215.5 111.5 c 128,-1,9
 223 100 223 100 242 100 c 0,10,11
 253 100 253 100 265 105.5 c 128,-1,12
 277 111 277 111 290 118 c 1,13,-1
 278 345 278 345 290 578 c 1,14,-1
 331.5 578 331.5 578 452 578 c 1,15,-1
 385 289 385 289 452 0 c 1,16,-1
 331.5 0 331.5 0 290 0 c 1,17,-1
 278 28.5 278 28.5 290 53 c 1,18,19
 259 24 259 24 224.5 7 c 128,-1,20
 190 -10 190 -10 153 -10 c 0,0,1
EndSplineSet
EndChar

StartChar: v
Encoding: 118 118 416
Width: 421
GlyphClass: 1
Flags: W
LayerCount: 2
Fore
SplineSet
126 0 m 1,0,-1
 72 289 72 289 10 578 c 1,1,-1
 69 578 69 578 166 578 c 1,2,-1
 158.5 345.5 158.5 345.5 214 209 c 1,3,-1
 230 345.5 230 345.5 258 578 c 1,4,-1
 318 578 318 578 414 578 c 1,5,-1
 315 289 315 289 295 0 c 1,6,-1
 194.5 0 194.5 0 126 0 c 1,0,-1
EndSplineSet
EndChar

StartChar: w
Encoding: 119 119 417
Width: 597
GlyphClass: 1
Flags: W
LayerCount: 2
Fore
SplineSet
106 0 m 1,0,-1
 74.5 289 74.5 289 21 578 c 1,1,-1
 72 578 72 578 157 578 c 1,2,-1
 146 365 146 365 199 250 c 1,3,-1
 214.5 365 214.5 365 244 578 c 1,4,-1
 294 578 294 578 362 578 c 1,5,-1
 373.5 366 373.5 366 401 242 c 1,6,-1
 442 366 442 366 450 578 c 1,7,-1
 516 578 516 578 576 578 c 1,8,-1
 512 289 512 289 490 0 c 1,9,-1
 419 0 419 0 350 0 c 1,10,-1
 334.5 204 334.5 204 300 325 c 1,11,-1
 256 204 256 204 244 0 c 1,12,-1
 169 0 169 0 106 0 c 1,0,-1
EndSplineSet
EndChar

StartChar: x
Encoding: 120 120 422
Width: 442
GlyphClass: 1
Flags: W
LayerCount: 2
Fore
SplineSet
11 0 m 1,0,-1
 74 152 74 152 134 317 c 1,1,-1
 75.5 441 75.5 441 17 578 c 1,2,-1
 63 578 63 578 181 578 c 1,3,-1
 156.5 486.5 156.5 486.5 243 439 c 1,4,-1
 236.5 486.5 236.5 486.5 298 578 c 1,5,-1
 326.5 578 326.5 578 423 578 c 1,6,-1
 313 434.5 313 434.5 309 293 c 1,7,-1
 314 145.5 314 145.5 440 0 c 1,8,-1
 330 0 330 0 274 0 c 1,9,-1
 233.5 98 233.5 98 204 159 c 1,10,-1
 149 98 149 98 146 0 c 1,11,-1
 59.5 0 59.5 0 11 0 c 1,0,-1
EndSplineSet
EndChar

StartChar: y
Encoding: 121 121 423
Width: 448
GlyphClass: 1
Flags: W
LayerCount: 2
Fore
SplineSet
67 -168 m 1,0,-1
 45 -104 45 -104 67 -55 c 1,1,2
 98 -55 98 -55 118.5 -51 c 128,-1,3
 139 -47 139 -47 149.5 -36 c 128,-1,4
 160 -25 160 -25 160 -6 c 0,5,6
 160 11 160 11 154 35.5 c 128,-1,7
 148 60 148 60 139 91 c 2,8,-1
 70 332 70 332 3 578 c 1,9,-1
 66 578 66 578 156 578 c 1,10,-1
 159 362 159 362 229 244 c 1,11,-1
 235.5 362 235.5 362 284 578 c 1,12,-1
 327 578 327 578 438 578 c 1,13,-1
 312 273 312 273 305 -14 c 2,14,15
 292 -74 292 -74 264 -107.5 c 128,-1,16
 236 -141 236 -141 195.5 -154.5 c 128,-1,17
 155 -168 155 -168 104 -168 c 2,18,-1
 51.5 -145 51.5 -145 67 -168 c 1,0,-1
EndSplineSet
EndChar

StartChar: z
Encoding: 122 122 432
Width: 347
GlyphClass: 1
Flags: W
LayerCount: 2
Fore
SplineSet
32 0 m 1,0,-1
 35 105 l 1,1,-1
 194 459 l 1,2,-1
 50 498 l 1,3,-1
 47 578 l 1,4,-1
 324 578 l 1,5,-1
 364 479 l 1,6,-1
 203 119 l 1,7,-1
 320 81 l 1,8,-1
 366 0 l 1,9,-1
 32 0 l 1,0,-1
EndSplineSet
EndChar

StartChar: f_f_i
Encoding: 641 -1 437
Width: 803
GlyphClass: 1
Flags: W
LayerCount: 2
Fore
SplineSet
66 0 m 1,0,-1
 88 249.5 88 249.5 66 470 c 1,1,-1
 53.5 499 53.5 499 10 470 c 1,2,-1
 19 538.5 19 538.5 10 578 c 1,3,-1
 53.5 578 53.5 578 66 578 c 1,4,-1
 88 593 88 593 66 621 c 2,5,6
 66 672 66 672 76.5 710 c 128,-1,7
 87 748 87 748 121 769 c 128,-1,8
 155 790 155 790 225 790 c 0,9,10
 243 790 243 790 256.5 789 c 128,-1,11
 270 788 270 788 291 785 c 1,12,-1
 283 735 283 735 291 664 c 1,13,14
 284 666 284 666 276 667 c 128,-1,15
 268 668 268 668 261 668 c 0,16,17
 245 668 245 668 236.5 658 c 128,-1,18
 228 648 228 648 228 624 c 2,19,-1
 195 602 195 602 228 578 c 1,20,-1
 262 578 262 578 331 578 c 1,21,-1
 329 593 329 593 331 621 c 2,22,23
 331 672 331 672 341.5 710 c 128,-1,24
 352 748 352 748 386 769 c 128,-1,25
 420 790 420 790 490 790 c 0,26,27
 508 790 508 790 522.5 789 c 128,-1,28
 537 788 537 788 559 785 c 1,29,-1
 523 735 523 735 559 664 c 1,30,31
 552 666 552 666 543.5 667 c 128,-1,32
 535 668 535 668 527 668 c 0,33,34
 511 668 511 668 502.5 658 c 128,-1,35
 494 648 494 648 494 624 c 2,36,-1
 435 602 435 602 494 578 c 1,37,-1
 555 578 555 578 757 578 c 1,38,-1
 675 289 675 289 757 0 c 1,39,-1
 622 0 622 0 595 0 c 1,40,-1
 569 249.5 569 249.5 595 470 c 1,41,-1
 502 499 502 499 494 470 c 1,42,-1
 435 249.5 435 249.5 494 0 c 1,43,-1
 382 0 382 0 331 0 c 1,44,-1
 329 249.5 329 249.5 331 470 c 1,45,-1
 262 499 262 499 228 470 c 1,46,-1
 195 249.5 195 249.5 228 0 c 1,47,-1
 141.5 0 141.5 0 66 0 c 1,0,-1
609 676 m 1,48,-1
 569 720 569 720 609 789 c 1,49,-1
 622.5 776 622.5 776 757 789 c 1,50,-1
 676 720 676 720 757 676 c 1,51,-1
 622.5 664 622.5 664 609 676 c 1,48,-1
EndSplineSet
EndChar

StartChar: f_f_l
Encoding: 643 -1 439
Width: 858
GlyphClass: 1
Flags: W
LayerCount: 2
Fore
SplineSet
593 807 m 0,0,1
 635 807 635 807 687.5 802 c 128,-1,2
 740 797 740 797 804 785 c 1,3,-1
 718 388 718 388 804 0 c 1,4,-1
 664.5 0 664.5 0 641 0 c 1,5,-1
 611 358.5 611 358.5 641 696 c 1,6,7
 631 698 631 698 622.5 698 c 128,-1,8
 614 698 614 698 606 698 c 0,9,10
 568 698 568 698 551 687.5 c 128,-1,11
 534 677 534 677 529.5 659.5 c 128,-1,12
 525 642 525 642 525 620 c 2,13,-1
 456 594 456 594 525 578 c 1,14,-1
 500 578 500 578 587 578 c 1,15,-1
 544 538.5 544 538.5 587 468 c 1,16,-1
 500 499 500 499 525 468 c 1,17,-1
 456 249.5 456 249.5 525 0 c 1,18,-1
 402.5 0 402.5 0 362 0 c 1,19,-1
 349 249.5 349 249.5 362 468 c 1,20,-1
 272 499 272 499 235 468 c 1,21,-1
 195 249.5 195 249.5 235 0 c 1,22,-1
 141.5 0 141.5 0 72 0 c 1,23,-1
 88 249.5 88 249.5 72 468 c 1,24,-1
 53.5 499 53.5 499 17 468 c 1,25,-1
 19 538.5 19 538.5 17 578 c 1,26,-1
 53.5 578 53.5 578 72 578 c 1,27,-1
 88 593 88 593 72 621 c 2,28,29
 72 672 72 672 82.5 710 c 128,-1,30
 93 748 93 748 126.5 769 c 128,-1,31
 160 790 160 790 230 790 c 0,32,33
 249 790 249 790 267.5 789 c 128,-1,34
 286 788 286 788 308 785 c 1,35,-1
 283 735 283 735 308 664 c 1,36,37
 301 666 301 666 291.5 667.5 c 128,-1,38
 282 669 282 669 273 669 c 0,39,40
 255 669 255 669 245 658.5 c 128,-1,41
 235 648 235 648 235 624 c 2,42,-1
 195 602 195 602 235 578 c 1,43,-1
 272 578 272 578 362 578 c 1,44,-1
 349 593 349 593 362 621 c 2,45,46
 362 654 362 654 368 686.5 c 128,-1,47
 374 719 374 719 396 746.5 c 128,-1,48
 418 774 418 774 465 790.5 c 128,-1,49
 512 807 512 807 593 807 c 0,0,1
EndSplineSet
EndChar

StartChar: fi
Encoding: 645 64257 441
Width: 551
GlyphClass: 1
Flags: W
LayerCount: 2
Fore
SplineSet
69 0 m 1,0,-1
 88 249.5 88 249.5 69 468 c 1,1,-1
 53.5 499 53.5 499 14 468 c 1,2,-1
 19 538.5 19 538.5 14 578 c 1,3,-1
 53.5 578 53.5 578 69 578 c 1,4,-1
 88 593 88 593 69 621 c 2,5,6
 69 673 69 673 82.5 711 c 128,-1,7
 96 749 96 749 129.5 770 c 128,-1,8
 163 791 163 791 223 791 c 0,9,10
 239 791 239 791 256.5 789.5 c 128,-1,11
 274 788 274 788 293 785 c 1,12,-1
 283 736 283 736 293 674 c 1,13,14
 288 675 288 675 282 675.5 c 128,-1,15
 276 676 276 676 270 676 c 0,16,17
 253 676 253 676 242.5 666 c 128,-1,18
 232 656 232 656 232 627 c 2,19,-1
 195 602 195 602 232 578 c 1,20,-1
 313 578 313 578 501 578 c 1,21,-1
 431 289 431 289 501 0 c 1,22,-1
 377.5 0 377.5 0 340 0 c 1,23,-1
 324 249.5 324 249.5 340 468 c 1,24,-1
 259.5 499 259.5 499 232 468 c 1,25,-1
 195 249.5 195 249.5 232 0 c 1,26,-1
 141.5 0 141.5 0 69 0 c 1,0,-1
350 676 m 1,27,-1
 334 720 334 720 350 789 c 1,28,-1
 383 776 383 776 501 789 c 1,29,-1
 432 720 432 720 501 676 c 1,30,-1
 383 664 383 664 350 676 c 1,27,-1
EndSplineSet
EndChar

StartChar: fl
Encoding: 646 64258 442
Width: 515
GlyphClass: 1
Flags: W
LayerCount: 2
Fore
SplineSet
66 0 m 1,0,-1
 88 499 l 1,1,-1
 10 464 l 1,2,-1
 19 578 l 1,3,-1
 88 578 l 1,4,-1
 66 621 l 2,5,6
 66 654 66 654 72 686.5 c 128,-1,7
 78 719 78 719 100 746.5 c 128,-1,8
 122 774 122 774 168.5 790.5 c 128,-1,9
 215 807 215 807 296 807 c 0,10,11
 309 801 309 801 376 799 c 128,-1,12
 443 797 443 797 507 785 c 1,13,-1
 457 0 l 1,14,-1
 345 0 l 1,15,-1
 350 717 l 1,16,17
 335 698 335 698 318.5 709.5 c 128,-1,18
 302 721 302 721 309 698 c 0,19,20
 271 698 271 698 254 687.5 c 128,-1,21
 237 677 237 677 232.5 659.5 c 128,-1,22
 228 642 228 642 228 620 c 0,23,24
 195 602 195 602 195 594 c 128,-1,25
 195 586 195 586 195 578 c 1,26,-1
 290 578 l 1,27,-1
 283 499 l 1,28,-1
 228 464 l 1,29,-1
 195 0 l 1,30,-1
 66 0 l 1,0,-1
EndSplineSet
EndChar

StartChar: ordfeminine
Encoding: 647 170 443
Width: 440
GlyphClass: 1
Flags: W
LayerCount: 2
Fore
SplineSet
151 313 m 0,0,1
 95 313 95 313 65.5 347 c 128,-1,2
 36 381 36 381 36 433 c 0,3,4
 36 476 36 476 55 506 c 128,-1,5
 74 536 74 536 106 556 c 128,-1,6
 138 576 138 576 177.5 591 c 128,-1,7
 217 606 217 606 258 619 c 1,8,-1
 239 631.5 239 631.5 258 673 c 2,9,10
 258 690 258 690 252 703 c 128,-1,11
 246 716 246 716 229 716 c 0,12,13
 217 716 217 716 209.5 709 c 128,-1,14
 202 702 202 702 198.5 686 c 128,-1,15
 195 670 195 670 192 643 c 1,16,-1
 100 657 100 657 51 647 c 1,17,18
 53 737 53 737 103.5 779 c 128,-1,19
 154 821 154 821 241 821 c 0,20,21
 297 821 297 821 333 801 c 128,-1,22
 369 781 369 781 386.5 745.5 c 128,-1,23
 404 710 404 710 404 664 c 2,24,-1
 333 477.5 333 477.5 404 322 c 1,25,-1
 290 327 290 327 275 322 c 1,26,-1
 247 359 247 359 266 389 c 1,27,28
 253 358 253 358 225 335.5 c 128,-1,29
 197 313 197 313 151 313 c 0,0,1
216 409 m 0,30,31
 227 409 227 409 238.5 416 c 128,-1,32
 250 423 250 423 258 435 c 1,33,-1
 239 506.5 239 506.5 258 563 c 1,34,35
 233 552 233 552 214 534 c 128,-1,36
 195 516 195 516 185 496 c 128,-1,37
 175 476 175 476 175 458 c 0,38,39
 175 435 175 435 187 422 c 128,-1,40
 199 409 199 409 216 409 c 0,30,31
EndSplineSet
EndChar

StartChar: ordmasculine
Encoding: 648 186 444
Width: 432
GlyphClass: 1
Flags: W
LayerCount: 2
Fore
SplineSet
215 313 m 0,0,1
 163 313 163 313 124.5 330.5 c 128,-1,2
 86 348 86 348 64.5 383 c 128,-1,3
 43 418 43 418 43 470 c 2,4,-1
 55 571 55 571 43 665 c 2,5,6
 43 743 43 743 90.5 782.5 c 128,-1,7
 138 822 138 822 215 822 c 0,8,9
 292 822 292 822 340.5 782 c 128,-1,10
 389 742 389 742 389 665 c 2,11,-1
 364 571 364 571 389 470 c 2,12,13
 389 419 389 419 367 384 c 128,-1,14
 345 349 345 349 306 331 c 128,-1,15
 267 313 267 313 215 313 c 0,0,1
216 411 m 0,16,17
 231 411 231 411 239.5 418 c 128,-1,18
 248 425 248 425 252 438.5 c 128,-1,19
 256 452 256 452 256 471 c 2,20,-1
 270 571 270 571 256 664 c 2,21,22
 256 684 256 684 252 697 c 128,-1,23
 248 710 248 710 239.5 717 c 128,-1,24
 231 724 231 724 216 724 c 0,25,26
 202 724 202 724 193 717 c 128,-1,27
 184 710 184 710 180 696.5 c 128,-1,28
 176 683 176 683 176 664 c 2,29,-1
 144 571 144 571 176 471 c 2,30,31
 176 453 176 453 180 439.5 c 128,-1,32
 184 426 184 426 193 418.5 c 128,-1,33
 202 411 202 411 216 411 c 0,16,17
EndSplineSet
EndChar

StartChar: uni0411
Encoding: 177 1041 446
Width: 554
GlyphClass: 1
Flags: W
LayerCount: 2
Fore
SplineSet
63 0 m 1,0,-1
 63 810 l 1,1,-1
 465 810 l 1,2,-1
 411 769 411 769 465 674 c 1,3,-1
 293.5 728 293.5 728 242 674 c 1,4,-1
 176 600.5 176 600.5 242 468 c 1,5,-1
 188.5 473 188.5 473 280 468 c 2,6,7
 357 468 357 468 410.5 443 c 128,-1,8
 464 418 464 418 492 366.5 c 128,-1,9
 520 315 520 315 520 234 c 0,10,11
 520 160 520 160 500.5 114 c 128,-1,12
 481 68 481 68 446 43 c 128,-1,13
 411 18 411 18 364.5 9 c 128,-1,14
 318 0 318 0 264 0 c 2,15,-1
 63 0 l 1,0,-1
242 117 m 1,16,-1
 192 81 192 81 265 117 c 2,17,18
 299 117 299 117 319 130 c 128,-1,19
 339 143 339 143 347 170 c 128,-1,20
 355 197 355 197 354 238 c 0,21,22
 353 283 353 283 335 313.5 c 128,-1,23
 317 344 317 344 263 344 c 2,24,-1
 190.5 391 190.5 391 242 344 c 1,25,-1
 176 236 176 236 242 117 c 1,16,-1
EndSplineSet
EndChar

StartChar: uni0413
Encoding: 179 1043 448
Width: 464
GlyphClass: 1
Flags: W
LayerCount: 2
Fore
SplineSet
63 0 m 1,0,-1
 63 810 l 1,1,-1
 439 810 l 1,2,-1
 376 768 376 768 439 677 c 1,3,-1
 276 726 276 726 242 677 c 1,4,-1
 176 363 176 363 242 0 c 1,5,-1
 63 0 l 1,0,-1
EndSplineSet
EndChar

StartChar: Geupturncy
Encoding: 649 1168 450
Width: 377
GlyphClass: 1
Flags: W
LayerCount: 2
Fore
SplineSet
63 0 m 1,0,-1
 63 810 l 1,1,-1
 301 810 l 1,2,-1
 333 941 l 1,3,-1
 372 918 l 1,4,-1
 438 677 l 1,5,-1
 176 726 l 1,6,-1
 242 0 l 1,7,-1
 63 0 l 1,0,-1
EndSplineSet
EndChar

StartChar: uni04F6
Encoding: 650 1270 451
Width: 463
GlyphClass: 1
Flags: W
LayerCount: 2
Fore
SplineSet
63 0 m 1,0,-1
 63 810 l 1,1,-1
 438 810 l 1,2,-1
 371 768 371 768 438 677 c 1,3,-1
 273.5 726 273.5 726 242 677 c 1,4,-1
 176 363 176 363 242 0 c 1,5,-1
 63 0 l 1,0,-1
211 -160 m 1,6,-1
 158 -33 158 -33 186 121 c 1,7,-1
 202 81 202 81 324 121 c 1,8,-1
 253 -33 253 -33 324 -160 c 1,9,-1
 209 -147 209 -147 211 -160 c 1,6,-1
133 121 m 1,10,-1
 150.5 81 150.5 81 281 121 c 1,11,-1
 181 40.5 181 40.5 281 0 c 1,12,-1
 150.5 0 150.5 0 133 0 c 1,13,-1
 120 40.5 120 40.5 133 121 c 1,10,-1
EndSplineSet
EndChar

StartChar: Gestrokecy
Encoding: 651 1170 452
Width: 409
GlyphClass: 1
Flags: W
LayerCount: 2
Fore
SplineSet
81 0 m 1,0,-1
 101 810 l 1,1,-1
 394 810 l 1,2,-1
 477 689 l 1,3,-1
 194 729 l 1,4,-1
 280 0 l 1,5,-1
 81 0 l 1,0,-1
14 396 m 1,6,-1
 26 490 l 1,7,-1
 323 482 l 1,8,-1
 409 376 l 1,9,-1
 14 396 l 1,6,-1
EndSplineSet
EndChar

StartChar: Gemiddlehookcy
Encoding: 652 1172 453
Width: 604
GlyphClass: 1
Flags: W
LayerCount: 2
Fore
SplineSet
376 -166 m 0,0,1
 356 -166 356 -166 344.5 -165.5 c 128,-1,2
 333 -165 333 -165 326 -164 c 128,-1,3
 319 -163 319 -163 313 -162 c 1,4,-1
 281 -102.5 281 -102.5 313 -61 c 1,5,6
 321 -61 321 -61 327.5 -60 c 128,-1,7
 334 -59 334 -59 341 -57 c 0,8,9
 356 -53 356 -53 365.5 -45 c 128,-1,10
 375 -37 375 -37 380 -24 c 128,-1,11
 385 -11 385 -11 385 7 c 2,12,-1
 385 155 385 155 385 291 c 2,13,14
 385 334 385 334 369 354.5 c 128,-1,15
 353 375 353 375 312 375 c 0,16,17
 294 375 294 375 277 369.5 c 128,-1,18
 260 364 260 364 240 353 c 1,19,-1
 176 175.5 176 175.5 240 0 c 1,20,-1
 63 0 l 1,21,-1
 63 810 l 1,22,-1
 436 810 l 1,23,-1
 371 768 371 768 436 685 c 1,24,-1
 273.5 726 273.5 726 240 685 c 1,25,-1
 176 570.5 176 570.5 240 443 c 1,26,27
 268 462 268 462 303.5 471.5 c 128,-1,28
 339 481 339 481 375 481 c 0,29,30
 430 481 430 481 472 461.5 c 128,-1,31
 514 442 514 442 538 400 c 128,-1,32
 562 358 562 358 562 290 c 2,33,-1
 498 159 498 159 562 4 c 2,34,35
 562 -44 562 -44 542.5 -82.5 c 128,-1,36
 523 -121 523 -121 482 -143.5 c 128,-1,37
 441 -166 441 -166 376 -166 c 0,0,1
EndSplineSet
EndChar

StartChar: uni0414
Encoding: 180 1044 454
Width: 693
GlyphClass: 1
Flags: W
LayerCount: 2
Fore
SplineSet
18 -160 m 1,0,-1
 11 -33 11 -33 18 128 c 1,1,-1
 29.5 81 29.5 81 41 128 c 1,2,3
 64 135 64 135 83.5 152.5 c 128,-1,4
 103 170 103 170 119 200 c 128,-1,5
 135 230 135 230 148 275 c 128,-1,6
 161 320 161 320 170 382.5 c 128,-1,7
 179 445 179 445 185 527 c 2,8,-1
 181.5 690 181.5 690 207 810 c 1,9,-1
 357.5 810 357.5 810 584 810 c 1,10,-1
 527 445.5 527 445.5 584 128 c 1,11,-1
 566 81 566 81 675 128 c 1,12,-1
 605 -33 605 -33 675 -160 c 1,13,-1
 561.5 -147 561.5 -147 561 -160 c 1,14,-1
 513.5 -73.5 513.5 -73.5 548 0 c 1,15,-1
 308 0 308 0 151 0 c 1,16,-1
 102.5 -73.5 102.5 -73.5 132 -160 c 1,17,-1
 54.5 -147 54.5 -147 18 -160 c 1,0,-1
210 128 m 1,18,-1
 284 81 284 81 417 128 c 1,19,-1
 415 403.5 415 403.5 417 683 c 1,20,-1
 349.5 726 349.5 726 342 683 c 1,21,-1
 280 634.5 280 634.5 333 509 c 2,22,23
 328 423 328 423 318.5 363 c 128,-1,24
 309 303 309 303 296.5 263.5 c 128,-1,25
 284 224 284 224 270 199 c 128,-1,26
 256 174 256 174 240.5 158 c 128,-1,27
 225 142 225 142 210 128 c 1,18,-1
EndSplineSet
EndChar

StartChar: uni0416
Encoding: 182 1046 458
Width: 795
GlyphClass: 1
Flags: W
LayerCount: 2
Fore
SplineSet
6 0 m 1,0,-1
 98 207 98 207 176 407 c 1,1,-1
 107.5 612 107.5 612 10 810 c 1,2,-1
 77.5 810 77.5 810 177 810 c 1,3,-1
 208 614.5 208 614.5 318 431 c 1,4,-1
 287 419 287 419 326 431 c 1,5,-1
 290 614.5 290 614.5 326 810 c 1,6,-1
 338 810 338 810 468 810 c 1,7,-1
 386 614.5 386 614.5 468 431 c 1,8,-1
 389.5 419 389.5 419 477 431 c 1,9,-1
 468.5 614.5 468.5 614.5 618 810 c 1,10,-1
 599 810 599 810 785 810 c 1,11,-1
 569 612 569 612 619 407 c 1,12,-1
 578.5 207 578.5 207 789 0 c 1,13,-1
 617.5 0 617.5 0 629 0 c 1,14,-1
 478 202.5 478 202.5 477 393 c 1,15,-1
 390 405 390 405 468 393 c 1,16,-1
 386 202.5 386 202.5 468 0 c 1,17,-1
 338 0 338 0 326 0 c 1,18,-1
 290 202.5 290 202.5 326 393 c 1,19,-1
 286.5 405 286.5 405 318 393 c 1,20,-1
 198.5 202.5 198.5 202.5 166 0 c 1,21,-1
 59 0 59 0 6 0 c 1,0,-1
EndSplineSet
EndChar

StartChar: uni0417
Encoding: 183 1047 459
Width: 526
GlyphClass: 1
Flags: W
LayerCount: 2
Fore
SplineSet
266 -15 m 0,0,1
 181 -15 181 -15 132.5 17 c 128,-1,2
 84 49 84 49 63.5 106.5 c 128,-1,3
 43 164 43 164 43 239 c 2,4,-1
 42 212.5 42 212.5 43 268 c 1,5,-1
 95 226 95 226 211 268 c 1,6,7
 211 266 211 266 211 256 c 128,-1,8
 211 246 211 246 211 237 c 0,9,10
 211 177 211 177 223 151.5 c 128,-1,11
 235 126 235 126 269 126 c 0,12,13
 292 126 292 126 303.5 138 c 128,-1,14
 315 150 315 150 319.5 173.5 c 128,-1,15
 324 197 324 197 324 233 c 0,16,17
 324 294 324 294 306 325.5 c 128,-1,18
 288 357 288 357 231 358 c 0,19,20
 230 359 230 359 222.5 359 c 128,-1,21
 215 359 215 359 205 359 c 128,-1,22
 195 359 195 359 186 359 c 1,23,-1
 168 424 168 424 186 468 c 1,24,25
 193 468 193 468 200 468 c 128,-1,26
 207 468 207 468 214 468 c 128,-1,27
 221 468 221 468 227 468 c 0,28,29
 286 469 286 469 305 500 c 128,-1,30
 324 531 324 531 324 592 c 0,31,32
 324 639 324 639 309.5 664 c 128,-1,33
 295 689 295 689 261 689 c 0,34,35
 228 689 228 689 215.5 662.5 c 128,-1,36
 203 636 203 636 202 592 c 0,37,38
 202 590 202 590 202 575.5 c 128,-1,39
 202 561 202 561 202 547 c 1,40,-1
 78.5 583 78.5 583 34 547 c 1,41,-1
 25 596.5 25 596.5 34 596 c 2,42,43
 34 669 34 669 62.5 719.5 c 128,-1,44
 91 770 91 770 142 796 c 128,-1,45
 193 822 193 822 262 822 c 0,46,47
 333 822 333 822 383.5 797 c 128,-1,48
 434 772 434 772 461 723.5 c 128,-1,49
 488 675 488 675 488 603 c 0,50,51
 488 532 488 532 459 483.5 c 128,-1,52
 430 435 430 435 389 424 c 1,53,54
 417 413 417 413 439.5 391.5 c 128,-1,55
 462 370 462 370 475 333 c 128,-1,56
 488 296 488 296 488 238 c 0,57,58
 488 164 488 164 466.5 106.5 c 128,-1,59
 445 49 445 49 396 17 c 128,-1,60
 347 -15 347 -15 266 -15 c 0,0,1
EndSplineSet
EndChar

StartChar: uni0418
Encoding: 184 1048 460
Width: 590
GlyphClass: 1
Flags: W
LayerCount: 2
Fore
SplineSet
63 0 m 1,0,-1
 63 810 l 1,1,-1
 204 810 l 1,2,-1
 163 529.5 163 529.5 204 346 c 1,3,-1
 281.5 529.5 281.5 529.5 411 810 c 1,4,-1
 440.5 810 440.5 810 527 810 c 1,5,-1
 481 405 481 405 527 0 c 1,6,-1
 431.5 0 431.5 0 383 0 c 1,7,-1
 382 285 382 285 383 472 c 1,8,-1
 264.5 285 264.5 285 172 0 c 1,9,-1
 63 0 l 1,0,-1
EndSplineSet
EndChar

StartChar: uni048A
Encoding: 655 1162 463
Width: 614
GlyphClass: 1
Flags: W
LayerCount: 2
Fore
SplineSet
427 -175 m 1,0,-1
 443.5 -33 443.5 -33 472 121 c 1,1,-1
 512 81 512 81 612 121 c 1,2,-1
 535 -33 535 -33 545 -175 c 1,3,-1
 466.5 -147 466.5 -147 427 -175 c 1,0,-1
63 0 m 1,4,-1
 63 810 l 1,5,-1
 204 810 l 1,6,-1
 163 529.5 163 529.5 204 346 c 1,7,-1
 281.5 529.5 281.5 529.5 411 810 c 1,8,-1
 440.5 810 440.5 810 527 810 c 1,9,-1
 481 405 481 405 527 0 c 1,10,-1
 431.5 0 431.5 0 383 0 c 1,11,-1
 382 285 382 285 383 472 c 1,12,-1
 264.5 285 264.5 285 172 0 c 1,13,-1
 63 0 l 1,4,-1
306 875 m 0,14,15
 235 875 235 875 192 915 c 128,-1,16
 149 955 149 955 149 1031 c 1,17,-1
 181 1009 181 1009 241 1031 c 1,18,19
 241 994 241 994 255.5 976 c 128,-1,20
 270 958 270 958 306 958 c 0,21,22
 341 958 341 958 356 976.5 c 128,-1,23
 371 995 371 995 371 1031 c 1,24,-1
 381.5 1009 381.5 1009 463 1031 c 1,25,26
 463 955 463 955 420 915 c 128,-1,27
 377 875 377 875 306 875 c 0,14,15
EndSplineSet
EndChar

StartChar: uni041A
Encoding: 186 1050 464
Width: 572
GlyphClass: 1
Flags: W
LayerCount: 2
Fore
SplineSet
63 0 m 1,0,-1
 63 810 l 1,1,-1
 242 810 l 1,2,-1
 176 630 176 630 242 489 c 1,3,-1
 197 450 197 450 260 489 c 1,4,-1
 290.5 630 290.5 630 379 810 c 1,5,-1
 419.5 810 419.5 810 557 810 c 1,6,-1
 396 617.5 396 617.5 409 430 c 1,7,-1
 406 212.5 406 212.5 562 0 c 1,8,-1
 439.5 0 439.5 0 378 0 c 1,9,-1
 301 197.5 301 197.5 260 353 c 1,10,-1
 197.5 395 197.5 395 242 353 c 1,11,-1
 176 197.5 176 197.5 242 0 c 1,12,-1
 63 0 l 1,0,-1
EndSplineSet
EndChar

StartChar: uni041B
Encoding: 187 1051 466
Width: 656
GlyphClass: 1
Flags: W
LayerCount: 2
Fore
SplineSet
7 0 m 1,0,-1
 2 42 2 42 7 126 c 1,1,2
 41 126 41 126 62 130.5 c 128,-1,3
 83 135 83 135 95 152 c 128,-1,4
 107 169 107 169 114 204 c 128,-1,5
 121 239 121 239 125.5 298 c 128,-1,6
 130 357 130 357 137 448 c 2,7,-1
 147.5 594.5 147.5 594.5 163 810 c 1,8,-1
 339 810 339 810 592 810 c 1,9,-1
 517 405 517 405 592 0 c 1,10,-1
 460.5 0 460.5 0 414 0 c 1,11,-1
 404 363 404 363 414 673 c 1,12,-1
 331 726 331 726 325 673 c 1,13,-1
 248.5 552.5 248.5 552.5 309 414 c 2,14,15
 302 314 302 314 295 241.5 c 128,-1,16
 288 169 288 169 272.5 120 c 128,-1,17
 257 71 257 71 226.5 43.5 c 128,-1,18
 196 16 196 16 143 6 c 128,-1,19
 90 -4 90 -4 7 0 c 1,0,-1
EndSplineSet
EndChar

StartChar: uni041F
Encoding: 191 1055 470
Width: 572
GlyphClass: 1
Flags: W
LayerCount: 2
Fore
SplineSet
63 0 m 1,0,-1
 60 810 l 1,1,-1
 509 810 l 1,2,-1
 545 0 l 1,3,-1
 396 0 l 1,4,-1
 369 682 l 1,5,-1
 176 729 l 1,6,-1
 236 0 l 1,7,-1
 63 0 l 1,0,-1
EndSplineSet
EndChar

StartChar: uni0423
Encoding: 195 1059 474
Width: 554
GlyphClass: 1
Flags: W
LayerCount: 2
Fore
SplineSet
53 -163 m 1,0,-1
 53 -98.5 53 -98.5 53 -40 c 1,1,2
 67 -41 67 -41 79.5 -41.5 c 128,-1,3
 92 -42 92 -42 103 -42 c 0,4,5
 127 -42 127 -42 146.5 -38 c 128,-1,6
 166 -34 166 -34 180 -25.5 c 128,-1,7
 194 -17 194 -17 201.5 -2.5 c 128,-1,8
 209 12 209 12 209 33 c 0,9,10
 209 48 209 48 207.5 59.5 c 128,-1,11
 206 71 206 71 204 82 c 2,12,-1
 99 450 99 450 22 810 c 1,13,-1
 72.5 810 72.5 810 188 810 c 1,14,-1
 160 637.5 160 637.5 258 477 c 1,15,-1
 214.5 336.5 214.5 336.5 291 260 c 1,16,-1
 253 335.5 253 335.5 315 478 c 1,17,-1
 301.5 636.5 301.5 636.5 374 810 c 1,18,-1
 386 810 386 810 542 810 c 1,19,-1
 372 469.5 372 469.5 376 65 c 2,20,21
 362 1 362 1 342 -43.5 c 128,-1,22
 322 -88 322 -88 293 -115 c 128,-1,23
 264 -142 264 -142 222.5 -154 c 128,-1,24
 181 -166 181 -166 122 -166 c 0,25,26
 107 -166 107 -166 90 -165 c 128,-1,27
 73 -164 73 -164 53 -163 c 1,0,-1
EndSplineSet
EndChar

StartChar: uni0424
Encoding: 196 1060 476
Width: 759
GlyphClass: 1
Flags: W
LayerCount: 2
Fore
SplineSet
307 -29 m 1,0,-1
 273 32 273 32 307 92 c 1,1,2
 292 91 292 91 276.5 90 c 128,-1,3
 261 89 261 89 245 89 c 0,4,5
 190 89 190 89 144.5 112 c 128,-1,6
 99 135 99 135 72.5 179.5 c 128,-1,7
 46 224 46 224 46 288 c 2,8,-1
 48 412 48 412 46 532 c 2,9,10
 46 590 46 590 73.5 635 c 128,-1,11
 101 680 101 680 150.5 705.5 c 128,-1,12
 200 731 200 731 264 731 c 0,13,14
 275 731 275 731 286.5 730.5 c 128,-1,15
 298 730 298 730 307 729 c 1,16,-1
 273 805 273 805 307 857 c 1,17,-1
 329.5 883 329.5 883 451 857 c 1,18,-1
 386 805 386 805 451 729 c 1,19,20
 460 730 460 730 470 730.5 c 128,-1,21
 480 731 480 731 491 731 c 0,22,23
 558 731 558 731 607.5 705.5 c 128,-1,24
 657 680 657 680 684.5 635 c 128,-1,25
 712 590 712 590 712 532 c 2,26,-1
 614 412 614 412 712 287 c 2,27,28
 712 223 712 223 685.5 178.5 c 128,-1,29
 659 134 659 134 615.5 111 c 128,-1,30
 572 88 572 88 519 88 c 0,31,32
 502 88 502 88 485.5 89 c 128,-1,33
 469 90 469 90 451 91 c 1,34,-1
 386 32 386 32 451 -29 c 1,35,-1
 329.5 -36 329.5 -36 307 -29 c 1,0,-1
287 200 m 0,36,37
 292 200 292 200 298 200.5 c 128,-1,38
 304 201 304 201 307 202 c 1,39,-1
 273 413 273 413 307 622 c 1,40,41
 303 623 303 623 296.5 623.5 c 128,-1,42
 290 624 290 624 285 624 c 0,43,44
 260 624 260 624 242 613 c 128,-1,45
 224 602 224 602 214 582 c 128,-1,46
 204 562 204 562 204 534 c 2,47,-1
 151 412 151 412 204 285 c 2,48,49
 204 261 204 261 212 242 c 128,-1,50
 220 223 220 223 238 211.5 c 128,-1,51
 256 200 256 200 287 200 c 0,36,37
472 201 m 0,52,53
 501 201 501 201 519 211.5 c 128,-1,54
 537 222 537 222 545.5 241 c 128,-1,55
 554 260 554 260 554 285 c 2,56,-1
 511 412 511 412 554 534 c 2,57,58
 554 564 554 564 545 584 c 128,-1,59
 536 604 536 604 519.5 614 c 128,-1,60
 503 624 503 624 480 624 c 0,61,62
 472 624 472 624 465 623.5 c 128,-1,63
 458 623 458 623 451 622 c 1,64,-1
 386 413 386 413 451 203 c 1,65,66
 456 202 456 202 461.5 201.5 c 128,-1,67
 467 201 467 201 472 201 c 0,52,53
EndSplineSet
EndChar

StartChar: uni0427
Encoding: 199 1063 478
Width: 609
GlyphClass: 1
Flags: W
LayerCount: 2
Fore
SplineSet
368 0 m 1,0,-1
 374 187 374 187 368 335 c 1,1,2
 341 330 341 330 321 328 c 128,-1,3
 301 326 301 326 278 326 c 0,4,5
 171 326 171 326 108 377.5 c 128,-1,6
 45 429 45 429 45 534 c 2,7,-1
 50 678.5 50 678.5 45 810 c 1,8,-1
 107 810 107 810 224 810 c 1,9,-1
 164 678.5 164 678.5 224 573 c 2,10,11
 224 523 224 523 232 492.5 c 128,-1,12
 240 462 240 462 260 449 c 128,-1,13
 280 436 280 436 314 436 c 0,14,15
 325 436 325 436 340 438 c 128,-1,16
 355 440 355 440 368 443 c 1,17,-1
 374 627.5 374 627.5 368 810 c 1,18,-1
 431 810 431 810 547 810 c 1,19,-1
 488 405 488 405 547 0 c 1,20,-1
 431 0 431 0 368 0 c 1,0,-1
EndSplineSet
EndChar

StartChar: uni0426
Encoding: 198 1062 479
Width: 622
GlyphClass: 1
Flags: W
LayerCount: 2
Fore
SplineSet
527 -160 m 1,0,-1
 510 0 l 1,1,-1
 63 0 l 1,2,-1
 65 810 l 1,3,-1
 176 810 l 1,4,-1
 243 121 l 1,5,-1
 406 81 l 1,6,-1
 380 810 l 1,7,-1
 519 810 l 1,8,-1
 559 121 l 1,9,-1
 596 81 l 1,10,-1
 640 -160 l 1,11,-1
 527 -160 l 1,0,-1
EndSplineSet
EndChar

StartChar: uni0428
Encoding: 200 1064 480
Width: 750
GlyphClass: 1
Flags: W
LayerCount: 2
Fore
SplineSet
63 0 m 1,0,-1
 63 810 l 1,1,-1
 176 810 l 1,2,-1
 232 128 l 1,3,-1
 322 82 l 1,4,-1
 331 810 l 1,5,-1
 435 810 l 1,6,-1
 499 128 l 1,7,-1
 574 82 l 1,8,-1
 594 810 l 1,9,-1
 687 810 l 1,10,-1
 762 0 l 1,11,-1
 63 0 l 1,0,-1
EndSplineSet
EndChar

StartChar: uni0429
Encoding: 201 1065 481
Width: 790
GlyphClass: 1
Flags: W
LayerCount: 2
Fore
SplineSet
737 -160 m 1,0,-1
 721 0 l 1,1,-1
 63 0 l 1,2,-1
 69 810 l 1,3,-1
 176 810 l 1,4,-1
 238 121 l 1,5,-1
 322 81 l 1,6,-1
 337 810 l 1,7,-1
 435 810 l 1,8,-1
 505 121 l 1,9,-1
 574 81 l 1,10,-1
 600 810 l 1,11,-1
 688 810 l 1,12,-1
 769 121 l 1,13,-1
 765 81 l 1,14,-1
 851 -160 l 1,15,-1
 737 -160 l 1,0,-1
EndSplineSet
EndChar

StartChar: uni040F
Encoding: 175 1039 482
Width: 599
GlyphClass: 1
Flags: W
LayerCount: 2
Fore
SplineSet
245 -160 m 1,0,-1
 229.5 -73.5 229.5 -73.5 233 0 c 1,1,-1
 144.5 0 144.5 0 60 0 c 1,2,-1
 63 405 63 405 60 810 c 1,3,-1
 119.5 810 119.5 810 239 810 c 1,4,-1
 176 445.5 176 445.5 239 135 c 1,5,-1
 273.5 81 273.5 81 360 135 c 1,6,-1
 371 445.5 371 445.5 360 810 c 1,7,-1
 427 810 427 810 539 810 c 1,8,-1
 483 405 483 405 539 0 c 1,9,-1
 404 0 404 0 368 0 c 1,10,-1
 321.5 -73.5 321.5 -73.5 358 -160 c 1,11,-1
 275.5 -147 275.5 -147 245 -160 c 1,0,-1
EndSplineSet
EndChar

StartChar: uni042C
Encoding: 204 1068 483
Width: 556
GlyphClass: 1
Flags: W
LayerCount: 2
Fore
SplineSet
63 0 m 1,0,-1
 63 810 l 1,1,-1
 242 810 l 1,2,-1
 176 641.5 176 641.5 242 468 c 1,3,-1
 192 473 192 473 282 468 c 2,4,5
 358 468 358 468 411 443 c 128,-1,6
 464 418 464 418 492 366.5 c 128,-1,7
 520 315 520 315 520 234 c 0,8,9
 520 160 520 160 500.5 114 c 128,-1,10
 481 68 481 68 446 43 c 128,-1,11
 411 18 411 18 364.5 9 c 128,-1,12
 318 0 318 0 265 0 c 2,13,-1
 63 0 l 1,0,-1
242 117 m 1,14,-1
 194.5 81 194.5 81 266 117 c 2,15,16
 300 117 300 117 319.5 130 c 128,-1,17
 339 143 339 143 347.5 170 c 128,-1,18
 356 197 356 197 355 238 c 0,19,20
 354 283 354 283 336.5 313.5 c 128,-1,21
 319 344 319 344 264 344 c 2,22,-1
 193.5 391 193.5 391 242 344 c 1,23,-1
 176 236 176 236 242 117 c 1,14,-1
EndSplineSet
EndChar

StartChar: uni042B
Encoding: 203 1067 484
Width: 831
GlyphClass: 1
Flags: W
LayerCount: 2
Fore
SplineSet
63 0 m 1,0,-1
 63 810 l 1,1,-1
 242 810 l 1,2,-1
 176 641.5 176 641.5 242 468 c 1,3,-1
 192 473 192 473 282 468 c 2,4,5
 359 468 359 468 412.5 443 c 128,-1,6
 466 418 466 418 493.5 366.5 c 128,-1,7
 521 315 521 315 521 234 c 0,8,9
 521 160 521 160 501.5 114 c 128,-1,10
 482 68 482 68 447 43 c 128,-1,11
 412 18 412 18 366 9 c 128,-1,12
 320 0 320 0 266 0 c 2,13,-1
 63 0 l 1,0,-1
242 117 m 1,14,-1
 194.5 81 194.5 81 267 117 c 2,15,16
 301 117 301 117 320.5 130 c 128,-1,17
 340 143 340 143 348.5 170 c 128,-1,18
 357 197 357 197 356 238 c 0,19,20
 355 283 355 283 337 313.5 c 128,-1,21
 319 344 319 344 265 344 c 2,22,-1
 193.5 391 193.5 391 242 344 c 1,23,-1
 176 236 176 236 242 117 c 1,14,-1
589 0 m 1,24,-1
 551 405 551 405 589 810 c 1,25,-1
 607.5 810 607.5 810 768 810 c 1,26,-1
 664 405 664 405 768 0 c 1,27,-1
 607.5 0 607.5 0 589 0 c 1,24,-1
EndSplineSet
EndChar

StartChar: uni042A
Encoding: 202 1066 485
Width: 632
GlyphClass: 1
Flags: W
LayerCount: 2
Fore
SplineSet
134 0 m 1,0,-1
 136 362 136 362 134 688 c 1,1,-1
 70.5 724 70.5 724 13 688 c 1,2,-1
 5 767 5 767 13 810 c 1,3,-1
 127 810 127 810 313 810 c 1,4,-1
 249 641.5 249 641.5 313 468 c 1,5,-1
 264.5 473 264.5 473 359 468 c 2,6,7
 436 468 436 468 489.5 443 c 128,-1,8
 543 418 543 418 570.5 366.5 c 128,-1,9
 598 315 598 315 598 234 c 0,10,11
 598 160 598 160 578.5 114 c 128,-1,12
 559 68 559 68 524 43 c 128,-1,13
 489 18 489 18 442.5 9 c 128,-1,14
 396 0 396 0 343 0 c 2,15,-1
 211 0 211 0 134 0 c 1,0,-1
313 117 m 1,16,-1
 268 81 268 81 344 117 c 2,17,18
 378 117 378 117 397.5 130 c 128,-1,19
 417 143 417 143 425.5 170 c 128,-1,20
 434 197 434 197 433 238 c 0,21,22
 432 283 432 283 414 313.5 c 128,-1,23
 396 344 396 344 341 344 c 2,24,-1
 266.5 391 266.5 391 313 344 c 1,25,-1
 249 236 249 236 313 117 c 1,16,-1
EndSplineSet
EndChar

StartChar: uni0409
Encoding: 169 1033 486
Width: 888
GlyphClass: 1
Flags: W
LayerCount: 2
Fore
SplineSet
74 0 m 2,0,-1
 25 -0.5 25 -0.5 10 0 c 1,1,-1
 14 42 14 42 10 126 c 1,2,3
 42 125 42 125 63 130.5 c 128,-1,4
 84 136 84 136 97 153 c 128,-1,5
 110 170 110 170 118 203 c 128,-1,6
 126 236 126 236 130 290 c 2,7,-1
 157.5 583.5 157.5 583.5 165 810 c 1,8,-1
 349 810 349 810 595 810 c 1,9,-1
 528 641.5 528 641.5 595 468 c 1,10,-1
 535.5 473 535.5 473 627 468 c 2,11,12
 704 468 704 468 757.5 443 c 128,-1,13
 811 418 811 418 839 366.5 c 128,-1,14
 867 315 867 315 867 234 c 0,15,16
 867 160 867 160 847.5 114 c 128,-1,17
 828 68 828 68 793 43 c 128,-1,18
 758 18 758 18 711.5 9 c 128,-1,19
 665 0 665 0 611 0 c 2,20,-1
 482 0 482 0 417 0 c 1,21,-1
 415 363 415 363 417 673 c 1,22,-1
 342.5 726 342.5 726 327 673 c 1,23,-1
 259 541.5 259 541.5 302 286 c 2,24,25
 297 202 297 202 282 146.5 c 128,-1,26
 267 91 267 91 240.5 58.5 c 128,-1,27
 214 26 214 26 173 13 c 128,-1,28
 132 0 132 0 74 0 c 2,0,-1
595 117 m 1,29,-1
 538.5 81 538.5 81 613 117 c 2,30,31
 646 117 646 117 665.5 130 c 128,-1,32
 685 143 685 143 693.5 170 c 128,-1,33
 702 197 702 197 702 238 c 0,34,35
 702 283 702 283 683.5 313.5 c 128,-1,36
 665 344 665 344 611 344 c 2,37,-1
 537.5 391 537.5 391 595 344 c 1,38,-1
 528 236 528 236 595 117 c 1,29,-1
EndSplineSet
EndChar

StartChar: uni040A
Encoding: 170 1034 487
Width: 835
GlyphClass: 1
Flags: W
LayerCount: 2
Fore
SplineSet
63 1 m 1,0,-1
 63 811 l 1,1,-1
 242 811 l 1,2,-1
 176 641.5 176 641.5 242 478 c 1,3,-1
 270.5 472 270.5 472 356 478 c 1,4,-1
 365 641.5 365 641.5 356 811 c 1,5,-1
 422 811 422 811 535 811 c 1,6,-1
 479 642 479 642 535 468 c 1,7,-1
 487 473 487 473 565 468 c 2,8,9
 642 468 642 468 695 443 c 128,-1,10
 748 418 748 418 776 366.5 c 128,-1,11
 804 315 804 315 804 234 c 0,12,13
 804 160 804 160 784.5 114 c 128,-1,14
 765 68 765 68 730 43.5 c 128,-1,15
 695 19 695 19 648.5 10 c 128,-1,16
 602 1 602 1 549 1 c 2,17,-1
 432.5 0 432.5 0 356 1 c 1,18,-1
 365 195.5 365 195.5 356 343 c 1,19,-1
 270.5 391 270.5 391 242 343 c 1,20,-1
 176 195.5 176 195.5 242 1 c 1,21,-1
 119.5 0 119.5 0 63 1 c 1,0,-1
535 117 m 1,22,-1
 489.5 81 489.5 81 549 117 c 2,23,24
 583 117 583 117 602.5 129.5 c 128,-1,25
 622 142 622 142 630.5 167.5 c 128,-1,26
 639 193 639 193 639 232 c 0,27,28
 639 287 639 287 620.5 315.5 c 128,-1,29
 602 344 602 344 548 344 c 2,30,-1
 489 391 489 391 535 344 c 1,31,-1
 479 236 479 236 535 117 c 1,22,-1
EndSplineSet
EndChar

StartChar: uni0404
Encoding: 164 1028 489
Width: 553
GlyphClass: 1
Flags: W
LayerCount: 2
Fore
SplineSet
292 -12 m 0,0,1
 200 -12 200 -12 146.5 21.5 c 128,-1,2
 93 55 93 55 71 115.5 c 128,-1,3
 49 176 49 176 49 258 c 2,4,-1
 48 403 48 403 49 550 c 2,5,6
 49 634 49 634 71 694.5 c 128,-1,7
 93 755 93 755 146.5 788 c 128,-1,8
 200 821 200 821 292 821 c 0,9,10
 382 821 382 821 432.5 791.5 c 128,-1,11
 483 762 483 762 504 709 c 128,-1,12
 525 656 525 656 525 587 c 2,13,-1
 470 569.5 470 569.5 525 539 c 1,14,-1
 416.5 555 416.5 555 350 539 c 1,15,-1
 363 566 363 566 350 598 c 2,16,17
 350 622 350 622 347.5 644 c 128,-1,18
 345 666 345 666 333 680.5 c 128,-1,19
 321 695 321 695 292 695 c 0,20,21
 264 695 264 695 250.5 680 c 128,-1,22
 237 665 237 665 233.5 642.5 c 128,-1,23
 230 620 230 620 230 595 c 2,24,-1
 162 511 162 511 230 457 c 1,25,-1
 262 459 262 459 360 457 c 1,26,-1
 362 420 362 420 360 360 c 1,27,-1
 262 381 262 381 230 360 c 1,28,-1
 162 311.5 162 311.5 230 214 c 2,29,30
 230 187 230 187 234.5 164.5 c 128,-1,31
 239 142 239 142 252.5 128.5 c 128,-1,32
 266 115 266 115 292 115 c 0,33,34
 320 115 320 115 332 129.5 c 128,-1,35
 344 144 344 144 347 167 c 128,-1,36
 350 190 350 190 350 214 c 2,37,-1
 363 257.5 363 257.5 350 269 c 1,38,-1
 416.5 274 416.5 274 525 269 c 1,39,-1
 470 257.5 470 257.5 525 229 c 2,40,41
 525 160 525 160 504.5 105.5 c 128,-1,42
 484 51 484 51 433.5 19.5 c 128,-1,43
 383 -12 383 -12 292 -12 c 0,0,1
EndSplineSet
EndChar

StartChar: uni042D
Encoding: 205 1069 490
Width: 575
GlyphClass: 1
Flags: W
LayerCount: 2
Fore
SplineSet
283 -10 m 0,0,1
 194 -10 194 -10 143 20 c 128,-1,2
 92 50 92 50 71 103 c 128,-1,3
 50 156 50 156 50 224 c 2,4,-1
 49 255 49 255 50 267 c 1,5,-1
 102.5 275 102.5 275 225 267 c 1,6,-1
 156 259 156 259 225 214 c 2,7,8
 225 190 225 190 227.5 167.5 c 128,-1,9
 230 145 230 145 242.5 131 c 128,-1,10
 255 117 255 117 283 117 c 0,11,12
 311 117 311 117 324 131.5 c 128,-1,13
 337 146 337 146 340.5 169.5 c 128,-1,14
 344 193 344 193 344 218 c 2,15,-1
 357 322 357 322 344 360 c 1,16,-1
 286 386 286 386 210 360 c 1,17,-1
 215 423 215 423 210 450 c 1,18,-1
 286 460 286 460 344 450 c 1,19,-1
 357 519 357 519 344 598 c 2,20,21
 344 626 344 626 339.5 648.5 c 128,-1,22
 335 671 335 671 322 684 c 128,-1,23
 309 697 309 697 283 697 c 0,24,25
 255 697 255 697 243 682.5 c 128,-1,26
 231 668 231 668 228 645.5 c 128,-1,27
 225 623 225 623 225 598 c 2,28,-1
 156 561.5 156 561.5 225 542 c 1,29,-1
 102.5 544 102.5 544 50 542 c 1,30,-1
 49 562 49 562 50 582 c 2,31,32
 50 651 50 651 70.5 706 c 128,-1,33
 91 761 91 761 142 792.5 c 128,-1,34
 193 824 193 824 283 824 c 0,35,36
 376 824 376 824 429 790.5 c 128,-1,37
 482 757 482 757 504 696.5 c 128,-1,38
 526 636 526 636 526 553 c 2,39,-1
 471 417 471 417 526 262 c 2,40,41
 526 178 526 178 504 117 c 128,-1,42
 482 56 482 56 429 23 c 128,-1,43
 376 -10 376 -10 283 -10 c 0,0,1
EndSplineSet
EndChar

StartChar: uni0406
Encoding: 166 1030 491
Width: 277
GlyphClass: 1
Flags: W
LayerCount: 2
Fore
SplineSet
54 0 m 1,0,-1
 69 405 69 405 54 810 c 1,1,-1
 124.5 810 124.5 810 232 810 c 1,2,-1
 180 405 180 405 232 0 c 1,3,-1
 124.5 0 124.5 0 54 0 c 1,0,-1
EndSplineSet
EndChar

StartChar: uni0408
Encoding: 168 1032 493
Width: 325
GlyphClass: 1
Flags: W
LayerCount: 2
Fore
SplineSet
4 -21 m 1,0,-1
 7 21.5 7 21.5 4 104 c 1,1,2
 31 104 31 104 50 107 c 128,-1,3
 69 110 69 110 80.5 118.5 c 128,-1,4
 92 127 92 127 97 143.5 c 128,-1,5
 102 160 102 160 102 186 c 2,6,-1
 125 497.5 125 497.5 102 810 c 1,7,-1
 181 810 181 810 280 810 c 1,8,-1
 237 496.5 237 496.5 280 178 c 2,9,10
 280 112 280 112 263.5 67.5 c 128,-1,11
 247 23 247 23 206 1 c 128,-1,12
 165 -21 165 -21 91 -21 c 2,13,-1
 34 -19 34 -19 4 -21 c 1,0,-1
EndSplineSet
EndChar

StartChar: uni040B
Encoding: 171 1035 494
Width: 673
GlyphClass: 1
Flags: W
LayerCount: 2
Fore
SplineSet
395 484 m 0,0,1
 503 484 503 484 566 432.5 c 128,-1,2
 629 381 629 381 629 276 c 2,3,-1
 584 131.5 584 131.5 629 0 c 1,4,-1
 527 0 527 0 450 0 c 1,5,-1
 470 131.5 470 131.5 450 237 c 2,6,7
 450 288 450 288 441.5 318 c 128,-1,8
 433 348 433 348 413.5 361 c 128,-1,9
 394 374 394 374 359 374 c 0,10,11
 349 374 349 374 334 372 c 128,-1,12
 319 370 319 370 306 367 c 1,13,-1
 260 182.5 260 182.5 306 0 c 1,14,-1
 203 0 203 0 127 0 c 1,15,-1
 146 363 146 363 127 677 c 1,16,-1
 78 726 78 726 5 677 c 1,17,-1
 10 768 10 768 5 810 c 1,18,-1
 203 810 203 810 428 810 c 1,19,-1
 396 768 396 768 428 677 c 1,20,-1
 328 726 328 726 306 677 c 1,21,-1
 260 581 260 581 306 475 c 1,22,23
 332 480 332 480 352.5 482 c 128,-1,24
 373 484 373 484 395 484 c 0,0,1
EndSplineSet
EndChar

StartChar: Yucy
Encoding: 206 1070 495
Width: 825
GlyphClass: 1
Flags: W
LayerCount: 2
Fore
SplineSet
552 -12 m 256,0,1
 466 -12 466 -12 417 22.5 c 128,-1,2
 368 57 368 57 348 119.5 c 128,-1,3
 328 182 328 182 328 265 c 2,4,-1
 261 313.5 261 313.5 328 344 c 1,5,-1
 215 371 215 371 240 344 c 1,6,-1
 169 185.5 169 185.5 240 0 c 1,7,-1
 63 0 l 1,8,-1
 63 810 l 1,9,-1
 240 810 l 1,10,-1
 169 633.5 169 633.5 240 476 c 1,11,-1
 215 457 215 457 328 476 c 1,12,-1
 261 507.5 261 507.5 328 546 c 2,13,14
 328 630 328 630 348 691.5 c 128,-1,15
 368 753 368 753 417 787 c 128,-1,16
 466 821 466 821 552 821 c 256,17,18
 638 821 638 821 687 787 c 128,-1,19
 736 753 736 753 756 691 c 128,-1,20
 776 629 776 629 776 546 c 2,21,-1
 671 407 671 407 776 265 c 2,22,23
 776 182 776 182 756 119.5 c 128,-1,24
 736 57 736 57 687 22.5 c 128,-1,25
 638 -12 638 -12 552 -12 c 256,0,1
552 115 m 256,26,27
 579 115 579 115 591 129 c 128,-1,28
 603 143 603 143 606 165 c 128,-1,29
 609 187 609 187 609 210 c 2,30,-1
 569 406.5 569 406.5 609 600 c 2,31,32
 609 624 609 624 606 645.5 c 128,-1,33
 603 667 603 667 591 681 c 128,-1,34
 579 695 579 695 552 695 c 256,35,36
 526 695 526 695 513.5 681 c 128,-1,37
 501 667 501 667 498 645.5 c 128,-1,38
 495 624 495 624 495 600 c 2,39,-1
 362 406.5 362 406.5 495 210 c 2,40,41
 495 187 495 187 498 165 c 128,-1,42
 501 143 501 143 513.5 129 c 128,-1,43
 526 115 526 115 552 115 c 256,26,27
EndSplineSet
EndChar

StartChar: Yacy
Encoding: 207 1071 496
Width: 606
GlyphClass: 1
Flags: W
LayerCount: 2
Fore
SplineSet
10 0 m 1,0,-1
 98 182 98 182 164 360 c 1,1,2
 118 388 118 388 88.5 442 c 128,-1,3
 59 496 59 496 59 568 c 0,4,5
 59 662 59 662 92 714.5 c 128,-1,6
 125 767 125 767 186.5 788.5 c 128,-1,7
 248 810 248 810 334 810 c 2,8,-1
 400 810 400 810 542 810 c 1,9,-1
 482 405 482 405 542 0 c 1,10,-1
 425.5 0 425.5 0 364 0 c 1,11,-1
 369 168 369 168 364 320 c 1,12,-1
 337 336 337 336 332 320 c 2,13,14
 331 320 331 320 327 320 c 128,-1,15
 323 320 323 320 321 320 c 2,16,-1
 209 168.5 209 168.5 203 0 c 1,17,-1
 76 0 76 0 10 0 c 1,0,-1
338 446 m 2,18,-1
 348 417 348 417 364 446 c 1,19,-1
 369 573 369 573 364 687 c 1,20,-1
 346.5 729 346.5 729 336 687 c 2,21,22
 281 687 281 687 253.5 656.5 c 128,-1,23
 226 626 226 626 226 567 c 0,24,25
 226 515 226 515 250 480.5 c 128,-1,26
 274 446 274 446 338 446 c 2,18,-1
EndSplineSet
EndChar

StartChar: uni0402
Encoding: 162 1026 497
Width: 671
GlyphClass: 1
Flags: W
LayerCount: 2
Fore
SplineSet
443 -9 m 0,0,1
 413 -9 413 -9 403 -7.5 c 128,-1,2
 393 -6 393 -6 384 -5 c 1,3,-1
 386 34.5 386 34.5 384 96 c 1,4,5
 389 96 389 96 393.5 96 c 128,-1,6
 398 96 398 96 402 96 c 0,7,8
 420 99 420 99 431 107.5 c 128,-1,9
 442 116 442 116 447 130 c 128,-1,10
 452 144 452 144 452 162 c 2,11,-1
 472 217.5 472 217.5 452 291 c 2,12,13
 452 333 452 333 437 354 c 128,-1,14
 422 375 422 375 382 375 c 0,15,16
 363 375 363 375 344 369.5 c 128,-1,17
 325 364 325 364 308 353 c 1,18,-1
 262 175.5 262 175.5 308 0 c 1,19,-1
 205.5 0 205.5 0 130 0 c 1,20,-1
 149 363 149 363 130 685 c 1,21,-1
 81 726 81 726 8 685 c 1,22,-1
 13 768 13 768 8 810 c 1,23,-1
 205.5 810 205.5 810 430 810 c 1,24,-1
 398 768 398 768 430 685 c 1,25,-1
 330 726 330 726 308 685 c 1,26,-1
 262 570 262 570 308 443 c 1,27,28
 340 462 340 462 373 471.5 c 128,-1,29
 406 481 406 481 443 481 c 0,30,31
 497 481 497 481 539 461.5 c 128,-1,32
 581 442 581 442 605 400 c 128,-1,33
 629 358 629 358 629 290 c 2,34,-1
 585 215.5 585 215.5 629 155 c 2,35,36
 629 110 629 110 609.5 73 c 128,-1,37
 590 36 590 36 549 13.5 c 128,-1,38
 508 -9 508 -9 443 -9 c 0,0,1
EndSplineSet
EndChar

StartChar: uni0462
Encoding: 656 1122 498
Width: 588
GlyphClass: 1
Flags: W
LayerCount: 2
Fore
SplineSet
95 0 m 1,0,-1
 73 405 73 405 95 810 c 1,1,-1
 129.5 810 129.5 810 274 810 c 1,2,-1
 186 641.5 186 641.5 274 468 c 1,3,-1
 202 473 202 473 314 468 c 2,4,5
 386 468 386 468 439.5 443 c 128,-1,6
 493 418 493 418 523 366.5 c 128,-1,7
 553 315 553 315 553 234 c 0,8,9
 553 160 553 160 533.5 114 c 128,-1,10
 514 68 514 68 479 43 c 128,-1,11
 444 18 444 18 397.5 9 c 128,-1,12
 351 0 351 0 297 0 c 2,13,-1
 148 0 148 0 95 0 c 1,0,-1
274 117 m 1,14,-1
 204.5 81 204.5 81 298 117 c 2,15,16
 332 117 332 117 352 130 c 128,-1,17
 372 143 372 143 380.5 170 c 128,-1,18
 389 197 389 197 387 238 c 0,19,20
 387 283 387 283 369 313.5 c 128,-1,21
 351 344 351 344 296 344 c 2,22,-1
 203.5 391 203.5 391 274 344 c 1,23,-1
 186 236 186 236 274 117 c 1,14,-1
6 567 m 1,24,-1
 -10 625 -10 625 6 678 c 1,25,-1
 168.5 665 168.5 665 407 678 c 1,26,-1
 347 625 347 625 407 567 c 1,27,-1
 168.5 585 168.5 585 6 567 c 1,24,-1
EndSplineSet
EndChar

StartChar: uni046A
Encoding: 657 1130 499
Width: 759
GlyphClass: 1
Flags: W
LayerCount: 2
Fore
SplineSet
6 0 m 1,0,-1
 118.5 262.5 118.5 262.5 238 530 c 1,1,-1
 277.5 505 277.5 505 377 425 c 1,2,-1
 366 515 366 515 519 534 c 1,3,-1
 531 272.5 531 272.5 754 0 c 1,4,-1
 597 0 597 0 595 0 c 1,5,-1
 463 202.5 463 202.5 458 375 c 1,6,-1
 380 405 380 405 450 375 c 1,7,-1
 376 202.5 376 202.5 450 0 c 1,8,-1
 328 0 328 0 309 0 c 1,9,-1
 280 202.5 280 202.5 309 375 c 1,10,-1
 276.5 405 276.5 405 302 375 c 1,11,-1
 193.5 202.5 193.5 202.5 164 0 c 1,12,-1
 59 0 59 0 6 0 c 1,0,-1
286 410 m 1,13,-1
 167.5 626 167.5 626 80 810 c 1,14,-1
 325.5 810 325.5 810 672 810 c 1,15,-1
 486 626 486 626 474 410 c 1,16,-1
 328 442 328 442 286 410 c 1,13,-1
361 453 m 1,17,-1
 385.5 639 385.5 639 479 732 c 1,18,-1
 470 753 470 753 515 699 c 1,19,-1
 326 725 326 725 239 699 c 1,20,-1
 181 752.5 181 752.5 274 731 c 1,21,-1
 267.5 638.5 267.5 638.5 400 453 c 1,22,-1
 328 497 328 497 361 453 c 1,17,-1
EndSplineSet
EndChar

StartChar: uni0474
Encoding: 659 1140 501
Width: 590
GlyphClass: 1
Flags: W
LayerCount: 2
Fore
SplineSet
168 0 m 1,0,-1
 113.5 405 113.5 405 22 810 c 1,1,-1
 76 810 76 810 175 810 c 1,2,-1
 193 511.5 193 511.5 262 260 c 1,3,-1
 291.5 379.5 291.5 379.5 311 585 c 2,4,5
 322 661 322 661 345 716 c 128,-1,6
 368 771 368 771 409.5 800.5 c 128,-1,7
 451 830 451 830 517 830 c 0,8,9
 528 830 528 830 539 829 c 128,-1,10
 550 828 550 828 563 826 c 1,11,-1
 544.5 783.5 544.5 783.5 554 722 c 1,12,13
 533 722 533 722 519 713 c 128,-1,14
 505 704 505 704 494 680 c 128,-1,15
 483 656 483 656 472.5 613.5 c 128,-1,16
 462 571 462 571 450 505 c 2,17,-1
 362 267.5 362 267.5 357 0 c 1,18,-1
 253.5 0 253.5 0 168 0 c 1,0,-1
EndSplineSet
EndChar

StartChar: uni0496
Encoding: 660 1174 502
Width: 844
GlyphClass: 1
Flags: W
LayerCount: 2
Fore
SplineSet
6 0 m 1,0,-1
 98 207 98 207 176 407 c 1,1,-1
 107.5 612 107.5 612 10 810 c 1,2,-1
 77.5 810 77.5 810 177 810 c 1,3,-1
 208 614.5 208 614.5 318 431 c 1,4,-1
 287 419 287 419 326 431 c 1,5,-1
 290 614.5 290 614.5 326 810 c 1,6,-1
 338 810 338 810 468 810 c 1,7,-1
 386 614.5 386 614.5 468 431 c 1,8,-1
 389.5 419 389.5 419 477 431 c 1,9,-1
 468.5 614.5 468.5 614.5 618 810 c 1,10,-1
 599 810 599 810 785 810 c 1,11,-1
 569 612 569 612 619 407 c 1,12,-1
 578.5 207 578.5 207 789 0 c 1,13,-1
 617.5 0 617.5 0 629 0 c 1,14,-1
 478 202.5 478 202.5 477 393 c 1,15,-1
 390 405 390 405 468 393 c 1,16,-1
 386 202.5 386 202.5 468 0 c 1,17,-1
 338 0 338 0 326 0 c 1,18,-1
 290 202.5 290 202.5 326 393 c 1,19,-1
 286.5 405 286.5 405 318 393 c 1,20,-1
 198.5 202.5 198.5 202.5 166 0 c 1,21,-1
 59 0 59 0 6 0 c 1,0,-1
703 -160 m 1,22,-1
 598 -33 598 -33 679 121 c 1,23,-1
 642 81 642 81 818 121 c 1,24,-1
 693 -33 693 -33 818 -160 c 1,25,-1
 649 -147 649 -147 703 -160 c 1,22,-1
642 121 m 1,26,-1
 613.5 81 613.5 81 790 121 c 1,27,-1
 644 40.5 644 40.5 790 0 c 1,28,-1
 613.5 0 613.5 0 642 0 c 1,29,-1
 583 40.5 583 40.5 642 121 c 1,26,-1
EndSplineSet
EndChar

StartChar: uni0498
Encoding: 661 1176 503
Width: 526
GlyphClass: 1
Flags: W
LayerCount: 2
Fore
SplineSet
266 -15 m 0,0,1
 181 -15 181 -15 132.5 17 c 128,-1,2
 84 49 84 49 63.5 106.5 c 128,-1,3
 43 164 43 164 43 239 c 2,4,-1
 42 212.5 42 212.5 43 268 c 1,5,-1
 95 226 95 226 211 268 c 1,6,7
 211 266 211 266 211 256 c 128,-1,8
 211 246 211 246 211 237 c 0,9,10
 211 177 211 177 223 151.5 c 128,-1,11
 235 126 235 126 269 126 c 0,12,13
 292 126 292 126 303.5 138 c 128,-1,14
 315 150 315 150 319.5 173.5 c 128,-1,15
 324 197 324 197 324 233 c 0,16,17
 324 294 324 294 306 325.5 c 128,-1,18
 288 357 288 357 231 358 c 0,19,20
 230 359 230 359 222.5 359 c 128,-1,21
 215 359 215 359 205 359 c 128,-1,22
 195 359 195 359 186 359 c 1,23,-1
 168 424 168 424 186 468 c 1,24,25
 193 468 193 468 200 468 c 128,-1,26
 207 468 207 468 214 468 c 128,-1,27
 221 468 221 468 227 468 c 0,28,29
 286 469 286 469 305 500 c 128,-1,30
 324 531 324 531 324 592 c 0,31,32
 324 639 324 639 309.5 664 c 128,-1,33
 295 689 295 689 261 689 c 0,34,35
 228 689 228 689 215.5 662.5 c 128,-1,36
 203 636 203 636 202 592 c 0,37,38
 202 590 202 590 202 575.5 c 128,-1,39
 202 561 202 561 202 547 c 1,40,-1
 78.5 583 78.5 583 34 547 c 1,41,-1
 25 596.5 25 596.5 34 596 c 2,42,43
 34 669 34 669 62.5 719.5 c 128,-1,44
 91 770 91 770 142 796 c 128,-1,45
 193 822 193 822 262 822 c 0,46,47
 333 822 333 822 383.5 797 c 128,-1,48
 434 772 434 772 461 723.5 c 128,-1,49
 488 675 488 675 488 603 c 0,50,51
 488 532 488 532 459 483.5 c 128,-1,52
 430 435 430 435 389 424 c 1,53,54
 417 413 417 413 439.5 391.5 c 128,-1,55
 462 370 462 370 475 333 c 128,-1,56
 488 296 488 296 488 238 c 0,57,58
 488 164 488 164 466.5 106.5 c 128,-1,59
 445 49 445 49 396 17 c 128,-1,60
 347 -15 347 -15 266 -15 c 0,0,1
210 -160 m 1,61,-1
 195.5 -49 195.5 -49 197 83 c 1,62,-1
 241.5 49 241.5 49 337 83 c 1,63,-1
 287 -49 287 -49 323 -160 c 1,64,-1
 241 -147 241 -147 210 -160 c 1,61,-1
EndSplineSet
EndChar

StartChar: uni049A
Encoding: 662 1178 504
Width: 600
GlyphClass: 1
Flags: W
LayerCount: 2
Fore
SplineSet
60 0 m 1,0,-1
 63 405 63 405 60 810 c 1,1,-1
 119.5 810 119.5 810 239 810 c 1,2,-1
 176 619 176 619 239 479 c 1,3,-1
 269 619 269 619 375 810 c 1,4,-1
 414.5 810 414.5 810 550 810 c 1,5,-1
 387 631.5 387 631.5 400 444 c 1,6,-1
 400 226.5 400 226.5 557 0 c 1,7,-1
 438 0 438 0 375 0 c 1,8,-1
 305.5 190 305.5 190 258 358 c 1,9,-1
 202 333 202 333 239 326 c 1,10,-1
 176 143 176 143 239 0 c 1,11,-1
 119.5 0 119.5 0 60 0 c 1,0,-1
474 -175 m 1,12,-1
 421 -33 421 -33 449 121 c 1,13,-1
 465.5 81 465.5 81 588 121 c 1,14,-1
 517 -33 517 -33 588 -175 c 1,15,-1
 472.5 -147 472.5 -147 474 -175 c 1,12,-1
402 121 m 1,16,-1
 430.5 81 430.5 81 550 121 c 1,17,-1
 461 40.5 461 40.5 550 0 c 1,18,-1
 430.5 0 430.5 0 402 0 c 1,19,-1
 400 40.5 400 40.5 402 121 c 1,16,-1
EndSplineSet
EndChar

StartChar: uni049C
Encoding: 663 1180 505
Width: 701
GlyphClass: 1
Flags: W
LayerCount: 2
Fore
SplineSet
63 0 m 1,0,-1
 63 810 l 1,1,-1
 242 810 l 1,2,-1
 176 630 176 630 242 489 c 1,3,-1
 246 450 246 450 389 489 c 1,4,-1
 388.5 630 388.5 630 508 810 c 1,5,-1
 517.5 810 517.5 810 686 810 c 1,6,-1
 494 617.5 494 617.5 538 430 c 1,7,-1
 504 212.5 504 212.5 691 0 c 1,8,-1
 537.5 0 537.5 0 507 0 c 1,9,-1
 399 197.5 399 197.5 389 353 c 1,10,-1
 246.5 395 246.5 395 242 353 c 1,11,-1
 176 197.5 176 197.5 242 0 c 1,12,-1
 63 0 l 1,0,-1
360 201 m 1,13,-1
 249 236 249 236 272 201 c 1,14,-1
 209 407 209 407 272 602 c 1,15,-1
 249 578 249 578 360 602 c 1,16,-1
 289 407 289 407 360 201 c 1,13,-1
EndSplineSet
EndChar

StartChar: uni049E
Encoding: 664 1182 506
Width: 580
GlyphClass: 1
Flags: W
LayerCount: 2
Fore
SplineSet
0 646 m 1,0,-1
 -16 686 -16 686 0 746 c 1,1,-1
 123 726 123 726 304 746 c 1,2,-1
 262 686 262 686 304 646 c 1,3,-1
 123 646 123 646 0 646 c 1,0,-1
63 0 m 1,4,-1
 63 810 l 1,5,-1
 242 810 l 1,6,-1
 176 630 176 630 242 489 c 1,7,-1
 197 450 197 450 268 489 c 1,8,-1
 290.5 630 290.5 630 387 810 c 1,9,-1
 419.5 810 419.5 810 564 810 c 1,10,-1
 396 617.5 396 617.5 417 430 c 1,11,-1
 406 212.5 406 212.5 570 0 c 1,12,-1
 439.5 0 439.5 0 386 0 c 1,13,-1
 301 197.5 301 197.5 268 353 c 1,14,-1
 197.5 395 197.5 395 242 353 c 1,15,-1
 176 197.5 176 197.5 242 0 c 1,16,-1
 63 0 l 1,4,-1
EndSplineSet
EndChar

StartChar: uni04A0
Encoding: 665 1184 507
Width: 644
GlyphClass: 1
Flags: W
LayerCount: 2
Fore
SplineSet
134 0 m 1,0,-1
 152 405 152 405 134 810 c 1,1,-1
 208.5 810 208.5 810 313 810 c 1,2,-1
 265 630 265 630 313 489 c 1,3,-1
 286 450 286 450 331 489 c 1,4,-1
 379.5 630 379.5 630 450 810 c 1,5,-1
 508.5 810 508.5 810 628 810 c 1,6,-1
 485 617.5 485 617.5 480 430 c 1,7,-1
 495 212.5 495 212.5 633 0 c 1,8,-1
 528.5 0 528.5 0 450 0 c 1,9,-1
 390 197.5 390 197.5 331 353 c 1,10,-1
 286.5 395 286.5 395 313 353 c 1,11,-1
 265 197.5 265 197.5 313 0 c 1,12,-1
 208.5 0 208.5 0 134 0 c 1,0,-1
12 677 m 1,13,-1
 21 768 21 768 12 810 c 1,14,-1
 143 810 143 810 313 810 c 1,15,-1
 265 768 265 768 313 677 c 1,16,-1
 143 726 143 726 12 677 c 1,13,-1
EndSplineSet
EndChar

StartChar: uni04A2
Encoding: 666 1186 508
Width: 585
GlyphClass: 1
Flags: W
LayerCount: 2
Fore
SplineSet
63 0 m 1,0,-1
 63 810 l 1,1,-1
 176 810 l 1,2,-1
 242 482 l 1,3,-1
 384 460 l 1,4,-1
 367 810 l 1,5,-1
 497 810 l 1,6,-1
 547 0 l 1,7,-1
 384 0 l 1,8,-1
 367 354 l 1,9,-1
 176 379 l 1,10,-1
 242 0 l 1,11,-1
 63 0 l 1,0,-1
515 -160 m 1,12,-1
 491 121 l 1,13,-1
 574 81 l 1,14,-1
 629 -160 l 1,15,-1
 515 -160 l 1,12,-1
448 81 m 1,16,-1
 573 121 l 1,17,-1
 509 0 l 1,18,-1
 425 0 l 1,19,-1
 448 81 l 1,16,-1
EndSplineSet
EndChar

StartChar: EnGecy
Encoding: 667 1188 509
Width: 706
GlyphClass: 1
Flags: W
LayerCount: 2
Fore
SplineSet
63 0 m 1,0,-1
 63 810 l 1,1,-1
 176 810 l 1,2,-1
 242 482 l 1,3,-1
 384 460 l 1,4,-1
 367 810 l 1,5,-1
 497 810 l 1,6,-1
 547 0 l 1,7,-1
 384 0 l 1,8,-1
 367 354 l 1,9,-1
 176 379 l 1,10,-1
 242 0 l 1,11,-1
 63 0 l 1,0,-1
383 0 m 1,12,-1
 368 810 l 1,13,-1
 691 810 l 1,14,-1
 742 677 l 1,15,-1
 496 726 l 1,16,-1
 546 0 l 1,17,-1
 383 0 l 1,12,-1
EndSplineSet
EndChar

StartChar: uni04A6
Encoding: 668 1190 510
Width: 909
GlyphClass: 1
Flags: W
LayerCount: 2
Fore
SplineSet
682 -166 m 0,0,1
 663 -166 663 -166 651.5 -165.5 c 128,-1,2
 640 -165 640 -165 633 -164 c 128,-1,3
 626 -163 626 -163 619 -162 c 1,4,-1
 614 -102.5 614 -102.5 619 -61 c 1,5,6
 627 -61 627 -61 633.5 -60 c 128,-1,7
 640 -59 640 -59 647 -58 c 0,8,9
 662 -54 662 -54 672 -46 c 128,-1,10
 682 -38 682 -38 687 -24.5 c 128,-1,11
 692 -11 692 -11 692 7 c 2,12,-1
 718 155 718 155 692 291 c 2,13,14
 692 334 692 334 675.5 354.5 c 128,-1,15
 659 375 659 375 618 375 c 0,16,17
 602 375 602 375 584.5 369.5 c 128,-1,18
 567 364 567 364 549 353 c 1,19,-1
 509 175.5 509 175.5 549 0 c 1,20,-1
 452.5 0 452.5 0 371 0 c 1,21,-1
 396 364.5 396 364.5 371 682 c 1,22,-1
 286 729 286 729 239 682 c 1,23,-1
 176 364.5 176 364.5 239 0 c 1,24,-1
 63 0 l 1,25,-1
 63 810 l 1,26,-1
 549 810 l 1,27,-1
 509 612.5 509 612.5 549 444 c 1,28,29
 576 462 576 462 611 471.5 c 128,-1,30
 646 481 646 481 681 481 c 0,31,32
 737 481 737 481 779 461.5 c 128,-1,33
 821 442 821 442 845 400 c 128,-1,34
 869 358 869 358 869 290 c 2,35,-1
 831 159 831 159 869 4 c 2,36,37
 869 -44 869 -44 849.5 -82.5 c 128,-1,38
 830 -121 830 -121 788.5 -143.5 c 128,-1,39
 747 -166 747 -166 682 -166 c 0,0,1
EndSplineSet
EndChar

StartChar: uni0524
Encoding: 669 1316 511
Width: 582
GlyphClass: 1
Flags: W
LayerCount: 2
Fore
SplineSet
63 0 m 1,0,-1
 60 810 l 1,1,-1
 509 810 l 1,2,-1
 545 0 l 1,3,-1
 396 0 l 1,4,-1
 369 682 l 1,5,-1
 176 729 l 1,6,-1
 236 0 l 1,7,-1
 63 0 l 1,0,-1
514 -160 m 1,8,-1
 489 121 l 1,9,-1
 586 81 l 1,10,-1
 628 -160 l 1,11,-1
 514 -160 l 1,8,-1
448 81 m 1,12,-1
 573 121 l 1,13,-1
 509 0 l 1,14,-1
 425 0 l 1,15,-1
 448 81 l 1,12,-1
EndSplineSet
EndChar

StartChar: uni04A8
Encoding: 670 1192 512
Width: 825
GlyphClass: 1
Flags: W
LayerCount: 2
Fore
SplineSet
798 6 m 1,0,1
 782 0 782 0 756.5 -5.5 c 128,-1,2
 731 -11 731 -11 694 -11 c 0,3,4
 617 -11 617 -11 552 18.5 c 128,-1,5
 487 48 487 48 438.5 98 c 128,-1,6
 390 148 390 148 363.5 211.5 c 128,-1,7
 337 275 337 275 337 343 c 2,8,-1
 298 416 298 416 337 593 c 2,9,10
 337 658 337 658 357 709.5 c 128,-1,11
 377 761 377 761 423.5 791 c 128,-1,12
 470 821 470 821 547 821 c 0,13,14
 621 821 621 821 670 793 c 128,-1,15
 719 765 719 765 743.5 714 c 128,-1,16
 768 663 768 663 768 592 c 2,17,-1
 647 417.5 647 417.5 768 343 c 2,18,19
 768 283 768 283 746 220.5 c 128,-1,20
 724 158 724 158 677 105 c 128,-1,21
 630 52 630 52 555 20 c 128,-1,22
 480 -12 480 -12 373 -12 c 0,23,24
 283 -12 283 -12 221 11 c 128,-1,25
 159 34 159 34 122 75 c 128,-1,26
 85 116 85 116 68 171.5 c 128,-1,27
 51 227 51 227 51 291 c 2,28,-1
 60 420 60 420 51 554 c 2,29,30
 51 635 51 635 79.5 695 c 128,-1,31
 108 755 108 755 166.5 788 c 128,-1,32
 225 821 225 821 314 821 c 1,33,-1
 274 769 274 769 314 691 c 1,34,35
 282 691 282 691 262.5 675 c 128,-1,36
 243 659 243 659 235 626.5 c 128,-1,37
 227 594 227 594 227 545 c 2,38,-1
 174 420 174 420 227 300 c 2,39,40
 227 231 227 231 246 190 c 128,-1,41
 265 149 265 149 301.5 131 c 128,-1,42
 338 113 338 113 392 113 c 0,43,44
 452 113 452 113 493 129 c 128,-1,45
 534 145 534 145 558 175 c 128,-1,46
 582 205 582 205 593 246.5 c 128,-1,47
 604 288 604 288 604 340 c 2,48,-1
 537 416 537 416 604 593 c 2,49,50
 604 631 604 631 599.5 653.5 c 128,-1,51
 595 676 595 676 584.5 685.5 c 128,-1,52
 574 695 574 695 555 695 c 0,53,54
 531 695 531 695 519.5 681.5 c 128,-1,55
 508 668 508 668 505 645 c 128,-1,56
 502 622 502 622 502 593 c 2,57,-1
 408 415.5 408 415.5 502 341 c 2,58,59
 502 280 502 280 517.5 236.5 c 128,-1,60
 533 193 533 193 561 166 c 128,-1,61
 589 139 589 139 628 126.5 c 128,-1,62
 667 114 667 114 714 114 c 0,63,64
 738 114 738 114 761 116 c 128,-1,65
 784 118 784 118 798 122 c 1,66,-1
 676 45 676 45 798 6 c 1,0,1
EndSplineSet
EndChar

StartChar: uni04AA
Encoding: 671 1194 513
Width: 563
GlyphClass: 1
Flags: W
LayerCount: 2
Fore
SplineSet
292 -12 m 0,0,1
 200 -12 200 -12 146.5 21.5 c 128,-1,2
 93 55 93 55 71 115.5 c 128,-1,3
 49 176 49 176 49 258 c 2,4,-1
 48 403 48 403 49 550 c 2,5,6
 49 634 49 634 71 694.5 c 128,-1,7
 93 755 93 755 146.5 788 c 128,-1,8
 200 821 200 821 292 821 c 0,9,10
 382 821 382 821 432.5 791.5 c 128,-1,11
 483 762 483 762 504 709 c 128,-1,12
 525 656 525 656 525 587 c 2,13,-1
 470 552 470 552 525 517 c 1,14,-1
 416.5 520 416.5 520 350 517 c 1,15,-1
 363 548.5 363 548.5 350 598 c 2,16,17
 350 622 350 622 347.5 644 c 128,-1,18
 345 666 345 666 333 680.5 c 128,-1,19
 321 695 321 695 292 695 c 0,20,21
 264 695 264 695 250.5 680 c 128,-1,22
 237 665 237 665 233.5 642.5 c 128,-1,23
 230 620 230 620 230 595 c 2,24,-1
 162 402.5 162 402.5 230 214 c 2,25,26
 230 187 230 187 234.5 164.5 c 128,-1,27
 239 142 239 142 252.5 128.5 c 128,-1,28
 266 115 266 115 292 115 c 0,29,30
 320 115 320 115 332 129.5 c 128,-1,31
 344 144 344 144 347 167 c 128,-1,32
 350 190 350 190 350 214 c 2,33,-1
 363 271 363 271 350 299 c 1,34,-1
 416.5 301 416.5 301 525 299 c 1,35,-1
 470 271 470 271 525 229 c 2,36,37
 525 160 525 160 504.5 105.5 c 128,-1,38
 484 51 484 51 433.5 19.5 c 128,-1,39
 383 -12 383 -12 292 -12 c 0,0,1
228 -160 m 1,40,-1
 212.5 -49 212.5 -49 221 83 c 1,41,-1
 258.5 49 258.5 49 350 83 c 1,42,-1
 304 -49 304 -49 341 -160 c 1,43,-1
 258 -147 258 -147 228 -160 c 1,40,-1
EndSplineSet
EndChar

StartChar: uni04AC
Encoding: 672 1196 514
Width: 413
GlyphClass: 1
Flags: W
LayerCount: 2
Fore
SplineSet
152 0 m 1,0,-1
 133 677 l 1,1,-1
 15 726 l 1,2,-1
 11 810 l 1,3,-1
 398 810 l 1,4,-1
 434 677 l 1,5,-1
 265 726 l 1,6,-1
 313 0 l 1,7,-1
 152 0 l 1,0,-1
282 -160 m 1,8,-1
 257 121 l 1,9,-1
 342 81 l 1,10,-1
 395 -160 l 1,11,-1
 282 -160 l 1,8,-1
206 81 m 1,12,-1
 341 121 l 1,13,-1
 267 0 l 1,14,-1
 193 0 l 1,15,-1
 206 81 l 1,12,-1
EndSplineSet
EndChar

StartChar: uni04B0
Encoding: 674 1200 516
Width: 502
GlyphClass: 1
Flags: W
LayerCount: 2
Fore
SplineSet
26 275 m 1,0,-1
 45 295.5 45 295.5 26 385 c 1,1,-1
 241 334 241 334 484 385 c 1,2,-1
 437 295.5 437 295.5 484 275 c 1,3,-1
 241 257 241 257 26 275 c 1,0,-1
169 0 m 1,4,-1
 187 143 187 143 169 331 c 1,5,-1
 99.5 548 99.5 548 15 810 c 1,6,-1
 64.5 810 64.5 810 184 810 c 1,7,-1
 179 614.5 179 614.5 261 554 c 1,8,-1
 302 614.5 302 614.5 330 810 c 1,9,-1
 416 810 416 810 492 810 c 1,10,-1
 382 548 382 548 341 331 c 1,11,-1
 295 143 295 143 341 0 c 1,12,-1
 241 0 241 0 169 0 c 1,4,-1
EndSplineSet
EndChar

StartChar: uni04B2
Encoding: 675 1202 517
Width: 548
GlyphClass: 1
Flags: W
LayerCount: 2
Fore
SplineSet
7 0 m 1,0,-1
 97.5 212 97.5 212 164 436 c 1,1,-1
 99 617 99 617 14 810 c 1,2,-1
 68.5 810 68.5 810 183 810 c 1,3,-1
 182.5 667 182.5 667 272 591 c 1,4,-1
 300 667 300 667 344 810 c 1,5,-1
 408.5 810 408.5 810 493 810 c 1,6,-1
 376 612.5 376 612.5 351 389 c 1,7,-1
 380 207.5 380 207.5 509 0 c 1,8,-1
 416.5 0 416.5 0 341 0 c 1,9,-1
 298 152.5 298 152.5 242 242 c 1,10,-1
 175 152.5 175 152.5 155 0 c 1,11,-1
 65.5 0 65.5 0 7 0 c 1,0,-1
417 -160 m 1,12,-1
 398 -33 398 -33 393 121 c 1,13,-1
 442 81 442 81 531 121 c 1,14,-1
 493 -33 493 -33 531 -160 c 1,15,-1
 449 -147 449 -147 417 -160 c 1,12,-1
349 121 m 1,16,-1
 401.5 81 401.5 81 497 121 c 1,17,-1
 432 40.5 432 40.5 497 0 c 1,18,-1
 401.5 0 401.5 0 349 0 c 1,19,-1
 371 40.5 371 40.5 349 121 c 1,16,-1
EndSplineSet
EndChar

StartChar: uni04B4
Encoding: 676 1204 518
Width: 721
GlyphClass: 1
Flags: W
LayerCount: 2
Fore
SplineSet
654 121 m 1,0,-1
 695 81 l 1,1,-1
 735 -160 l 1,2,-1
 622 -160 l 1,3,-1
 605 0 l 1,4,-1
 152 0 l 1,5,-1
 133 677 l 1,6,-1
 15 726 l 1,7,-1
 11 810 l 1,8,-1
 398 810 l 1,9,-1
 410 677 l 1,10,-1
 265 726 l 1,11,-1
 313 121 l 1,12,-1
 505 81 l 1,13,-1
 475 810 l 1,14,-1
 618 810 l 1,15,-1
 654 121 l 1,0,-1
EndSplineSet
EndChar

StartChar: uni04B6
Encoding: 677 1206 519
Width: 639
GlyphClass: 1
Flags: W
LayerCount: 2
Fore
SplineSet
367 0 m 1,0,-1
 373 187 373 187 367 333 c 1,1,2
 317 326 317 326 269 326 c 0,3,4
 211 326 211 326 159.5 348.5 c 128,-1,5
 108 371 108 371 76 414.5 c 128,-1,6
 44 458 44 458 44 521 c 2,7,-1
 49 678.5 49 678.5 44 810 c 1,8,-1
 106 810 106 810 223 810 c 1,9,-1
 163 678.5 163 678.5 223 522 c 2,10,11
 223 497 223 497 228.5 477.5 c 128,-1,12
 234 458 234 458 254.5 447 c 128,-1,13
 275 436 275 436 319 436 c 0,14,15
 330 436 330 436 342 437 c 128,-1,16
 354 438 354 438 367 440 c 1,17,-1
 373 627.5 373 627.5 367 810 c 1,18,-1
 430 810 430 810 546 810 c 1,19,-1
 487 405 487 405 546 0 c 1,20,-1
 430 0 430 0 367 0 c 1,0,-1
515 -160 m 1,21,-1
 469 -33 469 -33 490 121 c 1,22,-1
 513 81 513 81 628 121 c 1,23,-1
 564 -33 564 -33 628 -160 c 1,24,-1
 520 -147 520 -147 515 -160 c 1,21,-1
411 121 m 1,25,-1
 468.5 81 468.5 81 559 121 c 1,26,-1
 499 40.5 499 40.5 559 0 c 1,27,-1
 468.5 0 468.5 0 411 0 c 1,28,-1
 438 40.5 438 40.5 411 121 c 1,25,-1
EndSplineSet
EndChar

StartChar: uni04B8
Encoding: 678 1208 520
Width: 639
GlyphClass: 1
Flags: W
LayerCount: 2
Fore
SplineSet
352 201 m 1,0,-1
 278.5 236 278.5 236 265 201 c 1,1,-1
 239 407 239 407 265 578 c 1,2,-1
 278.5 578 278.5 578 352 578 c 1,3,-1
 318 407 318 407 352 201 c 1,0,-1
399 0 m 1,4,-1
 384 187 384 187 399 333 c 1,5,6
 371 329 371 329 343.5 327.5 c 128,-1,7
 316 326 316 326 291 326 c 0,8,9
 217 326 217 326 159 345.5 c 128,-1,10
 101 365 101 365 67.5 408 c 128,-1,11
 34 451 34 451 34 521 c 2,12,-1
 50 678.5 50 678.5 34 810 c 1,13,-1
 107 810 107 810 211 810 c 1,14,-1
 164 678.5 164 678.5 211 541 c 2,15,16
 211 507 211 507 218.5 483.5 c 128,-1,17
 226 460 226 460 255.5 448 c 128,-1,18
 285 436 285 436 349 436 c 0,19,20
 360 436 360 436 373 437 c 128,-1,21
 386 438 386 438 399 440 c 1,22,-1
 384 627.5 384 627.5 399 810 c 1,23,-1
 441 810 441 810 576 810 c 1,24,-1
 498 405 498 405 576 0 c 1,25,-1
 441 0 441 0 399 0 c 1,4,-1
EndSplineSet
EndChar

StartChar: uni04BA
Encoding: 679 1210 521
Width: 606
GlyphClass: 1
Flags: W
LayerCount: 2
Fore
SplineSet
239 810 m 1,0,-1
 177 623 177 623 239 475 c 1,1,2
 265 480 265 480 286 482 c 128,-1,3
 307 484 307 484 329 484 c 0,4,5
 436 484 436 484 499 432.5 c 128,-1,6
 562 381 562 381 562 276 c 2,7,-1
 501 131.5 501 131.5 562 0 c 1,8,-1
 444 0 444 0 383 0 c 1,9,-1
 387 131.5 387 131.5 383 237 c 2,10,11
 383 288 383 288 375 318 c 128,-1,12
 367 348 367 348 347.5 361 c 128,-1,13
 328 374 328 374 293 374 c 0,14,15
 282 374 282 374 267 372 c 128,-1,16
 252 370 252 370 239 367 c 1,17,-1
 177 182.5 177 182.5 239 0 c 1,18,-1
 120 0 120 0 60 0 c 1,19,-1
 63 405 63 405 60 810 c 1,20,-1
 120 810 120 810 239 810 c 1,0,-1
EndSplineSet
EndChar

StartChar: uni0526
Encoding: 680 1318 522
Width: 655
GlyphClass: 1
Flags: W
LayerCount: 2
Fore
SplineSet
240 810 m 1,0,-1
 177 623 177 623 240 477 c 1,1,2
 267 481 267 481 287.5 482.5 c 128,-1,3
 308 484 308 484 330 484 c 0,4,5
 437 484 437 484 500 434 c 128,-1,6
 563 384 563 384 563 289 c 2,7,-1
 501 131.5 501 131.5 563 0 c 1,8,-1
 444 0 444 0 384 0 c 1,9,-1
 387 131.5 387 131.5 384 288 c 2,10,11
 384 313 384 313 378.5 332.5 c 128,-1,12
 373 352 373 352 352.5 363 c 128,-1,13
 332 374 332 374 288 374 c 0,14,15
 277 374 277 374 265 373 c 128,-1,16
 253 372 253 372 240 370 c 1,17,-1
 177 182.5 177 182.5 240 0 c 1,18,-1
 120 0 120 0 61 0 c 1,19,-1
 63 405 63 405 61 810 c 1,20,-1
 120 810 120 810 240 810 c 1,0,-1
533 -160 m 1,21,-1
 483 -33 483 -33 507 121 c 1,22,-1
 527 81 527 81 646 121 c 1,23,-1
 578 -33 578 -33 646 -160 c 1,24,-1
 534 -147 534 -147 533 -160 c 1,21,-1
412 121 m 1,25,-1
 468.5 81 468.5 81 560 121 c 1,26,-1
 499 40.5 499 40.5 560 0 c 1,27,-1
 468.5 0 468.5 0 412 0 c 1,28,-1
 438 40.5 438 40.5 412 121 c 1,25,-1
EndSplineSet
EndChar

StartChar: uni04BC
Encoding: 681 1212 523
Width: 807
GlyphClass: 1
Flags: W
LayerCount: 2
Fore
SplineSet
517 -12 m 0,0,1
 443 -12 443 -12 388.5 18.5 c 128,-1,2
 334 49 334 49 304.5 106.5 c 128,-1,3
 275 164 275 164 275 245 c 2,4,-1
 208 401 208 401 275 565 c 2,5,6
 275 646 275 646 304.5 703 c 128,-1,7
 334 760 334 760 388.5 790.5 c 128,-1,8
 443 821 443 821 517 821 c 0,9,10
 596 821 596 821 650.5 792.5 c 128,-1,11
 705 764 705 764 734 709 c 128,-1,12
 763 654 763 654 763 573 c 2,13,-1
 651 470.5 651 470.5 763 388 c 1,14,-1
 486.5 387 486.5 387 458 388 c 1,15,-1
 322 305.5 322 305.5 458 202 c 2,16,17
 458 170 458 170 464.5 150.5 c 128,-1,18
 471 131 471 131 485 122.5 c 128,-1,19
 499 114 499 114 519 114 c 0,20,21
 539 114 539 114 552.5 122.5 c 128,-1,22
 566 131 566 131 573 150.5 c 128,-1,23
 580 170 580 170 580 202 c 2,24,-1
 537 259 537 259 580 318 c 1,25,-1
 594 294 594 294 763 318 c 1,26,-1
 651 270.5 651 270.5 763 235 c 2,27,28
 763 154 763 154 734 99 c 128,-1,29
 705 44 705 44 650 16 c 128,-1,30
 595 -12 595 -12 517 -12 c 0,0,1
285 388 m 2,31,32
 201 388 201 388 149 405 c 128,-1,33
 97 422 97 422 69 452.5 c 128,-1,34
 41 483 41 483 32 525 c 128,-1,35
 23 567 23 567 26 618 c 1,36,-1
 76.5 578 76.5 578 193 618 c 1,37,38
 189 580 189 580 196 552.5 c 128,-1,39
 203 525 203 525 224.5 510 c 128,-1,40
 246 495 246 495 285 495 c 2,41,-1
 226 476 226 476 316 495 c 1,42,-1
 234 431.5 234 431.5 316 388 c 1,43,-1
 224 387 224 387 285 388 c 2,31,32
458 495 m 1,44,-1
 429.5 476 429.5 476 580 495 c 1,45,-1
 537 527.5 537 527.5 580 607 c 2,46,47
 580 638 580 638 573.5 657.5 c 128,-1,48
 567 677 567 677 553 686 c 128,-1,49
 539 695 539 695 518 695 c 0,50,51
 498 695 498 695 484.5 686 c 128,-1,52
 471 677 471 677 464.5 657.5 c 128,-1,53
 458 638 458 638 458 607 c 2,54,-1
 322 527.5 322 527.5 458 495 c 1,44,-1
EndSplineSet
EndChar

StartChar: uni04BE
Encoding: 682 1214 524
Width: 805
GlyphClass: 1
Flags: W
LayerCount: 2
Fore
SplineSet
458 -160 m 1,0,-1
 370.5 -49 370.5 -49 451 83 c 1,1,-1
 416.5 49 416.5 49 580 83 c 1,2,-1
 462 -49 462 -49 571 -160 c 1,3,-1
 416 -147 416 -147 458 -160 c 1,0,-1
517 -12 m 0,4,5
 443 -12 443 -12 388.5 18.5 c 128,-1,6
 334 49 334 49 304.5 106.5 c 128,-1,7
 275 164 275 164 275 245 c 2,8,-1
 208 401 208 401 275 565 c 2,9,10
 275 646 275 646 304.5 703 c 128,-1,11
 334 760 334 760 388.5 790.5 c 128,-1,12
 443 821 443 821 517 821 c 0,13,14
 596 821 596 821 650.5 792.5 c 128,-1,15
 705 764 705 764 734 709 c 128,-1,16
 763 654 763 654 763 573 c 2,17,-1
 651 470.5 651 470.5 763 388 c 1,18,-1
 486.5 387 486.5 387 458 388 c 1,19,-1
 322 305.5 322 305.5 458 202 c 2,20,21
 458 170 458 170 464.5 150.5 c 128,-1,22
 471 131 471 131 485 122.5 c 128,-1,23
 499 114 499 114 519 114 c 0,24,25
 539 114 539 114 552.5 122.5 c 128,-1,26
 566 131 566 131 573 150.5 c 128,-1,27
 580 170 580 170 580 202 c 2,28,-1
 537 259 537 259 580 318 c 1,29,-1
 594 294 594 294 763 318 c 1,30,-1
 651 270.5 651 270.5 763 235 c 2,31,32
 763 154 763 154 734 99 c 128,-1,33
 705 44 705 44 650 16 c 128,-1,34
 595 -12 595 -12 517 -12 c 0,4,5
285 388 m 2,35,36
 201 388 201 388 149 405 c 128,-1,37
 97 422 97 422 69 452.5 c 128,-1,38
 41 483 41 483 32 525 c 128,-1,39
 23 567 23 567 26 618 c 1,40,-1
 76.5 578 76.5 578 193 618 c 1,41,42
 189 580 189 580 196 552.5 c 128,-1,43
 203 525 203 525 224.5 510 c 128,-1,44
 246 495 246 495 285 495 c 2,45,-1
 226 476 226 476 316 495 c 1,46,-1
 234 431.5 234 431.5 316 388 c 1,47,-1
 224 387 224 387 285 388 c 2,35,36
458 495 m 1,48,-1
 429.5 476 429.5 476 580 495 c 1,49,-1
 537 527.5 537 527.5 580 607 c 2,50,51
 580 638 580 638 573.5 657.5 c 128,-1,52
 567 677 567 677 553 686 c 128,-1,53
 539 695 539 695 518 695 c 0,54,55
 498 695 498 695 484.5 686 c 128,-1,56
 471 677 471 677 464.5 657.5 c 128,-1,57
 458 638 458 638 458 607 c 2,58,-1
 322 527.5 322 527.5 458 495 c 1,48,-1
561 894 m 1,59,-1
 450 986.5 450 986.5 561 1042 c 1,60,-1
 504 1042 504 1042 691 1042 c 1,61,-1
 558 986.5 558 986.5 691 894 c 1,62,-1
 504 931 504 931 561 894 c 1,59,-1
343 894 m 1,63,-1
 278 986.5 278 986.5 343 1042 c 1,64,-1
 332 1042 332 1042 473 1042 c 1,65,-1
 386 986.5 386 986.5 473 894 c 1,66,-1
 332 931 332 931 343 894 c 1,63,-1
EndSplineSet
EndChar

StartChar: uni04C3
Encoding: 685 1219 527
Width: 600
GlyphClass: 1
Flags: W
LayerCount: 2
Fore
SplineSet
352 -166 m 0,0,1
 322 -166 322 -166 312 -165 c 128,-1,2
 302 -164 302 -164 293 -162 c 1,3,-1
 267 -103.5 267 -103.5 293 -62 c 1,4,5
 301 -62 301 -62 307.5 -61 c 128,-1,6
 314 -60 314 -60 320 -58 c 0,7,8
 335 -54 335 -54 343.5 -46 c 128,-1,9
 352 -38 352 -38 356 -25 c 128,-1,10
 360 -12 360 -12 360 4 c 2,11,-1
 353 126 353 126 360 244 c 2,12,13
 360 287 360 287 345 311 c 128,-1,14
 330 335 330 335 306.5 345.5 c 128,-1,15
 283 356 283 356 257 356 c 2,16,-1
 190 395 190 395 242 356 c 1,17,-1
 176 197.5 176 197.5 242 0 c 1,18,-1
 63 0 l 1,19,-1
 63 810 l 1,20,-1
 242 810 l 1,21,-1
 176 630 176 630 242 489 c 1,22,-1
 197 450 197 450 260 489 c 1,23,-1
 290.5 630 290.5 630 379 810 c 1,24,-1
 419.5 810 419.5 810 557 810 c 1,25,-1
 396 617.5 396 617.5 409 430 c 1,26,27
 440 418 440 418 469.5 395 c 128,-1,28
 499 372 499 372 518 329.5 c 128,-1,29
 537 287 537 287 537 215 c 2,30,-1
 466 122.5 466 122.5 537 -2 c 2,31,32
 537 -47 537 -47 517.5 -84 c 128,-1,33
 498 -121 498 -121 457.5 -143.5 c 128,-1,34
 417 -166 417 -166 352 -166 c 0,0,1
EndSplineSet
EndChar

StartChar: uni04C5
Encoding: 686 1221 528
Width: 684
GlyphClass: 1
Flags: W
LayerCount: 2
Fore
SplineSet
7 0 m 1,0,-1
 2 42 2 42 7 126 c 1,1,2
 41 126 41 126 62 130.5 c 128,-1,3
 83 135 83 135 95 152 c 128,-1,4
 107 169 107 169 114 204 c 128,-1,5
 121 239 121 239 125.5 298 c 128,-1,6
 130 357 130 357 137 448 c 2,7,-1
 147.5 594.5 147.5 594.5 163 810 c 1,8,-1
 339 810 339 810 592 810 c 1,9,-1
 517 405 517 405 592 0 c 1,10,-1
 460.5 0 460.5 0 414 0 c 1,11,-1
 404 363 404 363 414 673 c 1,12,-1
 331 726 331 726 325 673 c 1,13,-1
 248.5 552.5 248.5 552.5 309 414 c 2,14,15
 302 314 302 314 295 241.5 c 128,-1,16
 288 169 288 169 272.5 120 c 128,-1,17
 257 71 257 71 226.5 43.5 c 128,-1,18
 196 16 196 16 143 6 c 128,-1,19
 90 -4 90 -4 7 0 c 1,0,-1
490 -160 m 1,20,-1
 478.5 -33 478.5 -33 535 121 c 1,21,-1
 547 81 547 81 675 121 c 1,22,-1
 570 -33 570 -33 608 -160 c 1,23,-1
 501.5 -147 501.5 -147 490 -160 c 1,20,-1
EndSplineSet
EndChar

StartChar: uni04C7
Encoding: 687 1223 529
Width: 610
GlyphClass: 1
Flags: W
LayerCount: 2
Fore
SplineSet
361 -166 m 0,0,1
 330 -166 330 -166 320 -165 c 128,-1,2
 310 -164 310 -164 301 -162 c 1,3,-1
 297 -103.5 297 -103.5 301 -62 c 1,4,5
 306 -62 306 -62 312 -61 c 128,-1,6
 318 -60 318 -60 322 -59 c 0,7,8
 339 -56 339 -56 348.5 -48 c 128,-1,9
 358 -40 358 -40 362.5 -26.5 c 128,-1,10
 367 -13 367 -13 367 4 c 2,11,-1
 384 197 384 197 367 354 c 1,12,-1
 280 379 280 379 242 354 c 1,13,-1
 176 189.5 176 189.5 242 0 c 1,14,-1
 63 0 l 1,15,-1
 63 810 l 1,16,-1
 242 810 l 1,17,-1
 176 635 176 635 242 482 c 1,18,-1
 280 460 280 460 367 482 c 1,19,-1
 384 635 384 635 367 810 c 1,20,-1
 440.5 810 440.5 810 547 810 c 1,21,-1
 497 409 497 409 547 -2 c 2,22,23
 547 -47 547 -47 527 -84 c 128,-1,24
 507 -121 507 -121 466 -143.5 c 128,-1,25
 425 -166 425 -166 361 -166 c 0,0,1
EndSplineSet
EndChar

StartChar: uni04C9
Encoding: 688 1225 530
Width: 639
GlyphClass: 1
Flags: W
LayerCount: 2
Fore
SplineSet
63 0 m 1,0,-1
 63 810 l 1,1,-1
 242 810 l 1,2,-1
 176 635 176 635 242 482 c 1,3,-1
 280 460 280 460 367 482 c 1,4,-1
 384 635 384 635 367 810 c 1,5,-1
 440.5 810 440.5 810 547 810 c 1,6,-1
 497 405 497 405 547 0 c 1,7,-1
 440.5 0 440.5 0 367 0 c 1,8,-1
 384 189.5 384 189.5 367 354 c 1,9,-1
 280 379 280 379 242 354 c 1,10,-1
 176 189.5 176 189.5 242 0 c 1,11,-1
 63 0 l 1,0,-1
445 -160 m 1,12,-1
 458.5 -33 458.5 -33 490 121 c 1,13,-1
 527 81 527 81 630 121 c 1,14,-1
 550 -33 550 -33 563 -160 c 1,15,-1
 481.5 -147 481.5 -147 445 -160 c 1,12,-1
EndSplineSet
EndChar

StartChar: uni04CB
Encoding: 689 1227 531
Width: 609
GlyphClass: 1
Flags: W
LayerCount: 2
Fore
SplineSet
367 0 m 1,0,-1
 373 187 373 187 367 333 c 1,1,2
 317 326 317 326 269 326 c 0,3,4
 211 326 211 326 159.5 348.5 c 128,-1,5
 108 371 108 371 76 414.5 c 128,-1,6
 44 458 44 458 44 521 c 2,7,-1
 49 678.5 49 678.5 44 810 c 1,8,-1
 106 810 106 810 223 810 c 1,9,-1
 163 678.5 163 678.5 223 522 c 2,10,11
 223 497 223 497 228.5 477.5 c 128,-1,12
 234 458 234 458 254.5 447 c 128,-1,13
 275 436 275 436 319 436 c 0,14,15
 330 436 330 436 342 437 c 128,-1,16
 354 438 354 438 367 440 c 1,17,-1
 373 627.5 373 627.5 367 810 c 1,18,-1
 430 810 430 810 546 810 c 1,19,-1
 487 405 487 405 546 0 c 1,20,-1
 430 0 430 0 367 0 c 1,0,-1
284 -160 m 1,21,-1
 296 -33 296 -33 284 121 c 1,22,-1
 347 81 347 81 423 121 c 1,23,-1
 391 -33 391 -33 398 -160 c 1,24,-1
 340 -147 340 -147 284 -160 c 1,21,-1
368 0 m 1,25,-1
 365 40.5 365 40.5 368 121 c 1,26,-1
 423 81 423 81 528 121 c 1,27,-1
 481 40.5 481 40.5 528 0 c 1,28,-1
 423 0 423 0 368 0 c 1,25,-1
EndSplineSet
EndChar

StartChar: uni04CD
Encoding: 690 1229 532
Width: 736
GlyphClass: 1
Flags: W
LayerCount: 2
Fore
SplineSet
57 0 m 1,0,-1
 68.5 405 68.5 405 71 810 c 1,1,-1
 131.5 810 131.5 810 263 810 c 1,2,-1
 258.5 481.5 258.5 481.5 352 339 c 1,3,-1
 402 481.5 402 481.5 448 810 c 1,4,-1
 529 810 529 810 633 810 c 1,5,-1
 591.5 405 591.5 405 647 0 c 1,6,-1
 553.5 0 553.5 0 520 0 c 1,7,-1
 503.5 294 503.5 294 505 539 c 1,8,-1
 430.5 294 430.5 294 411 0 c 1,9,-1
 298 0 l 1,10,-1
 198 543 l 1,11,-1
 157.5 294 157.5 294 186 0 c 1,12,-1
 107 0 107 0 57 0 c 1,0,-1
540 -160 m 1,13,-1
 559.5 -33 559.5 -33 585 121 c 1,14,-1
 628 81 628 81 725 121 c 1,15,-1
 651 -33 651 -33 658 -160 c 1,16,-1
 582.5 -147 582.5 -147 540 -160 c 1,13,-1
EndSplineSet
EndChar

StartChar: uni04E8
Encoding: 703 1256 545
Width: 586
GlyphClass: 1
Flags: W
LayerCount: 2
Fore
SplineSet
139 365 m 1,0,-1
 104 408.5 104 408.5 139 475 c 1,1,-1
 272.5 447 272.5 447 442 475 c 1,2,-1
 441 408.5 441 408.5 442 365 c 1,3,-1
 272.5 370 272.5 370 139 365 c 1,0,-1
292 -12 m 256,4,5
 201 -12 201 -12 148 20 c 128,-1,6
 95 52 95 52 72 112 c 128,-1,7
 49 172 49 172 49 255 c 2,8,-1
 48 407.5 48 407.5 49 556 c 2,9,10
 49 640 49 640 72 699 c 128,-1,11
 95 758 95 758 148 789.5 c 128,-1,12
 201 821 201 821 292 821 c 256,13,14
 384 821 384 821 437.5 789.5 c 128,-1,15
 491 758 491 758 514 699 c 128,-1,16
 537 640 537 640 537 556 c 2,17,-1
 491 407 491 407 537 255 c 2,18,19
 537 172 537 172 514 112 c 128,-1,20
 491 52 491 52 437.5 20 c 128,-1,21
 384 -12 384 -12 292 -12 c 256,4,5
292 115 m 256,22,23
 320 115 320 115 333 129 c 128,-1,24
 346 143 346 143 350 165 c 128,-1,25
 354 187 354 187 354 210 c 2,26,-1
 377 406.5 377 406.5 354 600 c 2,27,28
 354 624 354 624 350 645.5 c 128,-1,29
 346 667 346 667 333 681 c 128,-1,30
 320 695 320 695 292 695 c 256,31,32
 266 695 266 695 253 681 c 128,-1,33
 240 667 240 667 236 645.5 c 128,-1,34
 232 624 232 624 232 600 c 2,35,-1
 162 406.5 162 406.5 232 210 c 2,36,37
 232 187 232 187 235.5 165 c 128,-1,38
 239 143 239 143 251.5 129 c 128,-1,39
 264 115 264 115 292 115 c 256,22,23
EndSplineSet
EndChar

StartChar: uni04FA
Encoding: 711 1274 553
Width: 503
GlyphClass: 1
Flags: W
LayerCount: 2
Fore
SplineSet
101 0 m 1,0,-1
 81 405 81 405 101 810 c 1,1,-1
 237.5 810 237.5 810 478 810 c 1,2,-1
 394 769.5 394 769.5 478 689 c 1,3,-1
 294.5 729 294.5 729 280 689 c 1,4,-1
 195 364.5 195 364.5 280 0 c 1,5,-1
 138 0 138 0 101 0 c 1,0,-1
182 -166 m 0,6,7
 157 -166 157 -166 141.5 -164.5 c 128,-1,8
 126 -163 126 -163 116 -162 c 1,9,-1
 56 -103.5 56 -103.5 116 -61 c 1,10,11
 163 -61 163 -61 180 -46 c 128,-1,12
 197 -31 197 -31 197 0 c 2,13,-1
 143 38 143 38 197 103 c 1,14,-1
 200 76 200 76 369 103 c 1,15,-1
 257 38 257 38 369 0 c 2,16,17
 369 -74 369 -74 323 -120 c 128,-1,18
 277 -166 277 -166 182 -166 c 0,6,7
26 377 m 1,19,-1
 14 439 14 439 26 490 c 1,20,-1
 168.5 482 168.5 482 409 490 c 1,21,-1
 323 439 323 439 409 377 c 1,22,-1
 168.5 396 168.5 396 26 377 c 1,19,-1
EndSplineSet
EndChar

StartChar: uni04FC
Encoding: 712 1276 554
Width: 531
GlyphClass: 1
Flags: W
LayerCount: 2
Fore
SplineSet
326 -166 m 0,0,1
 294 -166 294 -166 279.5 -164.5 c 128,-1,2
 265 -163 265 -163 255 -162 c 1,3,-1
 284 -103.5 284 -103.5 255 -62 c 1,4,5
 261 -63 261 -63 267 -63 c 128,-1,6
 273 -63 273 -63 277 -63 c 0,7,8
 306 -63 306 -63 319 -52 c 128,-1,9
 332 -41 332 -41 335.5 -25 c 128,-1,10
 339 -9 339 -9 339 7 c 0,11,12
 339 24 339 24 329.5 53 c 128,-1,13
 320 82 320 82 305.5 117 c 128,-1,14
 291 152 291 152 275 186 c 128,-1,15
 259 220 259 220 246 247 c 1,16,-1
 177.5 157 177.5 157 155 0 c 1,17,-1
 65.5 0 65.5 0 7 0 c 1,18,-1
 97.5 212 97.5 212 164 436 c 1,19,-1
 99 617 99 617 14 810 c 1,20,-1
 68.5 810 68.5 810 183 810 c 1,21,-1
 182.5 667 182.5 667 272 591 c 1,22,-1
 300 667 300 667 344 810 c 1,23,-1
 408.5 810 408.5 810 493 810 c 1,24,-1
 376 612.5 376 612.5 351 389 c 1,25,26
 368 352 368 352 389 310.5 c 128,-1,27
 410 269 410 269 431 226 c 128,-1,28
 452 183 452 183 469 141.5 c 128,-1,29
 486 100 486 100 496.5 63 c 128,-1,30
 507 26 507 26 507 -3 c 0,31,32
 507 -47 507 -47 488 -84.5 c 128,-1,33
 469 -122 469 -122 429.5 -144 c 128,-1,34
 390 -166 390 -166 326 -166 c 0,0,1
EndSplineSet
EndChar

StartChar: uni04FE
Encoding: 713 1278 555
Width: 515
GlyphClass: 1
Flags: W
LayerCount: 2
Fore
SplineSet
36 373 m 1,0,-1
 55 433 55 433 36 485 c 1,1,-1
 238 476 238 476 482 485 c 1,2,-1
 421 433 421 433 482 373 c 1,3,-1
 238 390 238 390 36 373 c 1,0,-1
7 0 m 1,4,-1
 97.5 212 97.5 212 164 436 c 1,5,-1
 99 617 99 617 14 810 c 1,6,-1
 68.5 810 68.5 810 183 810 c 1,7,-1
 182.5 667 182.5 667 272 591 c 1,8,-1
 300 667 300 667 344 810 c 1,9,-1
 408.5 810 408.5 810 493 810 c 1,10,-1
 376 612.5 376 612.5 351 389 c 1,11,-1
 380 207.5 380 207.5 509 0 c 1,12,-1
 416.5 0 416.5 0 341 0 c 1,13,-1
 298 152.5 298 152.5 242 242 c 1,14,-1
 175 152.5 175 152.5 155 0 c 1,15,-1
 65.5 0 65.5 0 7 0 c 1,4,-1
EndSplineSet
EndChar

StartChar: uni0510
Encoding: 714 1296 556
Width: 526
GlyphClass: 1
Flags: W
LayerCount: 2
Fore
SplineSet
260 -15 m 0,0,1
 179 -15 179 -15 130.5 17 c 128,-1,2
 82 49 82 49 60 106.5 c 128,-1,3
 38 164 38 164 38 238 c 0,4,5
 38 296 38 296 51 333 c 128,-1,6
 64 370 64 370 86.5 391.5 c 128,-1,7
 109 413 109 413 137 424 c 1,8,9
 96 435 96 435 67 483.5 c 128,-1,10
 38 532 38 532 38 603 c 0,11,12
 38 675 38 675 65 723.5 c 128,-1,13
 92 772 92 772 143 797 c 128,-1,14
 194 822 194 822 264 822 c 256,15,16
 333 822 333 822 384.5 796 c 128,-1,17
 436 770 436 770 464 719.5 c 128,-1,18
 492 669 492 669 492 596 c 2,19,-1
 455 596.5 455 596.5 492 547 c 1,20,-1
 401.5 583 401.5 583 324 547 c 1,21,22
 324 561 324 561 324 575.5 c 128,-1,23
 324 590 324 590 324 592 c 0,24,25
 323 636 323 636 310.5 662.5 c 128,-1,26
 298 689 298 689 265 689 c 0,27,28
 231 689 231 689 216.5 664 c 128,-1,29
 202 639 202 639 202 592 c 0,30,31
 202 531 202 531 221.5 500 c 128,-1,32
 241 469 241 469 299 468 c 0,33,34
 306 468 306 468 313 468 c 128,-1,35
 320 468 320 468 327 468 c 128,-1,36
 334 468 334 468 340 468 c 1,37,-1
 312 424 312 424 340 359 c 1,38,39
 331 359 331 359 321 359 c 128,-1,40
 311 359 311 359 304 359 c 128,-1,41
 297 359 297 359 295 358 c 0,42,43
 238 357 238 357 220 325.5 c 128,-1,44
 202 294 202 294 202 233 c 0,45,46
 202 197 202 197 206.5 173.5 c 128,-1,47
 211 150 211 150 223 138 c 128,-1,48
 235 126 235 126 257 126 c 0,49,50
 291 126 291 126 303 151.5 c 128,-1,51
 315 177 315 177 315 237 c 0,52,53
 315 246 315 246 315 256 c 128,-1,54
 315 266 315 266 315 268 c 1,55,-1
 385 226 385 226 483 268 c 1,56,-1
 438 212.5 438 212.5 483 239 c 2,57,58
 483 164 483 164 462.5 106.5 c 128,-1,59
 442 49 442 49 393.5 17 c 128,-1,60
 345 -15 345 -15 260 -15 c 0,0,1
EndSplineSet
EndChar

StartChar: uni0512
Encoding: 715 1298 557
Width: 656
GlyphClass: 1
Flags: W
LayerCount: 2
Fore
SplineSet
405 -166 m 0,0,1
 386 -166 386 -166 370.5 -165 c 128,-1,2
 355 -164 355 -164 346 -162 c 1,3,-1
 317 -103.5 317 -103.5 346 -62 c 1,4,5
 354 -62 354 -62 361 -60.5 c 128,-1,6
 368 -59 368 -59 374 -57 c 0,7,8
 388 -53 388 -53 397 -45 c 128,-1,9
 406 -37 406 -37 410 -24.5 c 128,-1,10
 414 -12 414 -12 414 4 c 2,11,-1
 404 370.5 404 370.5 414 673 c 1,12,-1
 331 726 331 726 325 673 c 1,13,-1
 248.5 552.5 248.5 552.5 309 414 c 2,14,15
 303 323 303 323 295 253.5 c 128,-1,16
 287 184 287 184 273 135.5 c 128,-1,17
 259 87 259 87 234.5 56 c 128,-1,18
 210 25 210 25 169.5 11 c 128,-1,19
 129 -3 129 -3 69 -3 c 0,20,21
 55 -3 55 -3 39.5 -2 c 128,-1,22
 24 -1 24 -1 7 0 c 1,23,-1
 2 42 2 42 7 126 c 1,24,25
 37 126 37 126 57 130.5 c 128,-1,26
 77 135 77 135 90 152 c 128,-1,27
 103 169 103 169 111 204 c 128,-1,28
 119 239 119 239 124.5 298 c 128,-1,29
 130 357 130 357 137 448 c 2,30,-1
 147.5 594.5 147.5 594.5 163 810 c 1,31,-1
 339 810 339 810 592 810 c 1,32,-1
 517 409 517 409 592 -2 c 2,33,34
 592 -47 592 -47 572 -84 c 128,-1,35
 552 -121 552 -121 511 -143.5 c 128,-1,36
 470 -166 470 -166 405 -166 c 0,0,1
EndSplineSet
EndChar

StartChar: uni048C
Encoding: 717 1164 559
Width: 588
GlyphClass: 1
Flags: W
LayerCount: 2
Fore
SplineSet
95 0 m 1,0,-1
 70 405 70 405 95 810 c 1,1,-1
 126.5 810 126.5 810 274 810 c 1,2,-1
 183 641.5 183 641.5 274 468 c 1,3,-1
 199 473 199 473 313 468 c 2,4,5
 390 468 390 468 443 443 c 128,-1,6
 496 418 496 418 524 366.5 c 128,-1,7
 552 315 552 315 552 234 c 0,8,9
 552 160 552 160 532.5 114 c 128,-1,10
 513 68 513 68 478 43 c 128,-1,11
 443 18 443 18 396.5 9 c 128,-1,12
 350 0 350 0 297 0 c 2,13,-1
 145 0 145 0 95 0 c 1,0,-1
274 117 m 1,14,-1
 201.5 81 201.5 81 298 117 c 2,15,16
 332 117 332 117 351.5 130 c 128,-1,17
 371 143 371 143 379.5 170 c 128,-1,18
 388 197 388 197 387 238 c 0,19,20
 386 283 386 283 368 313.5 c 128,-1,21
 350 344 350 344 296 344 c 2,22,-1
 200.5 391 200.5 391 274 344 c 1,23,-1
 183 236 183 236 274 117 c 1,14,-1
6 568 m 1,24,-1
 -10 625.5 -10 625.5 6 679 c 1,25,-1
 168.5 665 168.5 665 407 679 c 1,26,-1
 347 625.5 347 625.5 407 568 c 1,27,-1
 168.5 586 168.5 586 6 568 c 1,24,-1
EndSplineSet
EndChar

StartChar: uni048E
Encoding: 718 1166 560
Width: 571
GlyphClass: 1
Flags: W
LayerCount: 2
Fore
SplineSet
60 0 m 1,0,-1
 63 405 63 405 60 810 c 1,1,-1
 163.5 810 163.5 810 332 810 c 2,2,3
 405 810 405 810 452 783 c 128,-1,4
 499 756 499 756 522 703 c 128,-1,5
 545 650 545 650 545 571 c 0,6,7
 545 499 545 499 526.5 453 c 128,-1,8
 508 407 508 407 476 381.5 c 128,-1,9
 444 356 444 356 401.5 346 c 128,-1,10
 359 336 359 336 311 336 c 2,11,-1
 220.5 377 220.5 377 239 336 c 1,12,-1
 176 188.5 176 188.5 239 0 c 1,13,-1
 119.5 0 119.5 0 60 0 c 1,0,-1
510 277 m 1,14,-1
 328 415 328 415 266 515 c 1,15,-1
 251 549 251 549 323 571 c 1,16,-1
 384 471 384 471 567 333 c 1,17,-1
 461 337 461 337 510 277 c 1,14,-1
239 461 m 1,18,-1
 202 458 202 458 299 461 c 2,19,20
 332 461 332 461 349 473 c 128,-1,21
 366 485 366 485 371.5 510 c 128,-1,22
 377 535 377 535 377 573 c 0,23,24
 377 606 377 606 372.5 631 c 128,-1,25
 368 656 368 656 351.5 670 c 128,-1,26
 335 684 335 684 298 684 c 2,27,-1
 202.5 729 202.5 729 239 684 c 1,28,-1
 176 593.5 176 593.5 239 461 c 1,18,-1
EndSplineSet
EndChar

StartChar: uni0528
Encoding: 719 1320 561
AltUni2: 000529.ffffffff.0
Width: 643
GlyphClass: 1
Flags: W
LayerCount: 2
Fore
SplineSet
91 -166 m 0,0,1
 61 -166 61 -166 51 -165 c 128,-1,2
 41 -164 41 -164 32 -162 c 1,3,-1
 20 -103.5 20 -103.5 32 -62 c 1,4,5
 37 -62 37 -62 43 -61 c 128,-1,6
 49 -60 49 -60 53 -59 c 0,7,8
 78 -57 78 -57 87 -40.5 c 128,-1,9
 96 -24 96 -24 96 1 c 2,10,-1
 108 405 108 405 96 810 c 1,11,-1
 164.5 810 164.5 810 275 810 c 1,12,-1
 221 635 221 635 275 482 c 1,13,-1
 325 460 325 460 400 482 c 1,14,-1
 429 635 429 635 400 810 c 1,15,-1
 485.5 810 485.5 810 580 810 c 1,16,-1
 542 405 542 405 580 0 c 1,17,-1
 485.5 0 485.5 0 400 0 c 1,18,-1
 429 189.5 429 189.5 400 354 c 1,19,-1
 325 379 325 379 275 354 c 1,20,-1
 221 186 221 186 275 -5 c 2,21,22
 275 -48 275 -48 256 -85 c 128,-1,23
 237 -122 237 -122 196.5 -144 c 128,-1,24
 156 -166 156 -166 91 -166 c 0,0,1
EndSplineSet
EndChar

StartChar: uni052E
Encoding: 720 1326 562
Width: 688
GlyphClass: 1
Flags: W
LayerCount: 2
Fore
SplineSet
7 0 m 1,0,-1
 2 42 2 42 7 126 c 1,1,2
 41 126 41 126 62 130.5 c 128,-1,3
 83 135 83 135 95 152 c 128,-1,4
 107 169 107 169 114 204 c 128,-1,5
 121 239 121 239 125.5 298 c 128,-1,6
 130 357 130 357 137 448 c 2,7,-1
 147.5 594.5 147.5 594.5 163 810 c 1,8,-1
 339 810 339 810 592 810 c 1,9,-1
 517 405 517 405 592 0 c 1,10,-1
 460.5 0 460.5 0 414 0 c 1,11,-1
 404 363 404 363 414 673 c 1,12,-1
 331 726 331 726 325 673 c 1,13,-1
 248.5 552.5 248.5 552.5 309 414 c 2,14,15
 302 314 302 314 295 241.5 c 128,-1,16
 288 169 288 169 272.5 120 c 128,-1,17
 257 71 257 71 226.5 43.5 c 128,-1,18
 196 16 196 16 143 6 c 128,-1,19
 90 -4 90 -4 7 0 c 1,0,-1
557 -160 m 1,20,-1
 499 -33 499 -33 532 121 c 1,21,-1
 543 81 543 81 671 121 c 1,22,-1
 594 -33 594 -33 671 -160 c 1,23,-1
 550 -147 550 -147 557 -160 c 1,20,-1
458 121 m 1,24,-1
 475.5 81 475.5 81 606 121 c 1,25,-1
 506 40.5 506 40.5 606 0 c 1,26,-1
 475.5 0 475.5 0 458 0 c 1,27,-1
 445 40.5 445 40.5 458 121 c 1,24,-1
EndSplineSet
EndChar

StartChar: uni0431
Encoding: 209 1073 564
Width: 483
GlyphClass: 1
Flags: W
LayerCount: 2
Fore
SplineSet
240 -10 m 0,0,1
 160 -8 160 -8 117.5 19 c 128,-1,2
 75 46 75 46 60 97.5 c 128,-1,3
 45 149 45 149 45 221 c 2,4,-1
 52 362 52 362 45 544 c 2,5,6
 45 624 45 624 61.5 672 c 128,-1,7
 78 720 78 720 107.5 746 c 128,-1,8
 137 772 137 772 176 786 c 0,9,10
 215 800 215 800 254.5 808 c 128,-1,11
 294 816 294 816 331.5 826.5 c 128,-1,12
 369 837 369 837 401 858 c 1,13,-1
 377 798.5 377 798.5 407 727 c 1,14,15
 374 710 374 710 337.5 702.5 c 128,-1,16
 301 695 301 695 266.5 689.5 c 128,-1,17
 232 684 232 684 203 672 c 256,18,19
 177 662 177 662 166 634.5 c 128,-1,20
 155 607 155 607 155 559 c 2,21,-1
 137 524.5 137 524.5 155 515 c 1,22,23
 168 530 168 530 187.5 540 c 128,-1,24
 207 550 207 550 233.5 555 c 128,-1,25
 260 560 260 560 292 560 c 0,26,27
 345 560 345 560 378 540 c 128,-1,28
 411 520 411 520 426.5 474 c 128,-1,29
 442 428 442 428 442 349 c 2,30,-1
 395 268 395 268 442 208 c 2,31,32
 442 119 442 119 416.5 71.5 c 128,-1,33
 391 24 391 24 345.5 7 c 128,-1,34
 300 -10 300 -10 240 -10 c 0,0,1
247 95 m 0,35,36
 266 95 266 95 274.5 105 c 128,-1,37
 283 115 283 115 286 142.5 c 128,-1,38
 289 170 289 170 289 224 c 2,39,-1
 287 267.5 287 267.5 289 378 c 2,40,41
 289 411 289 411 286 430.5 c 128,-1,42
 283 450 283 450 274 458 c 128,-1,43
 265 466 265 466 248 466 c 0,44,45
 237 466 237 466 227.5 459.5 c 128,-1,46
 218 453 218 453 212 438.5 c 128,-1,47
 206 424 206 424 202 398 c 1,48,-1
 159 308 159 308 202 225 c 2,49,50
 202 172 202 172 205 144 c 128,-1,51
 208 116 208 116 218 105.5 c 128,-1,52
 228 95 228 95 247 95 c 0,35,36
EndSplineSet
EndChar

StartChar: uni0432
Encoding: 210 1074 565
Width: 505
GlyphClass: 1
Flags: W
LayerCount: 2
Fore
SplineSet
51 0 m 1,0,-1
 54 289 54 289 51 578 c 1,1,-1
 135 578 135 578 256 578 c 2,2,3
 343 578 343 578 387 559.5 c 128,-1,4
 431 541 431 541 446 509 c 128,-1,5
 461 477 461 477 461 434 c 0,6,7
 461 377 461 377 436.5 350.5 c 128,-1,8
 412 324 412 324 372 313 c 1,9,10
 414 303 414 303 436 283 c 128,-1,11
 458 263 458 263 466.5 234 c 128,-1,12
 475 205 475 205 475 167 c 0,13,14
 475 111 475 111 454 73.5 c 128,-1,15
 433 36 433 36 383 18 c 128,-1,16
 333 0 333 0 247 0 c 2,17,-1
 137.5 0 137.5 0 51 0 c 1,0,-1
213 90 m 1,18,-1
 178 81 178 81 240 90 c 2,19,20
 262 90 262 90 279 94 c 128,-1,21
 296 98 296 98 306.5 115.5 c 128,-1,22
 317 133 317 133 317 172 c 0,23,24
 317 216 317 216 307.5 235 c 128,-1,25
 298 254 298 254 281 258 c 128,-1,26
 264 262 264 262 241 262 c 2,27,-1
 180.5 268 180.5 268 213 262 c 1,28,-1
 159 174.5 159 174.5 213 90 c 1,18,-1
213 350 m 1,29,-1
 185 345 185 345 254 350 c 2,30,31
 283 350 283 350 294 368.5 c 128,-1,32
 305 387 305 387 305 420 c 0,33,34
 305 452 305 452 293.5 473 c 128,-1,35
 282 494 282 494 242 494 c 2,36,-1
 179.5 500 179.5 500 213 494 c 1,37,-1
 159 422.5 159 422.5 213 350 c 1,29,-1
EndSplineSet
EndChar

StartChar: uni0433
Encoding: 211 1075 566
Width: 290
GlyphClass: 1
Flags: W
LayerCount: 2
Fore
SplineSet
54 0 m 1,0,-1
 51 578 l 1,1,-1
 287 578 l 1,2,-1
 339 468 l 1,3,-1
 161 501 l 1,4,-1
 214 0 l 1,5,-1
 54 0 l 1,0,-1
EndSplineSet
EndChar

StartChar: geupturncy
Encoding: 721 1169 568
Width: 296
GlyphClass: 1
Flags: W
LayerCount: 2
Fore
SplineSet
55 0 m 1,0,-1
 51 578 l 1,1,-1
 229 578 l 1,2,-1
 261 700 l 1,3,-1
 288 672 l 1,4,-1
 344 468 l 1,5,-1
 162 501 l 1,6,-1
 214 0 l 1,7,-1
 55 0 l 1,0,-1
EndSplineSet
EndChar

StartChar: uni04F7
Encoding: 722 1271 569
Width: 352
GlyphClass: 1
Flags: W
LayerCount: 2
Fore
SplineSet
51 0 m 1,0,-1
 54 289 54 289 51 578 c 1,1,-1
 170.5 578 170.5 578 339 578 c 1,2,-1
 287 539.5 287 539.5 339 468 c 1,3,-1
 224 501 224 501 214 468 c 1,4,-1
 161 250.5 161 250.5 214 0 c 1,5,-1
 107.5 0 107.5 0 51 0 c 1,0,-1
182 -160 m 1,6,-1
 146 -35.5 146 -35.5 164 100 c 1,7,-1
 185 76 185 76 292 100 c 1,8,-1
 231 -35.5 231 -35.5 292 -160 c 1,9,-1
 192 -147 192 -147 182 -160 c 1,6,-1
EndSplineSet
EndChar

StartChar: gestrokecy
Encoding: 723 1171 570
Width: 322
GlyphClass: 1
Flags: W
LayerCount: 2
Fore
SplineSet
20 352 m 1,0,-1
 332 344 l 1,1,-1
 290 273 l 1,2,-1
 8 240 l 1,3,-1
 20 352 l 1,0,-1
188 0 m 1,4,-1
 72 0 l 1,5,-1
 81 578 l 1,6,-1
 361 578 l 1,7,-1
 314 499 l 1,8,-1
 235 457 l 1,9,-1
 188 0 l 1,4,-1
EndSplineSet
EndChar

StartChar: gemiddlehookcy
Encoding: 724 1173 571
Width: 510
GlyphClass: 1
Flags: W
LayerCount: 2
Fore
SplineSet
292 -169 m 0,0,1
 277 -169 277 -169 262.5 -167.5 c 128,-1,2
 248 -166 248 -166 234 -165 c 1,3,-1
 224 -108 224 -108 234 -69 c 1,4,-1
 234.5 -73 234.5 -73 250 -69 c 2,5,6
 275 -69 275 -69 287 -58 c 128,-1,7
 299 -47 299 -47 303.5 -27.5 c 128,-1,8
 308 -8 308 -8 308 15 c 2,9,-1
 299 140.5 299 140.5 308 197 c 2,10,11
 308 228 308 228 300.5 244.5 c 128,-1,12
 293 261 293 261 270 261 c 0,13,14
 262 261 262 261 252.5 259 c 128,-1,15
 243 257 243 257 234.5 253.5 c 128,-1,16
 226 250 226 250 219 247 c 2,17,-1
 170 149 170 149 219 0 c 1,18,-1
 116.5 0 116.5 0 56 0 c 1,19,-1
 63 289 63 289 56 578 c 1,20,-1
 180 578 180 578 360 578 c 1,21,-1
 297 538.5 297 538.5 360 457 c 1,22,-1
 234 499 234 499 219 457 c 1,23,-1
 171 426 171 426 219 341 c 1,24,25
 233 347 233 347 249 354 c 128,-1,26
 265 361 265 361 285 366 c 128,-1,27
 305 371 305 371 329 371 c 0,28,29
 384 371 384 371 415 350 c 128,-1,30
 446 329 446 329 458.5 293 c 128,-1,31
 471 257 471 257 471 212 c 2,32,-1
 406 154.5 406 154.5 471 4 c 2,33,34
 471 -53 471 -53 454 -91.5 c 128,-1,35
 437 -130 437 -130 397.5 -149.5 c 128,-1,36
 358 -169 358 -169 292 -169 c 0,0,1
EndSplineSet
EndChar

StartChar: uni0434
Encoding: 212 1076 572
Width: 614
GlyphClass: 1
Flags: W
LayerCount: 2
Fore
SplineSet
39 -160 m 1,0,-1
 32 -38 32 -38 39 99 c 1,1,2
 72 114 72 114 96 138.5 c 128,-1,3
 120 163 120 163 137 198.5 c 128,-1,4
 154 234 154 234 164 281.5 c 128,-1,5
 174 329 174 329 178 390 c 2,6,-1
 174 540 174 540 194 578 c 1,7,-1
 305.5 578 305.5 578 513 578 c 1,8,-1
 436 327 436 327 513 100 c 1,9,-1
 471 76 471 76 589 100 c 1,10,-1
 506 -35.5 506 -35.5 589 -160 c 1,11,-1
 467 -147 467 -147 478 -160 c 1,12,-1
 423.5 -73.5 423.5 -73.5 467 0 c 1,13,-1
 269 0 269 0 159 0 c 1,14,-1
 114.5 -73.5 114.5 -73.5 150 -160 c 1,15,-1
 71 -147 71 -147 39 -160 c 1,0,-1
215 100 m 1,16,-1
 234.5 76 234.5 76 364 100 c 1,17,-1
 333 288.5 333 288.5 364 481 c 1,18,-1
 295.5 501 295.5 501 315 481 c 1,19,-1
 257 490.5 257 490.5 303 351 c 1,20,21
 300 296 300 296 292.5 255.5 c 128,-1,22
 285 215 285 215 273.5 185.5 c 128,-1,23
 262 156 262 156 247 135.5 c 128,-1,24
 232 115 232 115 215 100 c 1,16,-1
EndSplineSet
EndChar

StartChar: uni0436
Encoding: 214 1078 576
Width: 660
GlyphClass: 1
Flags: W
LayerCount: 2
Fore
SplineSet
7 0 m 1,0,-1
 76.5 147.5 76.5 147.5 122 291 c 1,1,-1
 81 436.5 81 436.5 14 578 c 1,2,-1
 64 578 64 578 155 578 c 1,3,-1
 176.5 439 176.5 439 247 304 c 1,4,-1
 242 300 242 300 259 304 c 1,5,-1
 246 439 246 439 259 578 c 1,6,-1
 290 578 290 578 395 578 c 1,7,-1
 334 439 334 439 395 304 c 1,8,-1
 338 300 338 300 406 304 c 1,9,-1
 403 439 403 439 504 578 c 1,10,-1
 515 578 515 578 647 578 c 1,11,-1
 498 436.5 498 436.5 532 291 c 1,12,-1
 502.5 147.5 502.5 147.5 653 0 c 1,13,-1
 525.5 0 525.5 0 518 0 c 1,14,-1
 409 142 409 142 406 279 c 1,15,-1
 338 284 338 284 395 279 c 1,16,-1
 334 142 334 142 395 0 c 1,17,-1
 290 0 290 0 259 0 c 1,18,-1
 246 142 246 142 259 279 c 1,19,-1
 241.5 284 241.5 284 247 279 c 1,20,-1
 170 142 170 142 142 0 c 1,21,-1
 53.5 0 53.5 0 7 0 c 1,0,-1
EndSplineSet
EndChar

StartChar: uni0437
Encoding: 215 1079 577
Width: 450
GlyphClass: 1
Flags: W
LayerCount: 2
Fore
SplineSet
223 -11 m 0,0,1
 163 -11 163 -11 126.5 5.5 c 128,-1,2
 90 22 90 22 70.5 50.5 c 128,-1,3
 51 79 51 79 44.5 115.5 c 128,-1,4
 38 152 38 152 38 192 c 1,5,-1
 81.5 177 81.5 177 167 192 c 1,6,7
 167 146 167 146 181.5 123.5 c 128,-1,8
 196 101 196 101 227 101 c 0,9,10
 250 101 250 101 262 111 c 128,-1,11
 274 121 274 121 278.5 139 c 128,-1,12
 283 157 283 157 283 179 c 0,13,14
 283 208 283 208 272.5 225 c 128,-1,15
 262 242 262 242 238.5 249.5 c 128,-1,16
 215 257 215 257 175 257 c 1,17,-1
 132 298 132 298 175 341 c 1,18,19
 235 341 235 341 253.5 357 c 128,-1,20
 272 373 272 373 272 413 c 0,21,22
 272 442 272 442 260.5 459 c 128,-1,23
 249 476 249 476 220 476 c 0,24,25
 189 476 189 476 176.5 458.5 c 128,-1,26
 164 441 164 441 164 397 c 1,27,-1
 74.5 412 74.5 412 36 397 c 1,28,29
 36 449 36 449 52 492.5 c 128,-1,30
 68 536 68 536 109.5 562 c 128,-1,31
 151 588 151 588 228 588 c 0,32,33
 296 588 296 588 338.5 566.5 c 128,-1,34
 381 545 381 545 400.5 508.5 c 128,-1,35
 420 472 420 472 420 426 c 0,36,37
 420 388 420 388 408 362 c 128,-1,38
 396 336 396 336 377 321.5 c 128,-1,39
 358 307 358 307 335 300 c 1,40,41
 360 291 360 291 379.5 276 c 128,-1,42
 399 261 399 261 411 233.5 c 128,-1,43
 423 206 423 206 423 159 c 0,44,45
 423 86 423 86 376 37.5 c 128,-1,46
 329 -11 329 -11 223 -11 c 0,0,1
EndSplineSet
EndChar

StartChar: uni0438
Encoding: 216 1080 578
Width: 508
GlyphClass: 1
Flags: W
LayerCount: 2
Fore
SplineSet
51 0 m 1,0,-1
 54 289 54 289 51 578 c 1,1,-1
 99 578 99 578 180 578 c 1,2,-1
 144 383.5 144 383.5 180 269 c 1,3,-1
 231 383.5 231 383.5 331 578 c 1,4,-1
 360 578 360 578 458 578 c 1,5,-1
 402 289 402 289 458 0 c 1,6,-1
 358 0 358 0 326 0 c 1,7,-1
 314 196 314 196 326 306 c 1,8,-1
 227.5 196 227.5 196 179 0 c 1,9,-1
 97.5 0 97.5 0 51 0 c 1,0,-1
EndSplineSet
EndChar

StartChar: uni0439
Encoding: 217 1081 579
Width: 590
GlyphClass: 1
Flags: W
LayerCount: 2
Fore
SplineSet
200 553 m 0,0,1
 214 605 214 605 166.5 667 c 4,2,3
 137 706 137 706 137 764 c 5,4,-1
 137 764 l 5,5,6
 186 746 186 746 215.5 708.5 c 4,7,8
 231 689 231 689 268 689 c 4,9,10
 292 689 292 689 321.5 709 c 4,11,12
 361 736 361 736 400 764 c 5,13,-1
 400 764 l 5,14,15
 401 707 401 707 370.5 667 c 4,16,-1
 200 553 l 0,0,1
EndSplineSet
Refer: 460 1048 N 1 0 0 1 0 0 3
EndChar

StartChar: uni048B
Encoding: 727 1163 581
Width: 557
GlyphClass: 1
Flags: W
LayerCount: 2
Fore
SplineSet
365 -160 m 1,0,-1
 363 -36.5 363 -36.5 410 100 c 1,1,-1
 427 75 427 75 537 100 c 1,2,-1
 448 -36.5 448 -36.5 474 -160 c 1,3,-1
 384 -148 384 -148 365 -160 c 1,0,-1
51 0 m 1,4,-1
 54 289 54 289 51 578 c 1,5,-1
 99 578 99 578 180 578 c 1,6,-1
 144 383.5 144 383.5 180 269 c 1,7,-1
 231 383.5 231 383.5 331 578 c 1,8,-1
 360 578 360 578 458 578 c 1,9,-1
 402 289 402 289 458 0 c 1,10,-1
 358 0 358 0 326 0 c 1,11,-1
 314 196 314 196 326 306 c 1,12,-1
 227.5 196 227.5 196 179 0 c 1,13,-1
 97.5 0 97.5 0 51 0 c 1,4,-1
254 643 m 0,14,15
 183 643 183 643 140 683 c 128,-1,16
 97 723 97 723 97 799 c 1,17,-1
 130 777 130 777 189 799 c 1,18,19
 189 762 189 762 203.5 744 c 128,-1,20
 218 726 218 726 254 726 c 0,21,22
 290 726 290 726 304.5 744.5 c 128,-1,23
 319 763 319 763 319 799 c 1,24,-1
 330.5 777 330.5 777 411 799 c 1,25,26
 411 723 411 723 368 683 c 128,-1,27
 325 643 325 643 254 643 c 0,14,15
EndSplineSet
EndChar

StartChar: uni043A
Encoding: 218 1082 582
Width: 508
GlyphClass: 1
Flags: W
LayerCount: 2
Fore
SplineSet
63 0 m 1,0,-1
 64 720 l 1,1,-1
 124 672 l 1,2,-1
 176 450 l 1,3,-1
 218 450 l 1,4,-1
 439 723 l 1,5,-1
 439 723 l 1,6,-1
 316 425 l 1,7,-1
 496 0 l 1,8,-1
 496 0 l 1,9,-1
 219 395 l 1,10,-1
 176 395 l 1,11,-1
 133 0 l 5,12,-1
 63 0 l 1,0,-1
EndSplineSet
EndChar

StartChar: uni043B
Encoding: 219 1083 584
Width: 581
GlyphClass: 1
Flags: W
LayerCount: 2
Fore
SplineSet
2 0 m 1,0,-1
 3 81 l 1,1,2
 25 80 25 80 43 85.5 c 128,-1,3
 61 91 61 91 75.5 106 c 128,-1,4
 90 121 90 121 101 153 c 0,5,6
 119 203 119 203 120 240 c 0,7,8
 120 252.151515152 120 252.151515152 134 379 c 2,9,-1
 167 678 l 1,10,-1
 521 681 l 1,11,-1
 517 0 l 1,12,-1
 293 0 l 1,13,-1
 461 624 l 1,14,-1
 203 627 l 1,15,-1
 200 351 l 2,16,17
 199 231 199 231 198.5 231 c 0,18,19
 194 195 194 195 161 123 c 0,20,21
 147.408618386 92.0955920782 147.408618386 92.0955920782 137 84 c 0,22,23
 83 42 83 42 77 39 c 0,24,25
 40 20 40 20 2 0 c 1,0,-1
EndSplineSet
EndChar

StartChar: uni043C
Encoding: 220 1084 585
Width: 660
GlyphClass: 1
Flags: W
LayerCount: 2
Fore
SplineSet
61 0 m 1,0,-1
 66 651 l 1,1,-1
 222 648 l 1,2,-1
 330 153 l 1,3,-1
 432 642 l 1,4,-1
 591 639 l 1,5,-1
 599 0 l 1,6,-1
 599 0 l 1,7,-1
 499 588 l 1,8,-1
 333 0 l 1,9,-1
 333 0 l 5,10,-1
 162 588 l 1,11,-1
 61 0 l 1,12,-1
 61 0 l 1,0,-1
EndSplineSet
EndChar

StartChar: uni043D
Encoding: 221 1085 586
Width: 561
GlyphClass: 1
Flags: W
LayerCount: 2
Fore
SplineSet
63 0 m 1,0,-1
 67 705 l 1,1,-1
 67 705 l 1,2,-1
 176 460 l 1,3,-1
 384 460 l 1,4,-1
 496 699 l 1,5,-1
 496 699 l 1,6,-1
 497 0 l 1,7,-1
 497 0 l 1,8,-1
 384 379 l 1,9,-1
 176 379 l 1,10,-1
 63 0 l 1,11,-1
 63 0 l 1,0,-1
EndSplineSet
EndChar

StartChar: uni043E
Encoding: 222 1086 587
Width: 539
GlyphClass: 1
Flags: W
LayerCount: 2
Fore
SplineSet
264 55 m 260,0,1
 182 55 182 55 136 55 c 128,-1,2
 90 55 90 55 69 114.5 c 128,-1,3
 48 174 48 174 48 254 c 2,4,-1
 48 561 l 2,5,6
 48 641 48 641 69.5 698.5 c 128,-1,7
 91 756 91 756 134.5 746 c 128,-1,8
 178 736 178 736 260 736 c 256,9,10
 342 736 342 736 395 745.5 c 128,-1,11
 448 755 448 755 469.5 698 c 128,-1,12
 491 641 491 641 491 561 c 2,13,-1
 491 253 l 2,14,15
 491 174 491 174 469.5 115 c 128,-1,16
 448 56 448 56 397 55.5 c 128,-1,17
 346 55 346 55 264 55 c 260,0,1
266 196 m 256,18,19
 311 196 311 196 336 156.5 c 128,-1,20
 361 117 361 117 369 150.5 c 128,-1,21
 377 184 377 184 377 229 c 2,22,-1
 377 584 l 2,23,24
 377 629 377 629 369 661.5 c 128,-1,25
 361 694 361 694 334.5 668.5 c 128,-1,26
 308 643 308 643 263 643 c 256,27,28
 218 643 218 643 198 668.5 c 128,-1,29
 178 694 178 694 170 661.5 c 128,-1,30
 162 629 162 629 162 584 c 2,31,-1
 162 229 l 2,32,33
 162 184 162 184 170 150.5 c 128,-1,34
 178 117 178 117 199.5 156.5 c 128,-1,35
 221 196 221 196 266 196 c 256,18,19
EndSplineSet
EndChar

StartChar: uni043F
Encoding: 223 1087 588
Width: 572
GlyphClass: 1
Flags: W
LayerCount: 2
Fore
SplineSet
63 0 m 1,0,-1
 124 777 l 1,1,-1
 448 777 l 5,2,-1
 509 0 l 1,3,-1
 396 0 l 1,4,-1
 396 729 l 1,5,-1
 176 729 l 1,6,-1
 176 0 l 1,7,-1
 63 0 l 1,0,-1
EndSplineSet
EndChar

StartChar: uni0440
Encoding: 224 1088 589
Width: 480
GlyphClass: 1
Flags: W
LayerCount: 2
Fore
SplineSet
63 -71 m 5,0,-1
 63 739 l 5,1,-1
 264 739 l 6,2,3
 337 739 337 739 380.5 712.5 c 132,-1,4
 424 686 424 686 444 636 c 132,-1,5
 464 586 464 586 464 515 c 4,6,7
 464 451 464 451 441.5 404 c 132,-1,8
 419 357 419 357 375 331.5 c 132,-1,9
 331 306 331 306 265 306 c 6,10,-1
 176 306 l 5,11,-1
 63 -71 l 5,12,-1
 63 -71 l 5,0,-1
152 358 m 5,13,-1
 228 387 l 6,14,15
 269.950195312 403.006835938 269.950195312 403.006835938 305 398 c 4,16,17
 327 395 327 395 345 436.5 c 4,18,19
 357 464 357 464 357 514 c 4,20,21
 357 572 357 572 348.5 603 c 132,-1,22
 340 634 340 634 311.232421875 639.125976562 c 4,23,24
 227 654 227 654 229 658 c 6,25,-1
 245 691 l 5,26,-1
 152 358 l 5,13,-1
EndSplineSet
EndChar

StartChar: uni0441
Encoding: 225 1089 590
Width: 515
GlyphClass: 1
Flags: W
LayerCount: 2
Fore
SplineSet
266 -70 m 4,0,1
 180 -70 180 -70 132.5 -34 c 132,-1,2
 85 2 85 2 66.5 63 c 132,-1,3
 48 124 48 124 48 199 c 6,4,-1
 48 485 l 6,5,6
 48 567 48 567 66.5 628 c 132,-1,7
 85 689 85 689 132.5 722.5 c 132,-1,8
 180 756 180 756 266 756 c 4,9,10
 342 756 342 756 386.5 728 c 132,-1,11
 431 700 431 700 450.5 648 c 132,-1,12
 470 596 470 596 470 523 c 6,13,-1
 470 459 l 5,14,-1
 470 459 l 5,15,-1
 363 516 l 6,16,17
 347 525 347 525 351.75 593.25 c 4,18,19
 354 630 354 630 331.2109375 636.86328125 c 4,20,21
 308 644 308 644 267 668 c 4,22,23
 186 715 186 715 178 672 c 4,24,25
 163 598 163 598 163.5 597.25 c 4,26,27
 197 575 197 575 231 553 c 6,28,-1
 231 232 l 6,29,30
 231 171 231 171 185 94.5 c 132,-1,31
 139 18 139 18 183.5 18.5 c 132,-1,32
 228 19 228 19 267 19 c 4,33,34
 313 19 313 19 333 39.5 c 132,-1,35
 353 60 353 60 351.092773438 98.1875 c 4,36,37
 348.016601562 171.598632812 348.016601562 171.598632812 363 180 c 6,38,-1
 470 240 l 5,39,-1
 470 240 l 5,40,-1
 470 180 l 6,41,42
 470 106 470 106 452 49.5 c 132,-1,43
 434 -7 434 -7 390 -38.5 c 132,-1,44
 346 -70 346 -70 266 -70 c 4,0,1
EndSplineSet
EndChar

StartChar: uni0442
Encoding: 226 1090 591
Width: 413
GlyphClass: 1
Flags: W
LayerCount: 2
Fore
SplineSet
206 -109 m 5,0,-1
 152 617 l 5,1,-1
 15 701 l 5,2,-1
 15 701 l 5,3,-1
 398 701 l 5,4,-1
 398 701 l 5,5,-1
 265 617 l 5,6,-1
 206 -109 l 5,7,-1
 206 -109 l 5,0,-1
EndSplineSet
EndChar

StartChar: uni0443
Encoding: 227 1091 592
Width: 452
GlyphClass: 1
Flags: W
LayerCount: 2
Fore
SplineSet
53 -142 m 1,0,-1
 53 -142 l 5,1,2
 69.4896187244 -139.740211454 69.4896187244 -139.740211454 101.75 -97.5 c 4,3,4
 136 -52 136 -52 100 -58 c 0,5,6
 79.1381561405 -60.4048847748 79.1381561405 -60.4048847748 136.5 -52 c 0,7,8
 152 -46 152 -46 163 -34 c 128,-1,9
 174 -22 174 -22 179.5 -6 c 128,-1,10
 185 10 185 10 185 29 c 0,11,12
 185 42 185 42 183.5 57 c 0,13,14
 180.959967974 81.384307446 180.959967974 81.384307446 179 90 c 2,15,-1
 35 723 l 1,16,-1
 35 723 l 1,17,-1
 194 465 l 1,18,-1
 235 208 l 1,19,-1
 271 463 l 1,20,-1
 422 714 l 1,21,-1
 422 714 l 1,22,-1
 304 129 l 2,23,24
 299 106 299 106 273 -4.5 c 0,25,26
 262 -52 262 -52 238.5 -89 c 0,27,28
 219 -120 219 -120 189.5 -133.5 c 128,-1,29
 160 -147 160 -147 115 -147 c 0,30,31
 106 -147 106 -147 89.5 -145.5 c 128,-1,32
 73 -144 73 -144 53 -142 c 1,0,-1
EndSplineSet
EndChar

StartChar: uni0444
Encoding: 228 1092 594
Width: 662
GlyphClass: 1
Flags: W
LayerCount: 2
Fore
SplineSet
331 -101 m 5,0,-1
 273 31 l 5,1,2
 268 30 268 30 257 29 c 132,-1,3
 246 28 246 28 238 28 c 4,4,5
 177 28 177 28 134.5 47 c 132,-1,6
 92 66 92 66 70 113 c 132,-1,7
 48 160 48 160 48 242 c 6,8,-1
 48 444 l 6,9,10
 48 525 48 525 69 572 c 132,-1,11
 90 619 90 619 129.5 639.5 c 132,-1,12
 169 660 169 660 224 660 c 4,13,14
 238 660 238 660 252 659.5 c 132,-1,15
 266 659 266 659 273 658 c 5,16,-1
 325 820 l 5,17,-1
 325 820 l 5,18,-1
 386 658 l 5,19,20
 396 659 396 659 411 659.5 c 132,-1,21
 426 660 426 660 437 660 c 4,22,23
 494 660 494 660 533.5 639.5 c 132,-1,24
 573 619 573 619 593.5 571.5 c 132,-1,25
 614 524 614 524 614 444 c 6,26,-1
 614 242 l 6,27,28
 614 161 614 161 593 114 c 132,-1,29
 572 67 572 67 535 47.5 c 132,-1,30
 498 28 498 28 451 28 c 4,31,32
 435 28 435 28 419 29 c 132,-1,33
 403 30 403 30 386 31 c 5,34,-1
 331 -101 l 5,35,-1
 331 -101 l 5,0,-1
274 110 m 4,36,37
 226 94 226 94 261 96.5 c 4,38,39
 269 97 269 97 273 98 c 5,40,-1
 273 590 l 5,41,42
 264 591 264 591 255 591.5 c 132,-1,43
 246 592 246 592 238 592 c 4,44,45
 205 592 205 592 203.731445312 566.043945312 c 4,46,47
 201 519 201 519 199 517 c 4,48,49
 185.916992188 501.904296875 185.916992188 501.904296875 193 436 c 6,50,-1
 216 222 l 6,51,52
 216 222 216 222 211.162109375 167.33984375 c 4,53,54
 206.083007812 124.470703125 206.083007812 124.470703125 226.5 114.5 c 4,55,56
 249.962890625 101.516601562 249.962890625 101.516601562 274 110 c 4,36,37
423 96 m 4,57,58
 432 97 432 97 445 145 c 4,59,60
 456 186 456 186 460 208 c 4,61,62
 461 214 461 214 461 280 c 6,63,-1
 461 280 l 6,64,65
 459 286 459 286 454 370 c 4,66,67
 450 443 450 443 453 497 c 4,68,69
 459 592 459 592 421 592 c 4,70,71
 412 592 412 592 403 591.5 c 132,-1,72
 394 591 394 591 386 590 c 5,73,-1
 386 98 l 5,74,75
 393 97 393 97 407.790039062 96.2607421875 c 4,76,77
 423 96 423 96 423 96 c 4,57,58
EndSplineSet
EndChar

StartChar: uni0445
Encoding: 229 1093 595
Width: 482
GlyphClass: 1
Flags: W
LayerCount: 2
Fore
SplineSet
13 0 m 1,0,-1
 182 424 l 1,1,-1
 58 711 l 1,2,-1
 58 711 l 1,3,-1
 244 524 l 1,4,-1
 412 705 l 1,5,-1
 412 705 l 1,6,-1
 291 415 l 1,7,-1
 469 0 l 1,8,-1
 469 0 l 5,9,-1
 232 305 l 1,10,-1
 0 0 l 1,11,-1
 13 0 l 1,0,-1
EndSplineSet
EndChar

StartChar: uni0447
Encoding: 231 1095 596
Width: 551
GlyphClass: 1
Flags: W
LayerCount: 2
Fore
SplineSet
374 0 m 1,0,-1
 446 312 l 5,1,2
 431 366 431 366 356 362.5 c 132,-1,3
 281 359 281 359 255 359 c 0,4,5
 151 359 151 359 100.5 405.5 c 0,6,7
 48.3642276423 452.670460705 48.3642276423 452.670460705 50 547 c 2,8,-1
 53 720 l 1,9,-1
 53 720 l 1,10,-1
 164 547 l 2,11,12
 177 527 177 527 175 483.5 c 0,13,14
 174 465 174 465 211 445.5 c 0,15,16
 236 433 236 433 277 433 c 0,17,18
 298 433 298 433 322.5 436 c 128,-1,19
 347 439 347 439 374 445 c 1,20,-1
 371 717 l 1,21,-1
 533 738 l 1,22,-1
 488 0 l 1,23,-1
 374 0 l 1,0,-1
EndSplineSet
EndChar

StartChar: uni0446
Encoding: 230 1094 597
Width: 622
GlyphClass: 1
Flags: W
LayerCount: 2
Fore
SplineSet
509 -147 m 1,0,-1
 551 33 l 5,1,-1
 107 0 l 1,2,-1
 59 699 l 1,3,-1
 59 699 l 1,4,-1
 176 81 l 1,5,-1
 406 81 l 1,6,-1
 515 684 l 1,7,-1
 515 684 l 1,8,-1
 467 63 l 1,9,-1
 596 81 l 1,10,-1
 596 -147 l 1,11,-1
 509 -147 l 1,0,-1
EndSplineSet
EndChar

StartChar: uni0448
Encoding: 232 1096 598
Width: 750
GlyphClass: 1
Flags: W
LayerCount: 2
Fore
SplineSet
111 0 m 5,0,-1
 60 663 l 1,1,-1
 60 663 l 1,2,-1
 176 82 l 1,3,-1
 322 82 l 1,4,-1
 384 666 l 1,5,-1
 384 666 l 1,6,-1
 435 82 l 1,7,-1
 574 82 l 1,8,-1
 687 660 l 1,9,-1
 687 660 l 1,10,-1
 633 0 l 1,11,-1
 111 0 l 5,0,-1
EndSplineSet
EndChar

StartChar: uni0449
Encoding: 233 1097 599
Width: 790
GlyphClass: 1
Flags: W
LayerCount: 2
Fore
SplineSet
765 -147 m 1,0,-1
 630 0 l 1,1,-1
 120 0 l 1,2,-1
 66 696 l 1,3,-1
 66 696 l 1,4,-1
 176 81 l 1,5,-1
 322 81 l 1,6,-1
 369 693 l 1,7,-1
 369 693 l 1,8,-1
 435 81 l 1,9,-1
 574 81 l 1,10,-1
 687 687 l 1,11,-1
 687 687 l 1,12,-1
 654 60 l 1,13,-1
 747 120 l 5,14,-1
 765 -147 l 1,15,-1
 765 -147 l 1,0,-1
EndSplineSet
EndChar

StartChar: uni045F
Encoding: 255 1119 600
Width: 446
GlyphClass: 1
Flags: W
LayerCount: 2
Fore
SplineSet
209 -160 m 1,0,-1
 181 0 l 1,1,-1
 51 0 l 1,2,-1
 54 578 l 1,3,-1
 214 578 l 1,4,-1
 161 76 l 1,5,-1
 304 99 l 1,6,-1
 285 578 l 1,7,-1
 466 578 l 1,8,-1
 392 0 l 1,9,-1
 328 0 l 1,10,-1
 262 -147 l 1,11,-1
 209 -160 l 1,0,-1
EndSplineSet
EndChar

StartChar: uni044C
Encoding: 236 1100 601
Width: 494
GlyphClass: 1
Flags: W
LayerCount: 2
Fore
SplineSet
34 0 m 5,0,-1
 176 810 l 1,1,-1
 176 810 l 1,2,-1
 176 473 l 1,3,-1
 208 473 l 2,4,5
 296 473 296 473 353 452.5 c 128,-1,6
 410 432 410 432 438.5 381 c 128,-1,7
 467 330 467 330 467 237 c 0,8,9
 467 174 467 174 452 129.5 c 128,-1,10
 437 85 437 85 405.5 56 c 0,11,12
 373 26 373 26 326.5 13.5 c 0,13,14
 274 0 274 0 213 0 c 2,15,-1
 34 0 l 5,0,-1
296.5 92.5 m 1,16,-1
 213 81 l 2,17,18
 255 87 255 87 296.5 92.5 c 0,19,20
 326 97 326 97 345 138 c 0,21,22
 361 172 361 172 361 238 c 0,23,24
 361 321 361 321 329 356 c 128,-1,25
 297 391 297 391 211 391 c 2,26,-1
 176 391 l 1,27,-1
 296.5 92.5 l 1,16,-1
EndSplineSet
EndChar

StartChar: uni044B
Encoding: 235 1099 602
Width: 728
GlyphClass: 1
Flags: W
LayerCount: 2
Fore
SplineSet
63 0 m 1,0,-1
 64 702 l 1,1,-1
 64 702 l 1,2,-1
 176 473 l 1,3,-1
 208 473 l 2,4,5
 296 473 296 473 353 452.5 c 128,-1,6
 410 432 410 432 438.5 381 c 128,-1,7
 467 330 467 330 467 237 c 0,8,9
 467 174 467 174 452 129.5 c 128,-1,10
 437 85 437 85 405.5 56 c 128,-1,11
 374 27 374 27 326.5 13.5 c 128,-1,12
 279 0 279 0 213 0 c 2,13,-1
 63 0 l 1,0,-1
296.5 92.5 m 1,14,-1
 213 81 l 2,15,16
 213 81 213 81 271 92.5 c 128,-1,17
 329 104 329 104 345 138 c 128,-1,18
 361 172 361 172 361 238 c 0,19,20
 361 343 361 343 329 356 c 0,21,22
 202 409 202 409 211 391 c 2,23,-1
 259 294 l 1,24,-1
 296.5 92.5 l 1,14,-1
484 0 m 1,25,-1
 667 696 l 1,26,-1
 667 696 l 1,27,-1
 664 0 l 1,28,-1
 484 0 l 1,25,-1
EndSplineSet
EndChar

StartChar: uni044A
Encoding: 234 1098 603
Width: 567
GlyphClass: 1
Flags: W
LayerCount: 2
Fore
SplineSet
136 0 m 1,0,-1
 132 660 l 1,1,-1
 5 724 l 1,2,-1
 5 724 l 1,3,-1
 243 744 l 1,4,-1
 249 473 l 1,5,-1
 280 473 l 2,6,7
 368 473 368 473 426 452.5 c 128,-1,8
 484 432 484 432 512.5 381 c 128,-1,9
 541 330 541 330 541 237 c 0,10,11
 541 174 541 174 525.5 129.5 c 128,-1,12
 510 85 510 85 479 56 c 128,-1,13
 448 27 448 27 400 13.5 c 128,-1,14
 352 0 352 0 286 0 c 2,15,-1
 136 0 l 1,0,-1
201 54 m 1,16,-1
 287 81 l 2,17,18
 347.65830721 100.043887147 347.65830721 100.043887147 365.915929204 101.261061947 c 0,19,20
 402 104 402 104 418 138 c 128,-1,21
 434 172 434 172 434 238 c 0,22,23
 434 351 434 351 402 356 c 0,24,25
 350 364 350 364 284 391 c 2,26,-1
 198 426 l 5,27,-1
 201 54 l 1,16,-1
EndSplineSet
EndChar

StartChar: uni0459
Encoding: 249 1113 604
Width: 810
GlyphClass: 1
Flags: W
LayerCount: 2
Fore
SplineSet
34 -6 m 1,0,-1
 5 35 5 35 34 109 c 1,1,2
 78 109 78 109 100.5 127.5 c 128,-1,3
 123 146 123 146 134 193.5 c 128,-1,4
 145 241 145 241 151 327 c 2,5,-1
 110.5 450 110.5 450 170 578 c 1,6,-1
 268 578 268 578 538 578 c 1,7,-1
 419 456 419 456 538 345 c 1,8,-1
 427 334 427 334 544 345 c 2,9,10
 603 345 603 345 647.5 336.5 c 128,-1,11
 692 328 692 328 722.5 309 c 128,-1,12
 753 290 753 290 768.5 257.5 c 128,-1,13
 784 225 784 225 784 176 c 0,14,15
 784 129 784 129 770 95.5 c 128,-1,16
 756 62 756 62 727 41 c 128,-1,17
 698 20 698 20 652.5 10 c 128,-1,18
 607 0 607 0 545 0 c 2,19,-1
 368 0 368 0 375 0 c 1,20,-1
 313 248.5 313 248.5 375 468 c 1,21,-1
 261.5 497 261.5 497 308 468 c 1,22,-1
 205 402 205 402 295 292 c 2,23,24
 288 201 288 201 274 142.5 c 128,-1,25
 260 84 260 84 234.5 51.5 c 128,-1,26
 209 19 209 19 167.5 6.5 c 128,-1,27
 126 -6 126 -6 63 -6 c 2,28,-1
 10.5 -5 10.5 -5 34 -6 c 1,0,-1
538 93 m 1,29,-1
 422 63 422 63 542 93 c 2,30,31
 577 93 577 93 597.5 100.5 c 128,-1,32
 618 108 618 108 627 125.5 c 128,-1,33
 636 143 636 143 636 171 c 0,34,35
 636 201 636 201 626 218 c 128,-1,36
 616 235 616 235 595.5 242 c 128,-1,37
 575 249 575 249 541 249 c 2,38,-1
 422 271 422 271 538 249 c 1,39,-1
 419 167 419 167 538 93 c 1,29,-1
EndSplineSet
EndChar

StartChar: uni045A
Encoding: 250 1114 605
Width: 630
GlyphClass: 1
Flags: W
LayerCount: 2
Fore
SplineSet
54 0 m 1,0,-1
 51 578 l 1,1,-1
 161 578 l 1,2,-1
 214 347 l 1,3,-1
 283 339 l 1,4,-1
 298 579 l 1,5,-1
 390 578 l 1,6,-1
 461 346 l 1,7,8
 463 346 463 346 430 340 c 128,-1,9
 397 334 397 334 400 334 c 128,-1,10
 403 334 403 334 471 346 c 0,11,12
 527 345 527 345 570 335.5 c 128,-1,13
 613 326 613 326 642 306 c 128,-1,14
 671 286 671 286 685.5 252.5 c 128,-1,15
 700 219 700 219 609 168 c 0,16,17
 609 122 609 122 641 91.5 c 128,-1,18
 673 61 673 61 644.5 40.5 c 128,-1,19
 616 20 616 20 571 10.5 c 128,-1,20
 526 1 526 1 462 1 c 2,21,-1
 283 0 l 1,22,-1
 298 214 l 1,23,-1
 161 267 l 1,24,-1
 214 0 l 1,25,-1
 54 0 l 1,0,-1
390 63 m 1,26,27
 462 94 462 94 428.5 78.5 c 128,-1,28
 395 63 395 63 397.5 63 c 128,-1,29
 400 63 400 63 466 94 c 2,30,31
 498 95 498 95 517 102.5 c 128,-1,32
 536 110 536 110 544.5 126 c 128,-1,33
 553 142 553 142 553 168 c 0,34,35
 553 199 553 199 544 216 c 128,-1,36
 535 233 535 233 516 240.5 c 128,-1,37
 497 248 497 248 401 271 c 0,38,39
 465 249 465 249 464 249 c 128,-1,40
 463 249 463 249 427 260 c 128,-1,41
 391 271 391 271 390 271 c 1,42,-1
 390 63 l 1,26,27
EndSplineSet
EndChar

StartChar: uni0454
Encoding: 244 1108 607
Width: 461
GlyphClass: 1
Flags: W
LayerCount: 2
Fore
SplineSet
239 -10 m 0,0,1
 176 -10 176 -10 131.5 13 c 128,-1,2
 87 36 87 36 63 79 c 128,-1,3
 39 122 39 122 39 183 c 2,4,-1
 44 288.5 44 288.5 39 395 c 2,5,6
 39 457 39 457 63 500 c 128,-1,7
 87 543 87 543 131.5 565.5 c 128,-1,8
 176 588 176 588 239 588 c 0,9,10
 301 588 301 588 344.5 569 c 128,-1,11
 388 550 388 550 411.5 511.5 c 128,-1,12
 435 473 435 473 435 414 c 2,13,-1
 371 397 371 397 435 374 c 1,14,-1
 322.5 389 322.5 389 277 374 c 1,15,-1
 274 397 274 397 277 415 c 2,16,17
 277 439 277 439 272.5 451.5 c 128,-1,18
 268 464 268 464 260 468.5 c 128,-1,19
 252 473 252 473 240 473 c 0,20,21
 228 473 228 473 219.5 467 c 128,-1,22
 211 461 211 461 207 446 c 128,-1,23
 203 431 203 431 203 405 c 2,24,-1
 151 353 151 353 203 330 c 1,25,-1
 222 329 222 329 336 330 c 1,26,-1
 293 294 293 294 336 258 c 1,27,-1
 222 259 222 259 203 258 c 1,28,-1
 151 227 151 227 203 173 c 2,29,30
 203 133 203 133 212.5 119.5 c 128,-1,31
 222 106 222 106 241 106 c 0,32,33
 253 106 253 106 261 111.5 c 128,-1,34
 269 117 269 117 273 129.5 c 128,-1,35
 277 142 277 142 277 163 c 2,36,-1
 274 184.5 274 184.5 277 215 c 1,37,-1
 322.5 198 322.5 198 435 215 c 1,38,-1
 371 188 371 188 435 166 c 2,39,40
 435 108 435 108 411.5 68.5 c 128,-1,41
 388 29 388 29 344.5 9.5 c 128,-1,42
 301 -10 301 -10 239 -10 c 0,0,1
EndSplineSet
EndChar

StartChar: uni044D
Encoding: 237 1101 608
Width: 519
GlyphClass: 1
Flags: W
LayerCount: 2
Fore
SplineSet
254 -60 m 4,0,1
 178 -60 178 -60 133 -32 c 132,-1,2
 88 -4 88 -4 68.5 48 c 4,3,4
 27.0703125 164.801757812 27.0703125 164.801757812 49 173 c 6,5,-1
 156 213 l 5,6,-1
 156 213 l 5,7,-1
 156 181 l 6,8,9
 156 137 156 137 160.5 102 c 132,-1,10
 165 67 165 67 186 67.5 c 132,-1,11
 207 68 207 68 254 68 c 4,12,13
 302 68 302 68 323.5 69 c 132,-1,14
 345 70 345 70 351 108 c 132,-1,15
 357 146 357 146 357 196 c 6,16,-1
 357 324 l 5,17,-1
 116 353 l 5,18,-1
 116 353 l 5,19,-1
 357 398 l 5,20,-1
 357 516 l 6,21,22
 357 577 357 577 347 612.5 c 132,-1,23
 337 648 337 648 312 644.5 c 132,-1,24
 287 641 287 641 248 641 c 4,25,26
 203 641 203 641 185 639.5 c 132,-1,27
 167 638 167 638 161.5 601.5 c 132,-1,28
 156 565 156 565 156 517 c 6,29,-1
 156 482 l 5,30,-1
 156 482 l 5,31,-1
 49 518 l 6,32,33
 27 525 27 525 67 648 c 4,34,35
 85 704 85 704 129.5 735.5 c 132,-1,36
 174 767 174 767 254 767 c 4,37,38
 340 767 340 767 387 731 c 132,-1,39
 434 695 434 695 452.5 634.5 c 132,-1,40
 471 574 471 574 471 498 c 6,41,-1
 471 212 l 6,42,43
 471 130 471 130 452.5 68.5 c 132,-1,44
 434 7 434 7 387 -26.5 c 132,-1,45
 340 -60 340 -60 254 -60 c 4,0,1
EndSplineSet
EndChar

StartChar: uni045B
Encoding: 251 1115 612
Width: 518
GlyphClass: 1
Flags: W
LayerCount: 2
Fore
SplineSet
56 0 m 1,0,-1
 63 405 63 405 56 810 c 1,1,-1
 116.5 810 116.5 810 219 810 c 1,2,-1
 170 631 170 631 219 452 c 1,3,4
 237 460 237 460 257.5 466.5 c 128,-1,5
 278 473 278 473 299 477.5 c 128,-1,6
 320 482 320 482 341 482 c 0,7,8
 394 482 394 482 422 456.5 c 128,-1,9
 450 431 450 431 460.5 390.5 c 128,-1,10
 471 350 471 350 471 304 c 2,11,-1
 406 197.5 406 197.5 471 0 c 1,12,-1
 352.5 0 352.5 0 308 0 c 1,13,-1
 299 184.5 299 184.5 308 311 c 2,14,15
 308 340 308 340 300.5 356.5 c 128,-1,16
 293 373 293 373 270 373 c 0,17,18
 263 373 263 373 253.5 370.5 c 128,-1,19
 244 368 244 368 235 364.5 c 128,-1,20
 226 361 226 361 219 358 c 2,21,-1
 170 198.5 170 198.5 219 0 c 1,22,-1
 116.5 0 116.5 0 56 0 c 1,0,-1
-7 567 m 1,23,-1
 -5 643.5 -5 643.5 -7 673 c 1,24,-1
 153.5 681 153.5 681 345 673 c 1,25,-1
 312 643.5 312 643.5 345 567 c 1,26,-1
 153.5 606 153.5 606 -7 567 c 1,23,-1
EndSplineSet
EndChar

StartChar: yucy
Encoding: 238 1102 613
Width: 719
GlyphClass: 1
Flags: W
LayerCount: 2
Fore
SplineSet
466 -91 m 260,0,1
 388 -91 388 -91 343 -58.5 c 132,-1,2
 298 -26 298 -26 279.5 34 c 132,-1,3
 261 94 261 94 261 174 c 6,4,-1
 261 289 l 5,5,-1
 261 289 l 5,6,-1
 169 -82 l 5,7,-1
 169 -82 l 5,8,-1
 38 597 l 5,9,-1
 169 728 l 5,10,-1
 149 369 l 5,11,-1
 261 375 l 5,12,-1
 261 476 l 6,13,14
 261 557 261 557 279.5 615 c 132,-1,15
 298 673 298 673 343 704 c 132,-1,16
 388 735 388 735 466 735 c 260,17,18
 544 735 544 735 588.5 703.5 c 132,-1,19
 633 672 633 672 652 614 c 132,-1,20
 671 556 671 556 671 476 c 6,21,-1
 671 174 l 6,22,23
 671 95 671 95 652 35 c 132,-1,24
 633 -25 633 -25 588.5 -58 c 132,-1,25
 544 -91 544 -91 466 -91 c 260,0,1
467 90 m 260,26,27
 510 90 510 90 531.5 62.5 c 132,-1,28
 553 35 553 35 561 68.5 c 132,-1,29
 569 102 569 102 569 147 c 6,30,-1
 569 502 l 6,31,32
 569 547 569 547 561 579.5 c 132,-1,33
 553 612 553 612 530 583.5 c 132,-1,34
 507 555 507 555 464 555 c 260,35,36
 421 555 421 555 399.5 583.5 c 132,-1,37
 378 612 378 612 370 579.5 c 132,-1,38
 362 547 362 547 362 502 c 6,39,-1
 362 147 l 6,40,41
 362 102 362 102 370 68.5 c 132,-1,42
 378 35 378 35 401 62.5 c 132,-1,43
 424 90 424 90 467 90 c 260,26,27
EndSplineSet
EndChar

StartChar: yacy
Encoding: 239 1103 614
Width: 545
GlyphClass: 1
Flags: W
LayerCount: 2
Fore
SplineSet
13 -84 m 5,0,-1
 183 280 l 5,1,2
 129 304 129 304 96.5 359.5 c 132,-1,3
 64 415 64 415 64 502 c 4,4,5
 64 567 64 567 88 617.5 c 132,-1,6
 112 668 112 668 168 697 c 132,-1,7
 224 726 224 726 318 726 c 6,8,-1
 482 726 l 5,9,-1
 482 -84 l 5,10,-1
 287 -84 l 5,11,-1
 369 252 l 5,12,-1
 305 252 l 6,13,14
 303 252 303 252 292 252.5 c 4,15,16
 279 253 279 253 279 253 c 6,17,-1
 13 -84 l 5,18,-1
 13 -84 l 5,0,-1
327 333 m 6,19,-1
 369 333 l 5,20,-1
 369 645 l 5,21,-1
 324 645 l 6,22,23
 248 645 248 645 261.5 611 c 132,-1,24
 275 577 275 577 275 501 c 4,25,26
 275 415 275 415 258 374 c 132,-1,27
 241 333 241 333 327 333 c 6,19,-1
EndSplineSet
EndChar

StartChar: uni0452
Encoding: 242 1106 615
Width: 510
GlyphClass: 1
Flags: W
LayerCount: 2
Fore
SplineSet
292 -169 m 0,0,1
 277 -169 277 -169 262.5 -167.5 c 128,-1,2
 248 -166 248 -166 234 -165 c 1,3,-1
 224 -108 224 -108 234 -69 c 1,4,-1
 234.5 -73 234.5 -73 250 -69 c 2,5,6
 275 -69 275 -69 287 -58 c 128,-1,7
 299 -47 299 -47 303.5 -28 c 128,-1,8
 308 -9 308 -9 308 15 c 2,9,-1
 299 190 299 190 308 309 c 2,10,11
 308 340 308 340 300.5 356.5 c 128,-1,12
 293 373 293 373 270 373 c 0,13,14
 262 373 262 373 252.5 370.5 c 128,-1,15
 243 368 243 368 234.5 364.5 c 128,-1,16
 226 361 226 361 219 358 c 2,17,-1
 170 198.5 170 198.5 219 0 c 1,18,-1
 116.5 0 116.5 0 56 0 c 1,19,-1
 63 405 63 405 56 810 c 1,20,-1
 116.5 810 116.5 810 219 810 c 1,21,-1
 170 631 170 631 219 452 c 1,22,23
 237 460 237 460 257.5 466.5 c 128,-1,24
 278 473 278 473 299 477.5 c 128,-1,25
 320 482 320 482 341 482 c 0,26,27
 394 482 394 482 422 456.5 c 128,-1,28
 450 431 450 431 460.5 390 c 128,-1,29
 471 349 471 349 471 302 c 2,30,-1
 406 204 406 204 471 4 c 2,31,32
 471 -53 471 -53 454 -91.5 c 128,-1,33
 437 -130 437 -130 397.5 -149.5 c 128,-1,34
 358 -169 358 -169 292 -169 c 0,0,1
-7 584 m 1,35,-1
 -5 643.5 -5 643.5 -7 688 c 1,36,-1
 153.5 681 153.5 681 345 688 c 1,37,-1
 312 643.5 312 643.5 345 584 c 1,38,-1
 153.5 606 153.5 606 -7 584 c 1,35,-1
EndSplineSet
EndChar

StartChar: uni0463
Encoding: 728 1123 616
Width: 531
GlyphClass: 1
Flags: W
LayerCount: 2
Fore
SplineSet
90 0 m 1,0,-1
 68 405 68 405 90 810 c 1,1,-1
 121.5 810 121.5 810 253 810 c 1,2,-1
 175 574.5 175 574.5 253 346 c 1,3,4
 254 346 254 346 255 346 c 128,-1,5
 256 346 256 346 257 346 c 128,-1,6
 258 346 258 346 259 346 c 0,7,8
 319 346 319 346 364.5 337.5 c 128,-1,9
 410 329 410 329 441 309 c 128,-1,10
 472 289 472 289 488 255 c 128,-1,11
 504 221 504 221 504 170 c 256,12,13
 504 124 504 124 490 92 c 128,-1,14
 476 60 476 60 447 39.5 c 128,-1,15
 418 19 418 19 371.5 9.5 c 128,-1,16
 325 0 325 0 259 0 c 2,17,-1
 124.5 0 124.5 0 90 0 c 1,0,-1
253 93 m 1,18,-1
 178 63 178 63 257 93 c 2,19,20
 293 94 293 94 314.5 101 c 128,-1,21
 336 108 336 108 346 124 c 128,-1,22
 356 140 356 140 356 168 c 0,23,24
 356 200 356 200 346 217.5 c 128,-1,25
 336 235 336 235 315 242.5 c 128,-1,26
 294 250 294 250 259 250 c 0,27,28
 258 250 258 250 256.5 250 c 128,-1,29
 255 250 255 250 253 250 c 1,30,-1
 175 169.5 175 169.5 253 93 c 1,18,-1
6 474 m 1,31,-1
 -10 540.5 -10 540.5 6 578 c 1,32,-1
 153.5 578 153.5 578 393 578 c 1,33,-1
 317 540.5 317 540.5 393 474 c 1,34,-1
 153.5 503 153.5 503 6 474 c 1,31,-1
EndSplineSet
EndChar

StartChar: uni046B
Encoding: 729 1131 617
Width: 611
GlyphClass: 1
Flags: W
LayerCount: 2
Fore
SplineSet
7 0 m 1,0,-1
 92 183 92 183 175 369 c 1,1,-1
 222 333.5 222 333.5 305 269 c 1,2,-1
 305 333.5 305 333.5 438 369 c 1,3,-1
 436 183 436 183 604 0 c 1,4,-1
 475.5 0 475.5 0 470 0 c 1,5,-1
 369.5 131 369.5 131 376 241 c 1,6,-1
 310.5 262 310.5 262 369 241 c 1,7,-1
 308 131 308 131 369 0 c 1,8,-1
 264 0 264 0 242 0 c 1,9,-1
 220 131 220 131 242 241 c 1,10,-1
 217.5 262 217.5 262 236 241 c 1,11,-1
 158.5 131 158.5 131 142 0 c 1,12,-1
 52.5 0 52.5 0 7 0 c 1,0,-1
316 299 m 1,13,-1
 266 326.5 266 326.5 298 299 c 1,14,-1
 298 435 298 435 384 510 c 1,15,-1
 354.5 522.5 354.5 522.5 389 484 c 1,16,-1
 263 503 263 503 219 484 c 1,17,-1
 171 522.5 171 522.5 225 509 c 1,18,-1
 230.5 433.5 230.5 433.5 316 299 c 1,13,-1
218 259 m 1,19,-1
 131 439.5 131 439.5 65 578 c 1,20,-1
 263 578 263 578 543 578 c 1,21,-1
 396.5 439.5 396.5 439.5 394 259 c 1,22,-1
 264.5 301 264.5 301 218 259 c 1,19,-1
EndSplineSet
EndChar

